<?xml version="1.0" encoding="UTF-8" standalone="no"?>
<!-- Created with Inkscape (http://www.inkscape.org/) -->

<svg
   xmlns:dc="http://purl.org/dc/elements/1.1/"
   xmlns:cc="http://creativecommons.org/ns#"
   xmlns:rdf="http://www.w3.org/1999/02/22-rdf-syntax-ns#"
   xmlns:svg="http://www.w3.org/2000/svg"
   xmlns="http://www.w3.org/2000/svg"
   xmlns:sodipodi="http://sodipodi.sourceforge.net/DTD/sodipodi-0.dtd"
   xmlns:inkscape="http://www.inkscape.org/namespaces/inkscape"
   width="247.40262mm"
   height="166.85921mm"
   viewBox="0 0 247.40262 166.85921"
   version="1.1"
   id="svg5583"
   inkscape:version="0.92.1 r15371"
   sodipodi:docname="Linked Geodesy Working Papers SVG File_1.svg">
  <defs
     id="defs5577">
    <clipPath
       clipPathUnits="userSpaceOnUse"
       id="clipPath5506">
      <rect
         style="opacity:1;fill:#000000;fill-opacity:1;fill-rule:evenodd;stroke:none;stroke-width:1.87464571;stroke-miterlimit:4;stroke-dasharray:none;stroke-opacity:1"
         id="rect5508"
         width="1336.312"
         height="985.75482"
         x="356.54959"
         y="870.42688" />
    </clipPath>
  </defs>
  <sodipodi:namedview
     id="base"
     pagecolor="#ffffff"
     bordercolor="#666666"
     borderopacity="1.0"
     inkscape:pageopacity="0.0"
     inkscape:pageshadow="2"
     inkscape:zoom="0.35"
     inkscape:cx="-102.4675"
     inkscape:cy="35.32451"
     inkscape:document-units="mm"
     inkscape:current-layer="layer1"
     showgrid="false"
     fit-margin-top="0"
     fit-margin-left="0"
     fit-margin-right="0"
     fit-margin-bottom="0"
     inkscape:window-width="1920"
     inkscape:window-height="1028"
     inkscape:window-x="-8"
     inkscape:window-y="-8"
     inkscape:window-maximized="1" />
  <metadata
     id="metadata5580">
    <rdf:RDF>
      <cc:Work
         rdf:about="">
        <dc:format>image/svg+xml</dc:format>
        <dc:type
           rdf:resource="http://purl.org/dc/dcmitype/StillImage" />
        <dc:title></dc:title>
      </cc:Work>
    </rdf:RDF>
  </metadata>
  <g
     inkscape:label="Ebene 1"
     inkscape:groupmode="layer"
     id="layer1"
     transform="translate(32.231069,8.6796025)">
    <g
       transform="matrix(0.26458333,0,0,0.26458333,-174.82164,-276.03312)"
       id="g276"
       clip-path="url(#clipPath5506)">
      <g
         id="g220">
        <g
           id="g170">
          <path
             inkscape:connector-curvature="0"
             d="m 753.079,1273.034 c 2.425,-69.805 31.685,-132.767 77.817,-178.904 48.202,-48.197 114.761,-77.999 188.31,-78.001 61.623,10e-4 118.333,20.932 163.457,56.065 1.577,-1.159 3.181,-2.303 4.816,-3.424 -46.295,-36.509 -104.738,-58.299 -168.273,-58.3 -147.078,0 -266.865,116.75 -271.793,262.629 z"
             id="path164" />
          <path
             inkscape:connector-curvature="0"
             d="m 1243.347,1436.168 c -1.13,0.467 -2.351,0.72 -3.623,0.721 h -3.548 c -8.61,12.074 -18.201,23.402 -28.66,33.863 -48.202,48.197 -114.761,77.999 -188.31,78.001 -73.549,0 -140.109,-29.804 -188.31,-78.001 -18.817,-18.818 -34.813,-40.445 -47.343,-64.183 h -6.398 c 12.993,25.288 29.829,48.276 49.739,68.185 49.208,49.212 117.218,79.659 192.312,79.658 93.22,-10e-4 175.473,-46.91 224.475,-118.401 -0.112,0.05 -0.22,0.109 -0.334,0.157 z"
             id="path166" />
          <path
             inkscape:connector-curvature="0"
             d="m 1272.764,1200.843 c 8.269,25.715 12.752,53.129 12.753,81.598 -10e-4,48.993 -13.239,94.875 -36.316,134.305 v 10.666 c 0,0.081 -0.01,0.16 -0.012,0.241 26.585,-42.016 41.986,-91.812 41.987,-145.211 0,-28.43 -4.37,-55.838 -12.462,-81.598 h -5.95 z"
             id="path168" />
        </g>
        <g
           id="g192">
          <path
             style="fill:#ffffff"
             inkscape:connector-curvature="0"
             d="m 1141.514,1437.695 c -7.153,-27.881 -21.666,-43.883 -34.409,-52.767 -0.577,-0.402 -1.144,-0.775 -1.713,-1.149 -11.992,-7.899 -21.958,-9.62 -22.167,-9.657 -0.154,-0.026 -0.308,-0.036 -0.458,-0.031 -0.827,0.028 -1.561,0.515 -1.931,1.242 -0.102,0.2 -0.185,0.412 -0.224,0.645 -0.026,0.155 -0.036,0.308 -0.031,0.459 0.036,1.052 0.806,1.97 1.885,2.155 v 0 c 0,0 0,0 0,0 v 0 0 0 c 0.01,10e-4 0.057,0.01 0.135,0.025 1.085,0.21 8.405,1.787 17.496,7.188 0.107,0.064 0.21,0.119 0.318,0.184 0.223,0.134 0.453,0.285 0.677,0.424 1.209,0.745 2.439,1.543 3.693,2.429 11.909,8.422 25.472,23.347 32.333,49.982 1.991,7.745 3.109,15.817 3.567,23.956 0.167,2.968 0.253,5.945 0.253,8.919 10e-4,10.137 -0.917,20.228 -2.339,29.79 -0.123,0.83 -0.259,1.647 -0.39,2.469 1.682,-0.925 3.354,-1.867 5.013,-2.829 1.365,-9.438 2.248,-19.382 2.249,-29.43 0,-0.948 -0.02,-1.898 -0.036,-2.847 -0.175,-10.494 -1.326,-21.042 -3.925,-31.157 z"
             id="path172" />
          <path
             style="fill:#ffffff"
             inkscape:connector-curvature="0"
             d="m 1058.022,1387.779 v 0 c -0.043,-0.15 -0.1,-0.291 -0.169,-0.424 0,0 -10e-4,0 -10e-4,0 -0.025,-0.047 -0.058,-0.087 -0.086,-0.131 -0.519,-0.846 -1.547,-1.285 -2.546,-0.999 v 0 0 0 c -0.254,0.075 -6.291,1.839 -12.327,8.274 -3.4,3.614 -6.75,8.712 -9.026,15.708 -0.053,0.161 -0.098,0.336 -0.149,0.499 -0.443,1.411 -0.85,2.885 -1.198,4.45 -10e-4,0 0,0.01 0,0.012 -0.97,4.363 -1.54,9.339 -1.534,14.999 0,3.181 0.179,6.579 0.565,10.209 1.537,14.443 2.315,30.13 2.315,45.235 10e-4,12.155 -0.513,23.915 -1.525,34.36 -0.266,2.748 -0.559,5.426 -0.896,7.971 -0.056,0.427 -0.121,0.826 -0.18,1.246 -0.262,1.891 -0.545,3.713 -0.846,5.471 1.555,-0.082 3.104,-0.185 4.651,-0.295 0.792,-4.798 1.443,-10.035 1.95,-15.624 0.922,-10.193 1.379,-21.496 1.379,-33.129 0,-15.261 -0.785,-31.09 -2.34,-45.715 -0.127,-1.187 -0.222,-2.336 -0.302,-3.467 -0.06,-0.844 -0.108,-1.672 -0.144,-2.485 -0.057,-1.293 -0.093,-2.56 -0.093,-3.778 0.02,-17.17 5.432,-26.937 10.684,-32.568 2.635,-2.813 5.258,-4.583 7.2,-5.645 0.97,-0.531 1.769,-0.883 2.31,-1.098 0.269,-0.107 0.475,-0.181 0.605,-0.224 l 0.137,-0.045 h 0.01 0.015 v 0 c 0.046,-0.013 0.085,-0.036 0.13,-0.052 0.1,-0.036 0.201,-0.069 0.292,-0.117 0.056,-0.029 0.104,-0.069 0.157,-0.103 0.072,-0.046 0.148,-0.088 0.214,-0.141 0.063,-0.051 0.116,-0.113 0.173,-0.17 0.046,-0.046 0.097,-0.087 0.139,-0.137 0.061,-0.072 0.109,-0.153 0.16,-0.233 0.027,-0.042 0.061,-0.081 0.086,-0.125 0.053,-0.096 0.092,-0.198 0.131,-0.3 0.013,-0.033 0.032,-0.064 0.043,-0.098 0.038,-0.116 0.061,-0.237 0.08,-0.359 0,-0.023 0.012,-0.045 0.015,-0.068 0.017,-0.141 0.02,-0.286 0.01,-0.431 0,0 10e-4,-0.01 0,-0.014 -0.016,-0.147 -0.042,-0.298 -0.085,-0.449 z"
             id="path174" />
          <path
             style="fill:#ffffff"
             inkscape:connector-curvature="0"
             d="m 1299.881,1170.492 c -0.333,-0.507 -0.894,-0.809 -1.501,-0.809 h -5.569 c 1.832,-8.126 4.141,-21.328 4.156,-35.942 l 10e-4,-0.063 v -0.05 c 0,0 0,-10e-4 0,-10e-4 0,0 0,-10e-4 0,-10e-4 v -0.018 -0.028 l -10e-4,-0.057 v 0 c -0.01,-10.584 -1.221,-21.889 -4.772,-32.517 -1.782,-5.32 -4.147,-10.463 -7.252,-15.241 -3.105,-4.778 -6.955,-9.184 -11.653,-12.995 h 0.01 l -0.084,-0.069 -0.105,-0.079 -33.145,-23.277 c -0.53,-0.372 -1.213,-0.431 -1.799,-0.155 l -1.653,0.78 c -0.731,0.345 -1.767,0.838 -3.069,1.47 -2.689,1.306 -6.483,3.19 -10.917,5.511 -8.869,4.645 -20.289,11.029 -30.575,18.062 -5.813,3.977 -11.248,8.15 -15.699,12.39 -43.439,-35.464 -98.913,-56.743 -159.363,-56.743 -138.518,0 -250.933,111.686 -252.15,249.917 l -40.857,0.472 c -0.5,0.01 -0.982,0.224 -1.316,0.596 l -7.499,8.354 c -0.439,0.08 -0.835,0.311 -1.109,0.673 -0.212,0.281 -0.324,0.611 -0.349,0.952 l -0.412,0.459 c -0.482,0.537 -0.596,1.302 -0.292,1.956 0.27,0.582 0.827,0.95 1.453,1.012 l 22.393,90.175 c 0.199,0.8 0.919,1.363 1.744,1.363 h 8.001 l 0.283,10.545 c 0.026,0.975 0.82,1.748 1.796,1.748 h 44.377 c 35.306,67.992 100.659,117.87 178.476,132.038 8.025,-23.134 10.298,-48.688 10.613,-68.429 0.027,-1.673 0.039,-3.305 0.041,-4.889 0,-16.899 -1.359,-28.459 -1.366,-28.522 -0.147,-1.244 -1.273,-2.133 -2.516,-1.987 -0.932,0.109 -1.666,0.771 -1.912,1.619 -0.082,0.283 -0.111,0.586 -0.074,0.897 v 0 c 0,0 0.019,0.163 0.055,0.501 0.014,0.13 0.031,0.294 0.049,0.472 0.003,0.026 0.005,0.044 0.007,0.071 0.012,0.118 0.026,0.267 0.04,0.404 0.013,0.127 0.025,0.249 0.038,0.392 0.014,0.149 0.03,0.321 0.045,0.487 0.014,0.155 0.029,0.311 0.044,0.48 0.017,0.191 0.035,0.4 0.054,0.609 0.016,0.184 0.032,0.374 0.049,0.571 0.019,0.228 0.039,0.466 0.058,0.712 0.017,0.205 0.033,0.419 0.05,0.637 0.021,0.265 0.041,0.536 0.062,0.818 0.017,0.233 0.035,0.48 0.052,0.725 0.021,0.3 0.043,0.6 0.064,0.918 0.017,0.248 0.034,0.513 0.05,0.772 0.022,0.339 0.044,0.674 0.066,1.031 0.016,0.257 0.031,0.532 0.046,0.798 0.021,0.359 0.042,0.712 0.062,1.087 -15.289,-0.5 -31.009,-6.221 -44.692,-13.268 -0.093,-0.048 -0.182,-0.097 -0.275,-0.145 -1.041,-0.538 -2.072,-1.083 -3.088,-1.634 -0.284,-0.155 -0.559,-0.313 -0.841,-0.468 -0.818,-0.45 -1.636,-0.901 -2.436,-1.357 -0.593,-0.339 -1.169,-0.681 -1.752,-1.022 -0.479,-0.28 -0.966,-0.558 -1.438,-0.839 -1.052,-0.628 -2.087,-1.259 -3.1,-1.89 -0.948,-0.589 -1.874,-1.178 -2.786,-1.764 -0.306,-0.197 -0.604,-0.393 -0.906,-0.59 -0.588,-0.383 -1.171,-0.764 -1.742,-1.144 -0.368,-0.245 -0.731,-0.488 -1.092,-0.732 -0.473,-0.319 -0.939,-0.635 -1.4,-0.951 -0.4,-0.274 -0.8,-0.548 -1.19,-0.819 -0.369,-0.256 -0.727,-0.508 -1.087,-0.762 -0.446,-0.314 -0.898,-0.63 -1.331,-0.939 -0.011,-0.01 -0.021,-0.015 -0.032,-0.023 -2.043,-1.459 -3.925,-2.856 -5.625,-4.153 0.002,0 0.004,0 0.005,0 0.588,-0.534 1.152,-1.117 1.689,-1.745 0.003,0 0.006,-0.01 0.009,-0.011 0.532,-0.621 1.044,-1.275 1.536,-1.952 0.005,-0.01 0.011,-0.013 0.016,-0.021 0.02,-0.028 0.039,-0.056 0.058,-0.084 0.24,-0.335 0.474,-0.675 0.705,-1.017 0.078,-0.117 0.155,-0.233 0.233,-0.35 0.189,-0.286 0.374,-0.573 0.556,-0.86 0.059,-0.093 0.118,-0.185 0.176,-0.277 0.228,-0.366 0.449,-0.729 0.663,-1.09 0.058,-0.098 0.113,-0.193 0.17,-0.29 0.164,-0.279 0.322,-0.554 0.476,-0.825 0.062,-0.11 0.124,-0.218 0.184,-0.327 0.19,-0.34 0.375,-0.674 0.548,-0.995 0.009,-0.017 0.017,-0.032 0.026,-0.049 0.176,-0.327 0.339,-0.637 0.495,-0.938 0.042,-0.082 0.082,-0.159 0.123,-0.239 0.136,-0.264 0.265,-0.517 0.384,-0.754 0.015,-0.03 0.031,-0.062 0.046,-0.092 0.144,-0.288 0.274,-0.552 0.39,-0.792 l 36.868,-2.195 c 0.656,-0.039 1.264,-0.344 1.688,-0.847 0.232,-0.275 0.389,-0.596 0.478,-0.936 0.074,-0.282 0.104,-0.576 0.071,-0.871 l -1.063,-9.564 -0.256,-2.308 c -0.067,-0.607 -0.357,-1.139 -0.782,-1.52 -0.425,-0.381 -0.987,-0.61 -1.597,-0.61 h -35.401 c 0.228,-0.888 0.399,-1.752 0.518,-2.594 0.03,-0.203 0.062,-0.406 0.086,-0.607 0.035,-0.303 0.068,-0.602 0.09,-0.898 0.047,-0.571 0.078,-1.132 0.078,-1.674 0,0 0.001,-0.012 0.001,-0.017 0,-0.916 -0.058,-1.788 -0.158,-2.616 -10e-4,-0.01 -10e-4,-0.019 -0.003,-0.028 -0.1,-0.819 -0.242,-1.591 -0.412,-2.317 -0.004,-0.015 -0.006,-0.031 -0.01,-0.046 -0.17,-0.721 -0.369,-1.393 -0.582,-2.016 -0.005,-0.014 -0.009,-0.029 -0.014,-0.043 -0.214,-0.621 -0.442,-1.19 -0.671,-1.705 -0.003,-0.01 -0.005,-0.015 -0.008,-0.021 0.159,0.051 0.326,0.104 0.489,0.156 0.639,0.203 1.293,0.412 1.979,0.633 0.114,0.037 0.229,0.074 0.344,0.11 1.81,0.583 3.744,1.214 5.681,1.861 0.023,0.01 0.046,0.015 0.068,0.023 0.99,0.33 1.979,0.664 2.95,0.996 3.137,1.071 9.216,2.777 16.296,4.317 0.507,0.11 1.006,0.222 1.523,0.33 0.832,0.174 1.679,0.343 2.53,0.509 7.055,1.38 14.656,2.459 21.14,2.463 0.032,0 0.061,0 0.093,0 0.991,0 1.953,-0.035 2.888,-0.09 0.051,0 0.104,0 0.154,-0.01 0.975,-0.061 1.912,-0.158 2.817,-0.291 0.017,0 0.034,0 0.05,-0.01 1.846,-0.273 3.534,-0.717 5.036,-1.385 10e-4,0 0.002,-10e-4 0.003,-10e-4 1.415,0.886 2.855,1.727 4.309,2.54 0.181,0.101 0.362,0.204 0.543,0.304 2.88,1.588 5.818,3.038 8.771,4.368 0.315,0.142 0.629,0.283 0.944,0.422 1.435,0.634 2.871,1.249 4.303,1.829 0.29,0.117 0.59,0.17 0.885,0.166 0.71,-0.011 1.382,-0.362 1.803,-0.951 0.102,-0.143 0.194,-0.296 0.263,-0.466 0.059,-0.145 0.101,-0.293 0.129,-0.441 0.192,-1.037 -0.364,-2.1 -1.379,-2.51 -0.893,-0.361 -1.785,-0.75 -2.678,-1.132 -6.43,-2.749 -12.799,-6.04 -18.573,-10.013 -2.145,-1.476 -4.209,-3.039 -6.157,-4.709 -0.12,-0.103 -0.25,-0.196 -0.368,-0.299 -0.233,-0.203 -0.444,-0.425 -0.674,-0.631 -0.894,-0.801 -1.782,-1.606 -2.621,-2.453 -4.222,-4.255 -7.719,-9.085 -10.168,-14.612 -0.559,-1.262 -1.056,-2.566 -1.502,-3.905 -1.012,-3.035 -1.729,-6.266 -2.087,-9.729 -0.003,-0.025 -0.007,-0.05 -0.01,-0.075 -0.031,-0.305 -0.045,-0.622 -0.071,-0.931 -0.115,-1.384 -0.189,-2.796 -0.189,-4.254 0,-1.027 0.049,-2.085 0.109,-3.15 0.02,-0.353 0.052,-0.714 0.077,-1.071 -4.431,2.766 -8.359,4.801 -11.786,6.19 -4.543,1.844 -8.221,2.582 -11.106,2.58 -3.289,-0.011 -5.529,-0.907 -7.215,-2.278 -1.68,-1.377 -2.846,-3.342 -3.554,-5.674 -0.527,-1.732 -1.208,-3.528 -1.744,-5.399 -0.538,-1.869 -0.929,-3.794 -0.928,-5.732 0.006,-2.132 0.447,-4.275 1.746,-6.572 1.303,-2.292 3.51,-4.759 7.167,-7.316 2.48,-1.726 5.186,-2.423 8.129,-2.43 3.007,0 6.233,0.769 9.364,1.983 4.699,1.814 9.162,4.604 12.412,6.936 0.987,0.708 1.846,1.362 2.586,1.943 0.852,-1.248 1.805,-2.444 2.832,-3.598 3.262,-3.664 7.352,-6.852 11.9,-9.574 1.76,-1.056 3.597,-2.018 5.458,-2.937 8.342,-4.121 17.422,-6.937 24.881,-8.734 0.932,-0.225 1.83,-0.431 2.706,-0.626 3.414,-0.76 6.38,-1.302 8.61,-1.666 1.343,-0.219 2.413,-0.373 3.168,-0.476 0.033,0 0.075,-0.01 0.107,-0.015 0.089,-0.012 0.157,-0.021 0.236,-0.031 0.127,-0.016 0.246,-0.032 0.346,-0.045 0.104,-0.013 0.207,-0.026 0.282,-0.035 0.061,-0.01 0.094,-0.011 0.134,-0.016 0.071,-0.01 0.116,-0.014 0.129,-0.015 0,0 0.019,0 0.019,0 0.036,0 0.068,-0.016 0.103,-0.022 1.182,-0.185 2.022,-1.255 1.903,-2.454 -10e-4,-0.01 10e-4,-0.016 0,-0.025 -0.097,-0.888 -0.699,-1.592 -1.486,-1.877 -0.31,-0.112 -0.645,-0.164 -0.994,-0.129 -0.01,10e-4 -0.013,0 -0.02,0 v 0 c -0.106,0.016 -15.947,1.744 -32.554,7.955 -1.903,0.713 -3.815,1.493 -5.717,2.329 -6.4,2.813 -12.669,6.346 -17.95,10.832 -0.649,0.552 -1.274,1.127 -1.885,1.714 -0.512,0.483 -1.006,0.98 -1.494,1.484 0,0 -10e-4,0 -10e-4,10e-4 0,-0.677 0.014,-1.505 0.056,-2.461 0.003,-0.079 0.01,-0.17 0.014,-0.25 0.019,-0.409 0.041,-0.83 0.071,-1.283 0.009,-0.131 0.023,-0.278 0.032,-0.412 0.031,-0.423 0.062,-0.849 0.103,-1.304 0.018,-0.197 0.044,-0.413 0.064,-0.616 0.041,-0.415 0.081,-0.825 0.132,-1.263 0.034,-0.287 0.078,-0.596 0.117,-0.893 0.049,-0.379 0.094,-0.749 0.151,-1.143 0.051,-0.351 0.115,-0.723 0.173,-1.085 0.058,-0.364 0.11,-0.718 0.176,-1.092 0.069,-0.394 0.154,-0.807 0.231,-1.213 0.07,-0.364 0.132,-0.718 0.209,-1.09 0.086,-0.415 0.19,-0.848 0.285,-1.273 0.086,-0.38 0.163,-0.752 0.257,-1.139 0.103,-0.423 0.224,-0.861 0.336,-1.292 0.106,-0.404 0.202,-0.802 0.317,-1.212 0.124,-0.443 0.269,-0.899 0.404,-1.349 0.123,-0.41 0.237,-0.815 0.37,-1.231 0.142,-0.443 0.306,-0.895 0.459,-1.343 0.149,-0.435 0.287,-0.865 0.447,-1.303 0.157,-0.43 0.337,-0.867 0.505,-1.3 0.18,-0.463 0.348,-0.923 0.541,-1.39 0.162,-0.391 0.347,-0.786 0.518,-1.179 0.225,-0.516 0.439,-1.03 0.681,-1.548 0.121,-0.26 0.262,-0.521 0.388,-0.782 0.755,-1.563 1.574,-3.13 2.497,-4.693 2.83,-4.793 6.503,-9.526 11.235,-13.882 2.499,-2.3 5.278,-4.5 8.418,-6.537 1.704,-1.104 3.509,-2.163 5.422,-3.167 0.281,-0.148 0.574,-0.29 0.859,-0.435 0.361,-0.184 0.717,-0.37 1.086,-0.549 0.435,-0.212 0.883,-0.417 1.328,-0.623 0.233,-0.108 0.458,-0.219 0.694,-0.325 3.353,-1.512 7.008,-2.862 10.983,-4.018 0.09,-0.026 0.177,-0.055 0.267,-0.081 1.505,-0.433 3.062,-0.834 4.661,-1.208 0.136,-0.032 0.267,-0.067 0.403,-0.098 1.664,-0.382 3.384,-0.73 5.152,-1.045 0.084,-0.015 0.164,-0.032 0.248,-0.047 0.846,-0.149 1.707,-0.287 2.577,-0.42 0.086,-0.013 0.168,-0.028 0.254,-0.041 0.958,-0.144 1.93,-0.278 2.918,-0.401 h 10e-4 l 0.076,-0.01 c 0.582,-0.05 3.309,-0.263 7.32,-0.263 6.872,-0.01 17.525,0.638 27.542,3.724 5.01,1.542 9.853,3.688 14.002,6.619 1.558,1.101 3.018,2.308 4.359,3.636 0.572,0.567 1.114,1.164 1.641,1.776 0.709,0.823 1.384,1.679 2.005,2.587 0.722,1.056 1.381,2.173 1.972,3.354 0,0 0,10e-4 0,0 0.1,0.199 0.232,0.37 0.377,0.525 0.026,0.027 0.051,0.055 0.078,0.081 0.154,0.149 0.324,0.277 0.51,0.376 -1.332,1.088 -2.666,2.136 -3.997,3.152 -0.195,0.149 -0.389,0.29 -0.583,0.437 -1.073,0.811 -2.144,1.599 -3.211,2.364 -0.345,0.247 -0.688,0.491 -1.032,0.733 -0.948,0.669 -1.891,1.318 -2.829,1.95 -0.334,0.225 -0.67,0.456 -1.002,0.676 -1.225,0.813 -2.442,1.603 -3.639,2.354 -0.571,0.358 -1.128,0.692 -1.691,1.036 -6.225,3.804 -11.943,6.759 -16.581,8.935 -1.005,0.471 -1.977,0.919 -2.873,1.318 -0.195,0.087 -0.366,0.159 -0.556,0.243 -2.439,1.074 -4.442,1.882 -5.836,2.416 -0.091,0.035 -0.156,0.058 -0.242,0.091 -0.415,0.157 -0.76,0.286 -1.052,0.393 -0.147,0.054 -0.311,0.114 -0.426,0.155 -0.194,0.069 -0.341,0.12 -0.437,0.153 l -0.071,0.024 -0.064,0.021 c -1.188,0.397 -1.829,1.68 -1.433,2.868 0.396,1.187 1.68,1.829 2.867,1.433 0.117,-0.04 13.869,-4.628 30.804,-15.246 0.974,-0.611 1.961,-1.247 2.954,-1.898 0.362,-0.237 0.727,-0.485 1.091,-0.728 0.626,-0.418 1.253,-0.838 1.885,-1.272 0.467,-0.321 0.936,-0.65 1.406,-0.979 0.522,-0.366 1.043,-0.736 1.568,-1.113 0.542,-0.389 1.083,-0.783 1.627,-1.184 0.428,-0.316 0.857,-0.639 1.286,-0.963 0.627,-0.471 1.253,-0.944 1.881,-1.431 0.237,-0.184 0.475,-0.376 0.712,-0.563 3.539,-2.778 7.084,-5.811 10.566,-9.108 0.053,-0.051 0.106,-0.1 0.16,-0.151 0.905,-0.859 1.803,-1.737 2.696,-2.632 0,0 0,0 0.01,-0.01 4.109,-4.119 8.08,-8.624 11.78,-13.535 -1.388,-3.265 -2.199,-7.196 -2.199,-11.428 0,-11.317 5.794,-20.491 12.941,-20.491 7.147,0 12.941,9.175 12.941,20.491 0,5.412 -1.335,10.319 -3.5,13.982 0.02,1.085 0.035,2.179 0.035,3.3 0,14.419 -1.66,31.387 -7.349,46.547 -0.678,1.817 -1.529,3.67 -2.508,5.538 -5.073,9.68 -13.992,19.797 -24.972,27.83 -6.544,4.802 -13.803,8.864 -21.375,11.726 -7.582,2.865 -15.478,4.527 -23.287,4.521 -8.363,0 -16.63,-1.882 -24.457,-6.22 -0.944,-0.524 -1.882,-1.088 -2.813,-1.686 -0.494,-0.318 -0.982,-0.671 -1.472,-1.01 -0.42,-0.29 -0.843,-0.567 -1.26,-0.872 -0.668,-0.491 -1.328,-1.019 -1.988,-1.552 -0.224,-0.18 -0.451,-0.349 -0.674,-0.534 -0.762,-0.635 -1.517,-1.307 -2.266,-2 -0.11,-0.101 -0.221,-0.196 -0.33,-0.298 -0.815,-0.764 -1.621,-1.565 -2.419,-2.4 -0.039,-0.04 -0.078,-0.079 -0.117,-0.119 -2.529,-2.659 -4.975,-5.676 -7.318,-9.081 0,0 0,-10e-4 0,-10e-4 0.221,-0.168 0.433,-0.32 0.645,-0.471 0.108,-0.077 0.216,-0.156 0.321,-0.229 0.191,-0.133 0.375,-0.258 0.556,-0.378 0.134,-0.088 0.265,-0.173 0.392,-0.254 0.139,-0.089 0.279,-0.178 0.41,-0.258 0.244,-0.149 0.479,-0.288 0.691,-0.408 0.01,-0.01 0.022,-0.013 0.033,-0.019 0.182,-0.102 0.333,-0.181 0.487,-0.263 0.285,-0.15 0.538,-0.279 0.716,-0.363 l 0.147,-0.067 0.154,-0.07 0.066,-0.029 v 0 -10e-4 c 1.162,-0.465 1.728,-1.784 1.263,-2.946 -0.465,-1.162 -1.784,-1.728 -2.946,-1.263 v 0 c -0.156,0.064 -3.193,1.292 -6.843,4.33 -0.911,0.758 -1.861,1.632 -2.811,2.63 -2.325,2.441 -4.645,5.636 -6.41,9.687 -0.4,0.917 -0.777,1.868 -1.112,2.875 -0.396,1.188 0.246,2.471 1.434,2.867 1.188,0.396 2.471,-0.246 2.867,-1.434 v -10e-4 0 h 10e-4 c 0.238,-0.713 0.501,-1.391 0.776,-2.05 0.084,-0.2 0.171,-0.394 0.258,-0.59 0.208,-0.47 0.423,-0.926 0.647,-1.369 0.093,-0.184 0.184,-0.37 0.28,-0.549 0.294,-0.552 0.597,-1.088 0.912,-1.597 0.02,-0.032 0.038,-0.068 0.058,-0.1 0.334,-0.536 0.68,-1.042 1.031,-1.531 0.114,-0.159 0.23,-0.311 0.345,-0.465 0.25,-0.334 0.502,-0.657 0.757,-0.969 0.123,-0.151 0.246,-0.303 0.37,-0.449 0.299,-0.352 0.601,-0.688 0.903,-1.01 0.064,-0.069 0.128,-0.144 0.193,-0.212 0.002,0 0.004,0.01 0.006,0.01 0.794,1.138 1.601,2.236 2.42,3.295 0.024,0.031 0.047,0.061 0.071,0.092 0.8,1.031 1.611,2.028 2.434,2.985 0.056,0.066 0.114,0.13 0.17,0.196 0.804,0.929 1.617,1.83 2.442,2.691 0.067,0.07 0.135,0.136 0.202,0.206 0.835,0.865 1.679,1.702 2.534,2.498 -0.203,0.349 -0.312,0.741 -0.311,1.143 0,0.018 0,0.036 0,0.054 0,0.163 0.028,0.324 0.068,0.485 0.011,0.046 0.022,0.091 0.036,0.137 0.056,0.176 0.127,0.349 0.228,0.513 0,0 0,0.01 0,0.01 0,0 0.202,0.32 0.564,0.907 1.223,1.972 4.264,6.92 7.415,12.352 0.127,0.219 0.253,0.434 0.381,0.655 0.091,0.158 0.182,0.319 0.274,0.478 1.292,2.246 2.575,4.535 3.746,6.713 0.234,0.436 0.473,0.876 0.696,1.301 0.576,1.093 1.1,2.129 1.583,3.114 0.707,1.442 1.309,2.754 1.722,3.807 1.029,2.632 2.728,4.769 4.886,6.203 1.784,1.19 3.867,1.861 6.071,2.065 0.458,0.042 0.915,0.093 1.383,0.092 0.775,0 1.563,-0.078 2.356,-0.192 4.511,-0.648 9.271,-3.093 13.689,-7.367 0.605,-0.587 1.21,-1.187 1.814,-1.794 0.198,-0.199 0.394,-0.403 0.592,-0.604 0.406,-0.414 0.812,-0.827 1.215,-1.247 0.224,-0.233 0.446,-0.468 0.669,-0.703 0.377,-0.396 0.752,-0.792 1.125,-1.191 0.218,-0.233 0.433,-0.466 0.65,-0.7 0.378,-0.409 0.753,-0.816 1.124,-1.224 0.2,-0.219 0.398,-0.437 0.595,-0.656 0.386,-0.427 0.766,-0.85 1.142,-1.273 0.172,-0.193 0.343,-0.385 0.513,-0.577 0.419,-0.474 0.829,-0.94 1.234,-1.404 0.113,-0.13 0.228,-0.261 0.341,-0.39 0.497,-0.572 0.981,-1.134 1.451,-1.684 0.016,-0.019 0.034,-0.039 0.051,-0.059 2.056,-2.407 3.823,-4.556 5.164,-6.218 0.013,-0.016 0.025,-0.031 0.038,-0.048 0.316,-0.391 0.605,-0.751 0.87,-1.082 0.024,-0.031 0.046,-0.058 0.07,-0.088 0.246,-0.308 0.467,-0.586 0.662,-0.834 0.029,-0.037 0.057,-0.071 0.084,-0.107 0.168,-0.213 0.312,-0.396 0.437,-0.555 0.046,-0.059 0.088,-0.112 0.129,-0.164 0.012,-0.015 0.031,-0.039 0.042,-0.054 1.839,-0.74 3.655,-1.544 5.445,-2.408 0.021,-0.01 0.041,-0.02 0.062,-0.031 0.863,-0.417 1.719,-0.846 2.568,-1.29 0.073,-0.038 0.144,-0.077 0.217,-0.115 0.8,-0.421 1.594,-0.85 2.382,-1.293 0.141,-0.079 0.28,-0.161 0.42,-0.241 0.721,-0.411 1.44,-0.825 2.15,-1.254 0.23,-0.139 0.456,-0.283 0.684,-0.423 0.622,-0.382 1.244,-0.765 1.856,-1.16 0.366,-0.235 0.724,-0.48 1.086,-0.72 0.477,-0.316 0.957,-0.628 1.428,-0.952 0.769,-0.528 1.527,-1.067 2.278,-1.615 0.067,-0.048 0.136,-0.094 0.202,-0.143 13.691,-10.055 24.379,-23.047 29.044,-35.433 0.406,-1.083 0.788,-2.174 1.154,-3.27 0.082,-0.247 0.158,-0.495 0.238,-0.742 0.288,-0.885 0.568,-1.771 0.832,-2.662 0.06,-0.201 0.115,-0.402 0.173,-0.603 0.283,-0.973 0.553,-1.949 0.808,-2.928 0.029,-0.109 0.056,-0.219 0.084,-0.328 0.279,-1.08 0.542,-2.163 0.789,-3.247 0,-0.02 0.01,-0.041 0.015,-0.062 0.01,0.015 0.019,0.026 0.029,0.041 0.129,0.185 0.266,0.392 0.399,0.589 0.191,0.283 0.385,0.573 0.585,0.881 0.126,0.194 0.254,0.398 0.383,0.602 0.236,0.375 0.477,0.77 0.719,1.178 0.105,0.177 0.21,0.349 0.316,0.531 0.356,0.613 0.715,1.252 1.074,1.932 1.851,3.502 3.663,7.871 4.842,12.9 0.805,3.436 1.322,7.17 1.322,11.18 0,5.142 -0.821,10.719 -2.901,16.657 l -0.066,0.229 -0.029,0.119 c -0.311,1.286 -3.224,12.882 -8.895,24.863 -0.277,0.587 -0.566,1.174 -0.856,1.761 -2.675,5.407 -5.902,10.787 -9.651,15.219 -4.159,4.925 -8.917,8.634 -14.17,10.157 -1.052,0.306 -1.712,1.308 -1.626,2.358 0.012,0.151 0.04,0.302 0.083,0.452 0.351,1.202 1.608,1.892 2.811,1.542 4.92,-1.439 9.228,-4.323 13.004,-7.983 0.053,-0.051 0.109,-0.098 0.162,-0.149 0.023,-0.023 0.045,-0.047 0.067,-0.07 1.246,-1.225 2.435,-2.532 3.566,-3.903 0.955,-1.16 1.863,-2.372 2.743,-3.61 0.239,-0.337 0.461,-0.685 0.695,-1.026 0.647,-0.946 1.28,-1.901 1.886,-2.877 0.206,-0.333 0.403,-0.667 0.605,-1.002 0.639,-1.062 1.255,-2.129 1.847,-3.21 0.12,-0.219 0.239,-0.436 0.356,-0.655 0.697,-1.294 1.363,-2.59 1.994,-3.887 0,-0.01 0.01,-0.016 0.012,-0.023 0.169,0.151 0.357,0.272 0.559,0.365 0.01,0 0.02,0.01 0.03,0.013 0.2,0.089 0.41,0.153 0.628,0.182 0,0 0,0 0,0 0.206,0.027 0.414,0.02 0.623,-0.011 0.041,-0.01 0.081,-0.014 0.122,-0.023 0.205,-0.042 0.409,-0.104 0.603,-0.206 v 0 c 0,0 10e-4,0 10e-4,0 v 0 c 0.049,-0.027 13.402,-7.085 27.872,-16.799 v 0 -10e-4 c 3.619,-2.43 7.309,-5.026 10.88,-7.725 3.572,-2.698 7.026,-5.5 10.177,-8.341 3.151,-2.843 5.998,-5.726 8.359,-8.612 0.641,-0.784 1.238,-1.569 1.804,-2.354 1.517,-2.104 2.757,-4.21 3.616,-6.329 0.113,-0.28 0.171,-0.596 0.165,-0.897 0,0 0,-0.182 -0.01,-0.545 0,-0.16 0,-0.366 -0.01,-0.591 0,-0.261 0,-0.562 0,-0.904 0,-0.031 0,-0.053 0,-0.086 0,-0.387 10e-4,-0.835 0.01,-1.314 10e-4,-0.094 0,-0.197 0,-0.294 0,-0.452 0.01,-0.936 0.017,-1.457 10e-4,-0.059 0,-0.116 0,-0.176 0.01,-0.469 0.018,-0.97 0.029,-1.487 0,-0.01 0,-0.012 0,-0.017 0.148,-6.541 0.662,-16.759 2.305,-26.173 1.056,-6.092 2.608,-11.838 4.702,-15.882 1.04,-2.023 2.208,-3.602 3.41,-4.623 1.214,-1.023 2.388,-1.52 3.779,-1.585 0.156,-0.01 0.307,-0.01 0.457,-0.01 1.784,0 3.373,0.414 4.882,1.169 2.631,1.314 5.011,3.766 7.03,6.88 2.901,4.452 5.004,10.168 6.372,15.172 -0.256,0.46 -0.512,0.919 -0.773,1.383 -3.922,-3.283 -9.65,-6.418 -17.396,-7.076 -1.248,-0.107 -2.345,0.818 -2.452,2.065 -0.062,0.722 0.229,1.387 0.721,1.846 0.174,0.162 0.371,0.297 0.59,0.398 0.017,0.01 0.035,0.014 0.052,0.021 0.219,0.095 0.451,0.165 0.702,0.187 0.925,0.08 1.812,0.203 2.667,0.357 0.294,0.053 0.564,0.128 0.849,0.189 0.54,0.115 1.082,0.228 1.593,0.369 0.359,0.099 0.693,0.219 1.038,0.33 0.401,0.129 0.808,0.253 1.191,0.397 0.385,0.145 0.748,0.306 1.114,0.464 0.305,0.131 0.615,0.258 0.907,0.397 0.402,0.192 0.783,0.395 1.161,0.601 0.22,0.119 0.445,0.236 0.657,0.359 0.415,0.241 0.812,0.49 1.198,0.744 0.142,0.093 0.287,0.185 0.426,0.28 0.427,0.293 0.837,0.591 1.228,0.893 0.07,0.054 0.141,0.108 0.209,0.162 0.436,0.344 0.853,0.691 1.245,1.039 0,0 0,0.01 0.01,0.01 -0.763,1.324 -1.537,2.646 -2.316,3.955 -0.042,0.071 -0.084,0.143 -0.126,0.213 -0.353,0.593 -0.707,1.18 -1.062,1.765 -0.064,0.106 -0.129,0.214 -0.193,0.32 -2.092,3.443 -4.189,6.718 -6.169,9.547 -1.584,2.263 -3.095,4.241 -4.443,5.769 -1.337,1.529 -2.55,2.603 -3.307,3.035 -0.631,0.37 -0.99,1.012 -1.071,1.698 -0.045,0.379 -0.03,0.767 0.127,1.14 0.11,0.26 0.265,0.491 0.452,0.685 0,10e-4 0,10e-4 0,10e-4 0.057,0.059 0.133,0.089 0.194,0.141 0.45,0.377 1.023,0.559 1.623,0.512 0.141,-0.011 0.281,0 0.421,-0.036 1.393,-0.385 2.961,-1.036 4.73,-1.906 0.641,-0.316 1.317,-0.675 2.008,-1.052 0.308,-0.167 0.621,-0.342 0.938,-0.519 0.289,-0.164 0.584,-0.335 0.88,-0.508 0.937,-0.542 1.899,-1.123 2.89,-1.747 -0.444,0.513 -0.907,1.018 -1.375,1.515 -0.073,0.078 -0.145,0.155 -0.219,0.232 -0.931,0.977 -1.888,1.911 -2.816,2.774 -0.102,0.094 -0.203,0.188 -0.303,0.281 -0.449,0.412 -0.893,0.813 -1.318,1.186 -0.956,0.839 -1.832,1.567 -2.555,2.153 -0.251,0.203 -0.485,0.39 -0.696,0.557 -0.189,0.15 -0.357,0.28 -0.509,0.398 -0.176,0.137 -0.33,0.255 -0.451,0.346 l -0.078,0.059 -0.176,0.132 -0.044,0.033 -0.035,0.026 c -0.6,0.44 -0.933,1.135 -0.925,1.85 0,0.238 0.043,0.479 0.123,0.714 0.323,0.939 1.218,1.558 2.21,1.529 2.2,-0.069 4.708,-0.494 7.411,-1.182 0.967,-0.246 1.955,-0.521 2.968,-0.832 0.101,-0.031 0.205,-0.068 0.307,-0.101 1.377,-0.431 2.785,-0.916 4.209,-1.454 -0.456,0.629 -0.937,1.268 -1.455,1.917 -10e-4,10e-4 0,0 0,0 -0.398,0.499 -0.82,0.999 -1.24,1.498 -0.184,0.218 -0.36,0.435 -0.546,0.652 -1.696,1.976 -3.475,3.882 -4.958,5.412 -1.009,1.042 -1.882,1.912 -2.5,2.52 -0.309,0.304 -0.554,0.542 -0.722,0.703 -0.145,0.14 -0.216,0.208 -0.235,0.226 0,0 -0.017,0.016 -0.017,0.016 v 0 c 0,0 -0.01,0.01 -0.011,0.014 -0.149,0.145 -0.272,0.312 -0.378,0.493 -0.021,0.037 -0.041,0.073 -0.061,0.112 -0.094,0.184 -0.169,0.378 -0.21,0.586 0,0 0,0 0,10e-4 v 0 c -10e-4,0.01 0,0.014 0,0.02 -0.025,0.135 -0.042,0.272 -0.042,0.414 v 18.073 c -0.034,0.05 -0.063,0.094 -0.102,0.151 -2.416,3.545 -13.576,19.677 -27.145,35.663 -4.239,4.995 -8.714,9.975 -13.22,14.546 -2.704,2.742 -5.419,5.338 -8.1,7.701 -1.725,1.521 -3.434,2.939 -5.117,4.244 -1.803,1.399 -3.575,2.667 -5.294,3.763 -0.769,0.491 -1.524,0.94 -2.27,1.362 -0.588,0.331 -1.163,0.627 -1.734,0.911 -0.129,0.065 -0.261,0.139 -0.389,0.201 -0.683,0.331 -1.353,0.63 -2.008,0.892 0,10e-4 -0.01,0 -0.01,0 -0.665,0.266 -1.314,0.497 -1.946,0.692 0,10e-4 -0.01,0 -0.012,0 0,-0.01 -0.01,-0.019 -0.01,-0.029 -0.371,-1.183 -0.744,-2.335 -1.119,-3.464 -0.02,-0.059 -0.039,-0.122 -0.059,-0.181 -0.266,-0.799 -0.533,-1.566 -0.8,-2.337 -0.131,-0.379 -0.262,-0.776 -0.393,-1.148 -3.151,-8.943 -6.305,-15.976 -8.667,-20.897 -1.181,-2.459 -2.166,-4.393 -2.84,-5.749 -0.278,-0.556 -0.485,-0.987 -0.642,-1.326 -0.034,-0.073 -0.082,-0.171 -0.109,-0.233 -10e-4,0 0,-0.01 0,-0.01 l -0.071,-0.168 c 0,-0.01 0,-0.011 0,-0.017 -0.017,-0.166 -0.051,-0.329 -0.105,-0.491 -0.01,-0.027 -0.015,-0.054 -0.025,-0.08 -0.063,-0.168 -0.141,-0.332 -0.246,-0.486 0,0 0,-0.01 -0.01,-0.01 0,0 0,-0.01 0,-0.01 -0.048,-0.069 -0.107,-0.125 -0.161,-0.187 -0.044,-0.051 -0.084,-0.108 -0.132,-0.153 -0.056,-0.054 -0.119,-0.095 -0.179,-0.142 -0.057,-0.045 -0.111,-0.095 -0.172,-0.133 -0.062,-0.039 -0.128,-0.066 -0.192,-0.098 -0.067,-0.034 -0.13,-0.072 -0.199,-0.099 -0.066,-0.026 -0.135,-0.039 -0.203,-0.058 -0.072,-0.021 -0.142,-0.047 -0.215,-0.06 -0.068,-0.012 -0.137,-0.012 -0.206,-0.018 -0.076,-0.01 -0.151,-0.019 -0.228,-0.018 -0.063,10e-4 -0.126,0.014 -0.19,0.02 -0.083,0.01 -0.165,0.011 -0.247,0.028 -0.055,0.011 -0.108,0.035 -0.162,0.05 -0.088,0.026 -0.177,0.047 -0.263,0.084 -0.047,0.02 -0.089,0.051 -0.135,0.074 -0.086,0.044 -0.174,0.084 -0.256,0.141 v 0 c 0,0 0,0.01 -0.01,0.01 0,0 0,0 -0.01,0.01 -0.105,0.073 -0.168,0.169 -0.254,0.253 -0.105,0.103 -0.229,0.196 -0.308,0.307 -0.01,0.01 -0.01,0.019 -0.015,0.029 -0.13,0.19 -0.229,0.383 -0.283,0.544 -0.121,0.355 -0.133,0.608 -0.135,0.801 0,0.314 0.045,0.494 0.081,0.652 0.074,0.299 0.153,0.499 0.243,0.725 v 0 c 0,0 0,0 0,0 0.241,0.585 0.605,1.327 1.084,2.285 0.2,0.4 0.414,0.827 0.657,1.313 2.858,5.711 8.561,17.274 13.571,33.927 1.137,3.782 2.234,7.839 3.256,12.133 1.42,5.964 2.685,12.411 3.689,19.316 1.454,10.008 2.36,20.964 2.36,32.812 0,7.628 -0.382,15.627 -1.224,23.966 28.009,-17.582 52.324,-40.506 71.496,-67.36 h 17.463 c 0.473,0 0.936,-0.192 1.27,-0.526 0.334,-0.335 0.526,-0.797 0.526,-1.27 v -29.851 c 17.61,-34.413 27.545,-73.405 27.545,-114.718 0,-31.589 -5.825,-61.813 -16.432,-89.68 h 37.174 c 0.715,0 1.366,-0.428 1.65,-1.085 l 8.573,-19.887 c 0.258,-0.559 0.202,-1.193 -0.131,-1.7 z"
             id="path176" />
          <path
             style="fill:#ffffff"
             inkscape:connector-curvature="0"
             d="m 997.04,1251.715 c -1.279,0 -2.29,0.577 -2.972,1.566 -1.137,1.648 -1.361,4.439 -0.39,7.605 1.554,5.064 5.578,9.17 8.989,9.17 0.213,0 0.419,-0.016 0.617,-0.047 2.97,-0.47 4.202,-4.375 2.744,-9.123 -0.194,-0.633 -0.427,-1.251 -0.692,-1.849 -1.858,-4.178 -5.312,-7.322 -8.296,-7.322 z"
             id="path178" />
          <path
             style="fill:#ffffff"
             inkscape:connector-curvature="0"
             d="m 1060.408,1260.839 c 0.217,0.031 0.433,0.047 0.646,0.047 3.41,0 4.914,-4.106 3.36,-9.172 -1.554,-5.064 -5.578,-9.17 -8.988,-9.17 -3.198,0 -4.72,3.609 -3.617,8.233 0.073,0.308 0.159,0.621 0.256,0.937 1.456,4.75 5.085,8.656 8.343,9.125 z"
             id="path180" />
          <path
             style="fill:#ffffff"
             inkscape:connector-curvature="0"
             d="m 1081.883,1271.406 h -10e-4 c -0.056,0.01 -3.847,0.514 -8.965,1.75 -2.32,0.56 -4.913,1.271 -7.555,2.153 -0.902,0.303 -1.81,0.636 -2.716,0.98 -2.652,1.007 -5.255,2.214 -7.652,3.642 -0.629,0.375 -1.269,0.74 -1.862,1.148 -0.406,0.28 -0.799,0.572 -1.186,0.869 -0.044,0.034 -0.092,0.066 -0.136,0.1 -1.284,1.002 -2.447,2.105 -3.43,3.336 -1.308,1.637 -2.296,3.522 -2.73,5.626 -0.243,1.177 0.478,2.32 1.62,2.635 0.048,0.013 0.091,0.034 0.141,0.044 0.097,0.02 0.192,0.022 0.288,0.03 0.056,0 0.113,0.017 0.169,0.018 0.049,0 0.095,-0.011 0.144,-0.014 0.101,-0.01 0.202,-0.01 0.3,-0.029 0.867,-0.173 1.589,-0.846 1.78,-1.765 0.268,-1.296 0.88,-2.52 1.833,-3.718 0.552,-0.697 1.232,-1.373 2,-2.028 1.538,-1.312 3.456,-2.529 5.591,-3.599 2.398,-1.209 5.044,-2.238 7.659,-3.098 2.615,-0.86 5.2,-1.551 7.477,-2.082 1.835,-0.429 3.454,-0.754 4.75,-0.993 0.312,-0.058 0.623,-0.114 0.894,-0.161 0.268,-0.047 0.494,-0.084 0.717,-0.121 0.358,-0.059 0.677,-0.111 0.909,-0.146 0.188,-0.029 0.331,-0.05 0.426,-0.063 l 0.135,-0.019 c 0.621,-0.083 1.149,-0.41 1.501,-0.871 0.352,-0.461 0.529,-1.056 0.446,-1.677 -0.166,-1.242 -1.308,-2.113 -2.547,-1.947 z"
             id="path182" />
          <path
             style="fill:#ffffff"
             inkscape:connector-curvature="0"
             d="m 1076.617,1295.712 c -1.482,2.373 -2.683,5.064 -3.298,8.007 -0.052,0.249 -0.128,0.487 -0.172,0.74 -0.051,0.304 -0.039,0.603 0.026,0.886 10e-4,0 10e-4,0.01 0,0.012 0.018,0.074 0.049,0.143 0.073,0.215 0.155,0.448 0.443,0.837 0.831,1.112 0.268,0.19 0.577,0.33 0.922,0.389 0.309,0.052 0.613,0.039 0.9,-0.028 0.476,-0.112 0.895,-0.382 1.208,-0.752 0.252,-0.299 0.437,-0.661 0.508,-1.074 0.424,-2.506 1.469,-4.906 2.844,-7.104 0.356,-0.571 0.756,-1.105 1.149,-1.644 0.842,-1.154 1.733,-2.235 2.653,-3.219 1.134,-1.212 2.28,-2.299 3.316,-3.188 1.136,-0.976 2.137,-1.739 2.849,-2.252 0.355,-0.257 0.637,-0.451 0.825,-0.578 l 0.212,-0.141 0.021,-0.014 0.027,-0.017 v -10e-4 h 0.01 c 1.057,-0.669 1.373,-2.07 0.704,-3.127 0,0 0,0 0,0 0,0 0,0 0,-10e-4 -0.065,-0.103 -0.142,-0.193 -0.22,-0.281 -0.022,-0.025 -0.039,-0.056 -0.063,-0.08 -0.731,-0.76 -1.918,-0.929 -2.844,-0.343 v 0 c -0.09,0.06 -3.452,2.185 -7.123,5.853 -1.834,1.836 -3.748,4.059 -5.359,6.633 z"
             id="path184" />
          <path
             style="fill:#ffffff"
             inkscape:connector-curvature="0"
             d="m 1119.849,1200.524 c -2.23,-0.284 -4.61,0.511 -6.443,1.93 -1.87,1.403 -3.25,3.33 -4.311,5.353 -2.077,4.1 -2.746,8.783 -2.187,13.208 0.663,-4.407 1.584,-8.687 3.557,-12.507 0.964,-1.903 2.169,-3.691 3.711,-5.136 1.549,-1.42 3.447,-2.517 5.673,-2.848 z"
             id="path186" />
          <path
             style="fill:#ffffff"
             inkscape:connector-curvature="0"
             d="m 1086.669,1279.593 c -0.057,-0.052 -0.111,-0.109 -0.173,-0.155 0,0 0,0 -0.01,0 -0.116,-0.084 -0.239,-0.158 -0.368,-0.219 -0.525,-0.248 -1.143,-0.296 -1.733,-0.085 v 0 c -0.056,0.021 -2.652,0.949 -6.242,2.682 -1.624,0.783 -3.45,1.731 -5.337,2.835 -3.031,1.776 -6.222,3.953 -8.992,6.544 -2.761,2.593 -5.133,5.613 -6.367,9.155 -0.313,0.904 -0.016,1.87 0.669,2.458 0.21,0.181 0.455,0.329 0.733,0.426 1.183,0.409 2.474,-0.218 2.884,-1.401 0.877,-2.555 2.756,-5.062 5.181,-7.329 3.628,-3.406 8.416,-6.229 12.273,-8.151 0.081,-0.041 0.156,-0.075 0.236,-0.115 1.829,-0.904 3.44,-1.613 4.595,-2.091 0.603,-0.25 1.083,-0.438 1.409,-0.563 0.164,-0.063 0.289,-0.11 0.37,-0.14 l 0.09,-0.033 0.017,-0.01 h 0.01 c 0.142,-0.051 0.275,-0.116 0.401,-0.191 0,0 0.01,0 0.014,-0.01 0.074,-0.045 0.137,-0.101 0.204,-0.154 0.05,-0.039 0.106,-0.072 0.152,-0.115 0.012,-0.011 0.021,-0.025 0.033,-0.036 0.412,-0.396 0.665,-0.934 0.697,-1.505 0.017,-0.294 -0.024,-0.596 -0.129,-0.891 -0.129,-0.363 -0.349,-0.665 -0.617,-0.908 z"
             id="path188" />
          <path
             style="fill:#ffffff"
             inkscape:connector-curvature="0"
             d="m 931.951,1309.199 c -2.143,0.938 -4.152,2.233 -5.812,4.001 -1.661,1.764 -2.947,4.003 -3.653,6.676 -0.322,1.21 0.399,2.451 1.609,2.773 1.21,0.322 2.451,-0.399 2.773,-1.609 0.53,-1.983 1.416,-3.495 2.577,-4.738 1.737,-1.855 4.183,-3.115 7.018,-3.895 2.827,-0.781 6,-1.066 8.993,-1.065 1.963,0 3.847,0.12 5.513,0.288 0.51,-1.51 1.14,-2.959 1.887,-4.349 -2.103,-0.257 -4.651,-0.471 -7.4,-0.473 -4.365,0.01 -9.21,0.521 -13.505,2.391 z"
             id="path190" />
        </g>
        <g
           id="g218">
          <g
             id="g216">
            <path
               inkscape:connector-curvature="0"
               d="m 1145.44,1468.85 c -0.176,-10.493 -1.327,-21.04 -3.926,-31.156 -7.153,-27.881 -21.666,-43.883 -34.409,-52.767 -0.577,-0.402 -1.144,-0.775 -1.713,-1.149 -11.992,-7.899 -21.958,-9.62 -22.167,-9.657 -0.154,-0.026 -0.308,-0.036 -0.458,-0.031 -0.827,0.028 -1.561,0.515 -1.931,1.242 -0.102,0.2 -0.185,0.412 -0.224,0.645 -0.026,0.155 -0.036,0.308 -0.031,0.459 0.036,1.052 0.806,1.97 1.885,2.155 v 0 c 0,0 0,0 0,0 v 0 0 0 c 0.01,0 0.057,0.01 0.135,0.025 1.085,0.21 8.405,1.787 17.496,7.188 0.107,0.064 0.21,0.119 0.318,0.184 0.223,0.134 0.453,0.285 0.677,0.424 1.209,0.745 2.439,1.543 3.693,2.429 11.909,8.422 25.472,23.347 32.333,49.982 1.991,7.745 3.109,15.817 3.567,23.956 0.167,2.968 0.253,5.945 0.253,8.919 10e-4,10.137 -0.917,20.228 -2.339,29.79 -0.123,0.83 -0.259,1.647 -0.39,2.469 1.682,-0.925 3.354,-1.867 5.013,-2.829 1.365,-9.438 2.248,-19.382 2.249,-29.43 0,-0.948 -0.019,-1.898 -0.035,-2.848 z"
               id="path194" />
            <path
               inkscape:connector-curvature="0"
               d="m 1038.396,1485.61 c 0,-15.261 -0.785,-31.09 -2.34,-45.715 -0.127,-1.187 -0.222,-2.336 -0.302,-3.467 -0.06,-0.844 -0.108,-1.672 -0.144,-2.485 -0.057,-1.293 -0.093,-2.56 -0.093,-3.778 0.02,-17.17 5.432,-26.937 10.684,-32.568 2.635,-2.813 5.258,-4.583 7.2,-5.645 0.97,-0.531 1.769,-0.883 2.31,-1.098 0.269,-0.107 0.475,-0.181 0.605,-0.224 l 0.137,-0.045 h 0.01 0.015 v 0 c 0.046,-0.013 0.085,-0.036 0.13,-0.052 0.1,-0.036 0.201,-0.069 0.292,-0.117 0.056,-0.029 0.104,-0.069 0.157,-0.103 0.072,-0.046 0.148,-0.088 0.214,-0.141 0.063,-0.051 0.116,-0.113 0.173,-0.17 0.046,-0.046 0.097,-0.087 0.139,-0.137 0.061,-0.072 0.109,-0.153 0.16,-0.233 0.027,-0.042 0.061,-0.081 0.086,-0.125 0.053,-0.096 0.092,-0.198 0.131,-0.3 0.013,-0.033 0.032,-0.064 0.043,-0.098 0.038,-0.116 0.061,-0.237 0.08,-0.359 0,-0.023 0.012,-0.045 0.015,-0.068 0.017,-0.141 0.02,-0.286 0.01,-0.431 0,0 10e-4,-0.01 0,-0.014 -0.012,-0.15 -0.038,-0.301 -0.081,-0.451 v 0 0 c -0.043,-0.149 -0.1,-0.291 -0.169,-0.423 0,0 -10e-4,0 -10e-4,0 -0.025,-0.047 -0.058,-0.087 -0.086,-0.131 -0.519,-0.846 -1.547,-1.285 -2.546,-0.999 v 0 0 0 c -0.254,0.075 -6.291,1.839 -12.327,8.274 -3.4,3.614 -6.75,8.712 -9.026,15.708 -0.053,0.161 -0.098,0.336 -0.149,0.499 -0.443,1.411 -0.85,2.885 -1.198,4.45 0,0 0,0.01 0,0.012 -0.97,4.363 -1.54,9.339 -1.534,14.999 0,3.181 0.179,6.579 0.565,10.209 1.537,14.443 2.315,30.13 2.315,45.235 10e-4,12.155 -0.513,23.915 -1.525,34.36 -0.266,2.748 -0.559,5.426 -0.896,7.971 -0.056,0.427 -0.121,0.826 -0.18,1.246 -0.262,1.891 -0.545,3.713 -0.846,5.471 1.555,-0.082 3.104,-0.185 4.651,-0.295 0.792,-4.798 1.443,-10.035 1.95,-15.624 0.918,-10.192 1.375,-21.494 1.375,-33.128 z"
               id="path196" />
            <path
               inkscape:connector-curvature="0"
               d="m 1299.881,1170.492 c -0.333,-0.507 -0.894,-0.809 -1.501,-0.809 h -5.569 c 1.832,-8.126 4.141,-21.328 4.156,-35.942 l 10e-4,-0.063 v -0.05 c 0,0 0,-10e-4 0,-10e-4 0,0 0,-10e-4 0,-10e-4 v -0.018 -0.028 l -10e-4,-0.057 v 0 c -0.01,-10.584 -1.221,-21.889 -4.772,-32.517 -1.782,-5.32 -4.147,-10.463 -7.252,-15.241 -3.105,-4.778 -6.955,-9.184 -11.653,-12.995 h 0.01 l -0.084,-0.069 -0.105,-0.079 -33.145,-23.277 c -0.53,-0.372 -1.213,-0.431 -1.799,-0.155 l -1.653,0.78 c -0.731,0.345 -1.767,0.838 -3.069,1.47 -2.689,1.306 -6.483,3.19 -10.917,5.511 -8.869,4.645 -20.289,11.029 -30.575,18.062 -5.813,3.977 -11.248,8.15 -15.699,12.39 -43.439,-35.464 -98.913,-56.743 -159.363,-56.743 -138.518,0 -250.933,111.686 -252.15,249.917 l -40.857,0.472 c -0.5,0.01 -0.982,0.224 -1.316,0.596 l -7.499,8.354 c -0.439,0.08 -0.835,0.311 -1.109,0.673 -0.212,0.281 -0.324,0.611 -0.349,0.952 l -0.412,0.459 c -0.482,0.537 -0.596,1.302 -0.292,1.956 0.27,0.582 0.827,0.95 1.453,1.012 l 22.393,90.175 c 0.199,0.8 0.919,1.363 1.744,1.363 h 8.001 l 0.283,10.545 c 0.026,0.975 0.82,1.748 1.796,1.748 h 44.377 c 35.306,67.992 100.659,117.87 178.476,132.038 8.025,-23.134 10.298,-48.688 10.613,-68.429 0.027,-1.673 0.039,-3.305 0.041,-4.889 0,-16.899 -1.359,-28.459 -1.366,-28.522 -0.147,-1.244 -1.273,-2.133 -2.516,-1.987 -0.932,0.109 -1.666,0.771 -1.912,1.619 -0.082,0.283 -0.111,0.586 -0.074,0.897 v 0 c 0,0 0.019,0.163 0.055,0.501 0.014,0.13 0.031,0.294 0.049,0.472 0.003,0.026 0.005,0.044 0.007,0.071 0.012,0.118 0.026,0.267 0.04,0.404 0.013,0.127 0.025,0.249 0.038,0.392 0.014,0.149 0.03,0.321 0.045,0.487 0.014,0.155 0.029,0.311 0.044,0.48 0.017,0.191 0.035,0.4 0.054,0.609 0.016,0.184 0.032,0.374 0.049,0.571 0.019,0.228 0.039,0.466 0.058,0.712 0.017,0.205 0.033,0.419 0.05,0.637 0.021,0.265 0.041,0.536 0.062,0.818 0.017,0.233 0.035,0.48 0.052,0.725 0.021,0.3 0.043,0.6 0.064,0.918 0.017,0.248 0.034,0.513 0.05,0.772 0.022,0.339 0.044,0.674 0.066,1.031 0.016,0.257 0.031,0.532 0.046,0.798 0.021,0.359 0.042,0.712 0.062,1.087 -15.289,-0.5 -31.009,-6.221 -44.692,-13.268 -0.093,-0.048 -0.182,-0.097 -0.275,-0.145 -1.041,-0.538 -2.072,-1.083 -3.088,-1.634 -0.284,-0.155 -0.559,-0.313 -0.841,-0.468 -0.818,-0.45 -1.636,-0.901 -2.436,-1.357 -0.593,-0.339 -1.169,-0.681 -1.752,-1.022 -0.479,-0.28 -0.966,-0.558 -1.438,-0.839 -1.052,-0.628 -2.087,-1.259 -3.1,-1.89 -0.948,-0.589 -1.874,-1.178 -2.786,-1.764 -0.306,-0.197 -0.604,-0.393 -0.906,-0.59 -0.588,-0.383 -1.171,-0.764 -1.742,-1.144 -0.368,-0.245 -0.731,-0.488 -1.092,-0.732 -0.473,-0.319 -0.939,-0.635 -1.4,-0.951 -0.4,-0.274 -0.8,-0.548 -1.19,-0.819 -0.369,-0.256 -0.727,-0.508 -1.087,-0.762 -0.446,-0.314 -0.898,-0.63 -1.331,-0.939 -0.011,-0.01 -0.021,-0.015 -0.032,-0.023 -2.043,-1.459 -3.925,-2.856 -5.625,-4.153 0.002,0 0.004,0 0.005,0 0.588,-0.534 1.152,-1.117 1.689,-1.745 0.003,0 0.006,-0.01 0.009,-0.011 0.532,-0.621 1.044,-1.275 1.536,-1.952 0.005,-0.01 0.011,-0.013 0.016,-0.021 0.02,-0.028 0.039,-0.056 0.058,-0.084 0.24,-0.335 0.474,-0.675 0.705,-1.017 0.078,-0.117 0.155,-0.233 0.233,-0.35 0.189,-0.286 0.374,-0.573 0.556,-0.86 0.059,-0.093 0.118,-0.185 0.176,-0.277 0.228,-0.366 0.449,-0.729 0.663,-1.09 0.058,-0.098 0.113,-0.193 0.17,-0.29 0.164,-0.279 0.322,-0.554 0.476,-0.825 0.062,-0.11 0.124,-0.218 0.184,-0.327 0.19,-0.34 0.375,-0.674 0.548,-0.995 0.009,-0.017 0.017,-0.032 0.026,-0.049 0.176,-0.327 0.339,-0.637 0.495,-0.938 0.042,-0.082 0.082,-0.159 0.123,-0.239 0.136,-0.264 0.265,-0.517 0.384,-0.754 0.015,-0.03 0.031,-0.062 0.046,-0.092 0.144,-0.288 0.274,-0.552 0.39,-0.792 l 36.868,-2.195 c 0.656,-0.039 1.264,-0.344 1.688,-0.847 0.232,-0.275 0.389,-0.596 0.478,-0.936 0.074,-0.282 0.104,-0.576 0.071,-0.871 l -1.063,-9.564 -0.256,-2.308 c -0.067,-0.607 -0.357,-1.139 -0.782,-1.52 -0.425,-0.381 -0.987,-0.61 -1.597,-0.61 h -35.401 c 0.228,-0.888 0.399,-1.752 0.518,-2.594 0.03,-0.203 0.062,-0.406 0.086,-0.607 0.035,-0.303 0.068,-0.602 0.09,-0.898 0.047,-0.571 0.078,-1.132 0.078,-1.674 0,0 0.001,-0.012 0.001,-0.017 0,-0.916 -0.058,-1.788 -0.158,-2.616 -10e-4,-0.01 -10e-4,-0.019 -0.003,-0.028 -0.1,-0.819 -0.242,-1.591 -0.412,-2.317 -0.004,-0.015 -0.006,-0.031 -0.01,-0.046 -0.17,-0.721 -0.369,-1.393 -0.582,-2.016 -0.005,-0.014 -0.009,-0.029 -0.014,-0.043 -0.214,-0.621 -0.442,-1.19 -0.671,-1.705 -0.003,-0.01 -0.005,-0.015 -0.008,-0.021 0.159,0.051 0.326,0.104 0.489,0.156 0.639,0.203 1.293,0.412 1.979,0.633 0.114,0.037 0.229,0.074 0.344,0.11 1.81,0.583 3.744,1.214 5.681,1.861 0.023,0.01 0.046,0.015 0.068,0.023 0.99,0.33 1.979,0.664 2.95,0.996 3.137,1.071 9.216,2.777 16.296,4.317 0.507,0.11 1.006,0.222 1.523,0.33 0.832,0.174 1.679,0.343 2.53,0.509 7.055,1.38 14.656,2.459 21.14,2.463 0.032,0 0.061,0 0.093,0 0.991,0 1.953,-0.035 2.888,-0.09 0.051,0 0.104,0 0.154,-0.01 0.975,-0.061 1.912,-0.158 2.817,-0.291 0.017,0 0.034,0 0.05,-0.01 1.846,-0.273 3.534,-0.717 5.036,-1.385 10e-4,0 0.002,-10e-4 0.003,-10e-4 1.415,0.886 2.855,1.727 4.309,2.54 0.181,0.101 0.362,0.204 0.543,0.304 2.88,1.588 5.818,3.038 8.771,4.368 0.315,0.142 0.629,0.283 0.944,0.422 1.435,0.634 2.871,1.249 4.303,1.829 0.29,0.117 0.59,0.17 0.885,0.166 0.71,-0.011 1.382,-0.362 1.803,-0.951 0.102,-0.143 0.194,-0.296 0.263,-0.466 0.059,-0.145 0.101,-0.293 0.129,-0.441 0.192,-1.037 -0.364,-2.1 -1.379,-2.51 -0.893,-0.361 -1.785,-0.75 -2.678,-1.132 -6.43,-2.749 -12.799,-6.04 -18.573,-10.013 -2.145,-1.476 -4.209,-3.039 -6.157,-4.709 -0.12,-0.103 -0.25,-0.196 -0.368,-0.299 -0.233,-0.203 -0.444,-0.425 -0.674,-0.631 -0.894,-0.801 -1.782,-1.606 -2.621,-2.453 -4.222,-4.255 -7.719,-9.085 -10.168,-14.612 -0.559,-1.262 -1.056,-2.566 -1.502,-3.905 -1.012,-3.035 -1.729,-6.266 -2.087,-9.729 -0.003,-0.025 -0.007,-0.05 -0.01,-0.075 -0.031,-0.305 -0.045,-0.622 -0.071,-0.931 -0.115,-1.384 -0.189,-2.796 -0.189,-4.254 0,-1.027 0.049,-2.085 0.109,-3.15 0.02,-0.353 0.052,-0.714 0.077,-1.071 -4.431,2.766 -8.359,4.801 -11.786,6.19 -4.543,1.844 -8.221,2.582 -11.106,2.58 -3.289,-0.011 -5.529,-0.907 -7.215,-2.278 -1.68,-1.377 -2.846,-3.342 -3.554,-5.674 -0.527,-1.732 -1.208,-3.528 -1.744,-5.399 -0.538,-1.869 -0.929,-3.794 -0.928,-5.732 0.006,-2.132 0.447,-4.275 1.746,-6.572 1.303,-2.292 3.51,-4.759 7.167,-7.316 2.48,-1.726 5.186,-2.423 8.129,-2.43 3.007,0 6.233,0.769 9.364,1.983 4.699,1.814 9.162,4.604 12.412,6.936 0.987,0.708 1.846,1.362 2.586,1.943 0.852,-1.248 1.805,-2.444 2.832,-3.598 3.262,-3.664 7.352,-6.852 11.9,-9.574 1.76,-1.056 3.597,-2.018 5.458,-2.937 8.342,-4.121 17.422,-6.937 24.881,-8.734 0.932,-0.225 1.83,-0.431 2.706,-0.626 3.414,-0.76 6.38,-1.302 8.61,-1.666 1.343,-0.219 2.413,-0.373 3.168,-0.476 0.033,0 0.075,-0.01 0.107,-0.015 0.089,-0.012 0.157,-0.021 0.236,-0.031 0.127,-0.016 0.246,-0.032 0.346,-0.045 0.104,-0.013 0.207,-0.026 0.282,-0.035 0.061,-0.01 0.094,-0.011 0.134,-0.016 0.071,-0.01 0.116,-0.014 0.129,-0.015 0,0 0.019,0 0.019,0 0.036,0 0.068,-0.016 0.103,-0.022 1.182,-0.185 2.022,-1.255 1.903,-2.454 -10e-4,-0.01 10e-4,-0.016 0,-0.025 -0.097,-0.888 -0.699,-1.592 -1.486,-1.877 -0.31,-0.112 -0.645,-0.164 -0.994,-0.129 -0.01,10e-4 -0.013,0 -0.02,0 v 0 c -0.106,0.016 -15.947,1.744 -32.554,7.955 -1.903,0.713 -3.815,1.493 -5.717,2.329 -6.4,2.813 -12.669,6.346 -17.95,10.832 -0.649,0.552 -1.274,1.127 -1.885,1.714 -0.512,0.483 -1.006,0.98 -1.494,1.484 0,0 -10e-4,0 -10e-4,10e-4 0,-0.677 0.014,-1.505 0.056,-2.461 0.003,-0.079 0.01,-0.17 0.014,-0.25 0.019,-0.409 0.041,-0.83 0.071,-1.283 0.009,-0.131 0.023,-0.278 0.032,-0.412 0.031,-0.423 0.062,-0.849 0.103,-1.304 0.018,-0.197 0.044,-0.413 0.064,-0.616 0.041,-0.415 0.081,-0.825 0.132,-1.263 0.034,-0.287 0.078,-0.596 0.117,-0.893 0.049,-0.379 0.094,-0.749 0.151,-1.143 0.051,-0.351 0.115,-0.723 0.173,-1.085 0.058,-0.364 0.11,-0.718 0.176,-1.092 0.069,-0.394 0.154,-0.807 0.231,-1.213 0.07,-0.364 0.132,-0.718 0.209,-1.09 0.086,-0.415 0.19,-0.848 0.285,-1.273 0.086,-0.38 0.163,-0.752 0.257,-1.139 0.103,-0.423 0.224,-0.861 0.336,-1.292 0.106,-0.404 0.202,-0.802 0.317,-1.212 0.124,-0.443 0.269,-0.899 0.404,-1.349 0.123,-0.41 0.237,-0.815 0.37,-1.231 0.142,-0.443 0.306,-0.895 0.459,-1.343 0.149,-0.435 0.287,-0.865 0.447,-1.303 0.157,-0.43 0.337,-0.867 0.505,-1.3 0.18,-0.463 0.348,-0.923 0.541,-1.39 0.162,-0.391 0.347,-0.786 0.518,-1.179 0.225,-0.516 0.439,-1.03 0.681,-1.548 0.121,-0.26 0.262,-0.521 0.388,-0.782 0.755,-1.563 1.574,-3.13 2.497,-4.693 2.83,-4.793 6.503,-9.526 11.235,-13.882 2.499,-2.3 5.278,-4.5 8.418,-6.537 1.704,-1.104 3.509,-2.163 5.422,-3.167 0.281,-0.148 0.574,-0.29 0.859,-0.435 0.361,-0.184 0.717,-0.37 1.086,-0.549 0.435,-0.212 0.883,-0.417 1.328,-0.623 0.233,-0.108 0.458,-0.219 0.694,-0.325 3.353,-1.512 7.008,-2.862 10.983,-4.018 0.09,-0.026 0.177,-0.055 0.267,-0.081 1.505,-0.433 3.062,-0.834 4.661,-1.208 0.136,-0.032 0.267,-0.067 0.403,-0.098 1.664,-0.382 3.384,-0.73 5.152,-1.045 0.084,-0.015 0.164,-0.032 0.248,-0.047 0.846,-0.149 1.707,-0.287 2.577,-0.42 0.086,-0.013 0.168,-0.028 0.254,-0.041 0.958,-0.144 1.93,-0.278 2.918,-0.401 h 10e-4 l 0.076,-0.01 c 0.582,-0.05 3.309,-0.263 7.32,-0.263 6.872,-0.01 17.525,0.638 27.542,3.724 5.01,1.542 9.853,3.688 14.002,6.619 1.558,1.101 3.018,2.308 4.359,3.636 0.572,0.567 1.114,1.164 1.641,1.776 0.709,0.823 1.384,1.679 2.005,2.587 0.722,1.056 1.381,2.173 1.972,3.354 0,0 0,10e-4 0,0 0.1,0.199 0.232,0.37 0.377,0.525 0.026,0.027 0.051,0.055 0.078,0.081 0.154,0.149 0.324,0.277 0.51,0.376 -1.332,1.088 -2.666,2.136 -3.997,3.152 -0.195,0.149 -0.389,0.29 -0.583,0.437 -1.073,0.811 -2.144,1.599 -3.211,2.364 -0.345,0.247 -0.688,0.491 -1.032,0.733 -0.948,0.669 -1.891,1.318 -2.829,1.95 -0.334,0.225 -0.67,0.456 -1.002,0.676 -1.225,0.813 -2.442,1.603 -3.639,2.354 -0.571,0.358 -1.128,0.692 -1.691,1.036 -6.225,3.804 -11.943,6.759 -16.581,8.935 -1.005,0.471 -1.977,0.919 -2.873,1.318 -0.195,0.087 -0.366,0.159 -0.556,0.243 -2.439,1.074 -4.442,1.882 -5.836,2.416 -0.091,0.035 -0.156,0.058 -0.242,0.091 -0.415,0.157 -0.76,0.286 -1.052,0.393 -0.147,0.054 -0.311,0.114 -0.426,0.155 -0.194,0.069 -0.341,0.12 -0.437,0.153 l -0.071,0.024 -0.064,0.021 c -1.188,0.397 -1.829,1.68 -1.433,2.868 0.396,1.187 1.68,1.829 2.867,1.433 0.117,-0.04 13.869,-4.628 30.804,-15.246 0.974,-0.611 1.961,-1.247 2.954,-1.898 0.362,-0.237 0.727,-0.485 1.091,-0.728 0.626,-0.418 1.253,-0.838 1.885,-1.272 0.467,-0.321 0.936,-0.65 1.406,-0.979 0.522,-0.366 1.043,-0.736 1.568,-1.113 0.542,-0.389 1.083,-0.783 1.627,-1.184 0.428,-0.316 0.857,-0.639 1.286,-0.963 0.627,-0.471 1.253,-0.944 1.881,-1.431 0.237,-0.184 0.475,-0.376 0.712,-0.563 3.539,-2.778 7.084,-5.811 10.566,-9.108 0.053,-0.051 0.106,-0.1 0.16,-0.151 0.905,-0.859 1.803,-1.737 2.696,-2.632 0,0 0,0 0.01,-0.01 4.109,-4.119 8.08,-8.624 11.78,-13.535 -1.388,-3.265 -2.199,-7.196 -2.199,-11.428 0,-11.317 5.794,-20.491 12.941,-20.491 7.147,0 12.941,9.175 12.941,20.491 0,5.412 -1.335,10.319 -3.5,13.982 0.02,1.085 0.035,2.179 0.035,3.3 0,14.419 -1.66,31.387 -7.349,46.547 -0.678,1.817 -1.529,3.67 -2.508,5.538 -5.073,9.68 -13.992,19.797 -24.972,27.83 -6.544,4.802 -13.803,8.864 -21.375,11.726 -7.582,2.865 -15.478,4.527 -23.287,4.521 -8.363,0 -16.63,-1.882 -24.457,-6.22 -0.944,-0.524 -1.882,-1.088 -2.813,-1.686 -0.494,-0.318 -0.982,-0.671 -1.472,-1.01 -0.42,-0.29 -0.843,-0.567 -1.26,-0.872 -0.668,-0.491 -1.328,-1.019 -1.988,-1.552 -0.224,-0.18 -0.451,-0.349 -0.674,-0.534 -0.762,-0.635 -1.517,-1.307 -2.266,-2 -0.11,-0.101 -0.221,-0.196 -0.33,-0.298 -0.815,-0.764 -1.621,-1.565 -2.419,-2.4 -0.039,-0.04 -0.078,-0.079 -0.117,-0.119 -2.529,-2.659 -4.975,-5.676 -7.318,-9.081 0,0 0,-10e-4 0,-10e-4 0.221,-0.168 0.433,-0.32 0.645,-0.471 0.108,-0.077 0.216,-0.156 0.321,-0.229 0.191,-0.133 0.375,-0.258 0.556,-0.378 0.134,-0.088 0.265,-0.173 0.392,-0.254 0.139,-0.089 0.279,-0.178 0.41,-0.258 0.244,-0.149 0.479,-0.288 0.691,-0.408 0.01,-0.01 0.022,-0.013 0.033,-0.019 0.182,-0.102 0.333,-0.181 0.487,-0.263 0.285,-0.15 0.538,-0.279 0.716,-0.363 l 0.147,-0.067 0.154,-0.07 0.066,-0.029 v 0 -10e-4 c 1.162,-0.465 1.728,-1.784 1.263,-2.946 -0.465,-1.162 -1.784,-1.728 -2.946,-1.263 v 0 c -0.156,0.064 -3.193,1.292 -6.843,4.33 -0.911,0.758 -1.861,1.632 -2.811,2.63 -2.325,2.441 -4.645,5.636 -6.41,9.687 -0.4,0.917 -0.777,1.868 -1.112,2.875 -0.396,1.188 0.246,2.471 1.434,2.867 1.188,0.396 2.471,-0.246 2.867,-1.434 v -10e-4 0 h 10e-4 c 0.238,-0.713 0.501,-1.391 0.776,-2.05 0.084,-0.2 0.171,-0.394 0.258,-0.59 0.208,-0.47 0.423,-0.926 0.647,-1.369 0.093,-0.184 0.184,-0.37 0.28,-0.549 0.294,-0.552 0.597,-1.088 0.912,-1.597 0.02,-0.032 0.038,-0.068 0.058,-0.1 0.334,-0.536 0.68,-1.042 1.031,-1.531 0.114,-0.159 0.23,-0.311 0.345,-0.465 0.25,-0.334 0.502,-0.657 0.757,-0.969 0.123,-0.151 0.246,-0.303 0.37,-0.449 0.299,-0.352 0.601,-0.688 0.903,-1.01 0.064,-0.069 0.128,-0.144 0.193,-0.212 0.002,0 0.004,0.01 0.006,0.01 0.794,1.138 1.601,2.236 2.42,3.295 0.024,0.031 0.047,0.061 0.071,0.092 0.8,1.031 1.611,2.028 2.434,2.985 0.056,0.066 0.114,0.13 0.17,0.196 0.804,0.929 1.617,1.83 2.442,2.691 0.067,0.07 0.135,0.136 0.202,0.206 0.835,0.865 1.679,1.702 2.534,2.498 -0.203,0.349 -0.312,0.741 -0.311,1.143 0,0.018 0,0.036 0,0.054 0,0.163 0.028,0.324 0.068,0.485 0.011,0.046 0.022,0.091 0.036,0.137 0.056,0.176 0.127,0.349 0.228,0.513 0,0 0,0.01 0,0.01 0,0 0.202,0.32 0.564,0.907 1.223,1.972 4.264,6.92 7.415,12.352 0.127,0.219 0.253,0.434 0.381,0.655 0.091,0.158 0.182,0.319 0.274,0.478 1.292,2.246 2.575,4.535 3.746,6.713 0.234,0.436 0.473,0.876 0.696,1.301 0.576,1.093 1.1,2.129 1.583,3.114 0.707,1.442 1.309,2.754 1.722,3.807 1.029,2.632 2.728,4.769 4.886,6.203 1.784,1.19 3.867,1.861 6.071,2.065 0.458,0.042 0.915,0.093 1.383,0.092 0.775,0 1.563,-0.078 2.356,-0.192 4.511,-0.648 9.271,-3.093 13.689,-7.367 0.605,-0.587 1.21,-1.187 1.814,-1.794 0.198,-0.199 0.394,-0.403 0.592,-0.604 0.406,-0.414 0.812,-0.827 1.215,-1.247 0.224,-0.233 0.446,-0.468 0.669,-0.703 0.377,-0.396 0.752,-0.792 1.125,-1.191 0.218,-0.233 0.433,-0.466 0.65,-0.7 0.378,-0.409 0.753,-0.816 1.124,-1.224 0.2,-0.219 0.398,-0.437 0.595,-0.656 0.386,-0.427 0.766,-0.85 1.142,-1.273 0.172,-0.193 0.343,-0.385 0.513,-0.577 0.419,-0.474 0.829,-0.94 1.234,-1.404 0.113,-0.13 0.228,-0.261 0.341,-0.39 0.497,-0.572 0.981,-1.134 1.451,-1.684 0.016,-0.019 0.034,-0.039 0.051,-0.059 2.056,-2.407 3.823,-4.556 5.164,-6.218 0.013,-0.016 0.025,-0.031 0.038,-0.048 0.316,-0.391 0.605,-0.751 0.87,-1.082 0.024,-0.031 0.046,-0.058 0.07,-0.088 0.246,-0.308 0.467,-0.586 0.662,-0.834 0.029,-0.037 0.057,-0.071 0.084,-0.107 0.168,-0.213 0.312,-0.396 0.437,-0.555 0.046,-0.059 0.088,-0.112 0.129,-0.164 0.012,-0.015 0.031,-0.039 0.042,-0.054 1.839,-0.74 3.655,-1.544 5.445,-2.408 0.021,-0.01 0.041,-0.02 0.062,-0.031 0.863,-0.417 1.719,-0.846 2.568,-1.29 0.073,-0.038 0.144,-0.077 0.217,-0.115 0.8,-0.421 1.594,-0.85 2.382,-1.293 0.141,-0.079 0.28,-0.161 0.42,-0.241 0.721,-0.411 1.44,-0.825 2.15,-1.254 0.23,-0.139 0.456,-0.283 0.684,-0.423 0.622,-0.382 1.244,-0.765 1.856,-1.16 0.366,-0.235 0.724,-0.48 1.086,-0.72 0.477,-0.316 0.957,-0.628 1.428,-0.952 0.769,-0.528 1.527,-1.067 2.278,-1.615 0.067,-0.048 0.136,-0.094 0.202,-0.143 13.691,-10.055 24.379,-23.047 29.044,-35.433 0.406,-1.083 0.788,-2.174 1.154,-3.27 0.082,-0.247 0.158,-0.495 0.238,-0.742 0.288,-0.885 0.568,-1.771 0.832,-2.662 0.06,-0.201 0.115,-0.402 0.173,-0.603 0.283,-0.973 0.553,-1.949 0.808,-2.928 0.029,-0.109 0.056,-0.219 0.084,-0.328 0.279,-1.08 0.542,-2.163 0.789,-3.247 0,-0.02 0.01,-0.041 0.015,-0.062 0.01,0.015 0.019,0.026 0.029,0.041 0.129,0.185 0.266,0.392 0.399,0.589 0.191,0.283 0.385,0.573 0.585,0.881 0.126,0.194 0.254,0.398 0.383,0.602 0.236,0.375 0.477,0.77 0.719,1.178 0.105,0.177 0.21,0.349 0.316,0.531 0.356,0.613 0.715,1.252 1.074,1.932 1.851,3.502 3.663,7.871 4.842,12.9 0.805,3.436 1.322,7.17 1.322,11.18 0,5.142 -0.821,10.719 -2.901,16.657 l -0.066,0.229 -0.029,0.119 c -0.311,1.286 -3.224,12.882 -8.895,24.863 -0.277,0.587 -0.566,1.174 -0.856,1.761 -2.675,5.407 -5.902,10.787 -9.651,15.219 -4.159,4.925 -8.917,8.634 -14.17,10.157 -1.052,0.306 -1.712,1.308 -1.626,2.358 0.012,0.151 0.04,0.302 0.083,0.452 0.351,1.202 1.608,1.892 2.811,1.542 4.92,-1.439 9.228,-4.323 13.004,-7.983 0.053,-0.051 0.109,-0.098 0.162,-0.149 0.023,-0.023 0.045,-0.047 0.067,-0.07 1.246,-1.225 2.435,-2.532 3.566,-3.903 0.955,-1.16 1.863,-2.372 2.743,-3.61 0.239,-0.337 0.461,-0.685 0.695,-1.026 0.647,-0.946 1.28,-1.901 1.886,-2.877 0.206,-0.333 0.403,-0.667 0.605,-1.002 0.639,-1.062 1.255,-2.129 1.847,-3.21 0.12,-0.219 0.239,-0.436 0.356,-0.655 0.697,-1.294 1.363,-2.59 1.994,-3.887 0,-0.01 0.01,-0.016 0.012,-0.023 0.169,0.151 0.357,0.272 0.559,0.365 0.01,0 0.02,0.01 0.03,0.013 0.2,0.089 0.41,0.153 0.628,0.182 0,0 0,0 0,0 0.206,0.027 0.414,0.02 0.623,-0.011 0.041,-0.01 0.081,-0.014 0.122,-0.023 0.205,-0.042 0.409,-0.104 0.603,-0.206 v 0 c 0,0 10e-4,0 10e-4,0 v 0 c 0.049,-0.027 13.402,-7.085 27.872,-16.799 v 0 -10e-4 c 3.619,-2.43 7.309,-5.026 10.88,-7.725 3.572,-2.698 7.026,-5.5 10.177,-8.341 3.151,-2.843 5.998,-5.726 8.359,-8.612 0.641,-0.784 1.238,-1.569 1.804,-2.354 1.517,-2.104 2.757,-4.21 3.616,-6.329 0.113,-0.28 0.171,-0.596 0.165,-0.897 0,0 0,-0.182 -0.01,-0.545 0,-0.16 0,-0.366 -0.01,-0.591 0,-0.261 0,-0.562 0,-0.904 0,-0.031 0,-0.053 0,-0.086 0,-0.387 10e-4,-0.835 0.01,-1.314 10e-4,-0.094 0,-0.197 0,-0.294 0,-0.452 0.01,-0.936 0.017,-1.457 10e-4,-0.059 0,-0.116 0,-0.176 0.01,-0.469 0.018,-0.97 0.029,-1.487 0,-0.01 0,-0.012 0,-0.017 0.148,-6.541 0.662,-16.759 2.305,-26.173 1.056,-6.092 2.608,-11.838 4.702,-15.882 1.04,-2.023 2.208,-3.602 3.41,-4.623 1.214,-1.023 2.388,-1.52 3.779,-1.585 0.156,-0.01 0.307,-0.01 0.457,-0.01 1.784,0 3.373,0.414 4.882,1.169 2.631,1.314 5.011,3.766 7.03,6.88 2.901,4.452 5.004,10.168 6.372,15.172 -0.256,0.46 -0.512,0.919 -0.773,1.383 -3.922,-3.283 -9.65,-6.418 -17.396,-7.076 -1.248,-0.107 -2.345,0.818 -2.452,2.065 -0.062,0.722 0.229,1.387 0.721,1.846 0.174,0.162 0.371,0.297 0.59,0.398 0.017,0.01 0.035,0.014 0.052,0.021 0.219,0.095 0.451,0.165 0.702,0.187 0.925,0.08 1.812,0.203 2.667,0.357 0.294,0.053 0.564,0.128 0.849,0.189 0.54,0.115 1.082,0.228 1.593,0.369 0.359,0.099 0.693,0.219 1.038,0.33 0.401,0.129 0.808,0.253 1.191,0.397 0.385,0.145 0.748,0.306 1.114,0.464 0.305,0.131 0.615,0.258 0.907,0.397 0.402,0.192 0.783,0.395 1.161,0.601 0.22,0.119 0.445,0.236 0.657,0.359 0.415,0.241 0.812,0.49 1.198,0.744 0.142,0.093 0.287,0.185 0.426,0.28 0.427,0.293 0.837,0.591 1.228,0.893 0.07,0.054 0.141,0.108 0.209,0.162 0.436,0.344 0.853,0.691 1.245,1.039 0,0 0,0.01 0.01,0.01 -0.763,1.324 -1.537,2.646 -2.316,3.955 -0.042,0.071 -0.084,0.143 -0.126,0.213 -0.353,0.593 -0.707,1.18 -1.062,1.765 -0.064,0.106 -0.129,0.214 -0.193,0.32 -2.092,3.443 -4.189,6.718 -6.169,9.547 -1.584,2.263 -3.095,4.241 -4.443,5.769 -1.337,1.529 -2.55,2.603 -3.307,3.035 -0.631,0.37 -0.99,1.012 -1.071,1.698 -0.045,0.379 -0.03,0.767 0.127,1.14 0.11,0.26 0.265,0.491 0.452,0.685 0,10e-4 0,10e-4 0,10e-4 0.057,0.059 0.133,0.089 0.194,0.141 0.45,0.377 1.023,0.559 1.623,0.512 0.141,-0.011 0.281,0 0.421,-0.036 1.393,-0.385 2.961,-1.036 4.73,-1.906 0.641,-0.316 1.317,-0.675 2.008,-1.052 0.308,-0.167 0.621,-0.342 0.938,-0.519 0.289,-0.164 0.584,-0.335 0.88,-0.508 0.937,-0.542 1.899,-1.123 2.89,-1.747 -0.444,0.513 -0.907,1.018 -1.375,1.515 -0.073,0.078 -0.145,0.155 -0.219,0.232 -0.931,0.977 -1.888,1.911 -2.816,2.774 -0.102,0.094 -0.203,0.188 -0.303,0.281 -0.449,0.412 -0.893,0.813 -1.318,1.186 -0.956,0.839 -1.832,1.567 -2.555,2.153 -0.251,0.203 -0.485,0.39 -0.696,0.557 -0.189,0.15 -0.357,0.28 -0.509,0.398 -0.176,0.137 -0.33,0.255 -0.451,0.346 l -0.078,0.059 -0.176,0.132 -0.044,0.033 -0.035,0.026 c -0.6,0.44 -0.933,1.135 -0.925,1.85 0,0.238 0.043,0.479 0.123,0.714 0.323,0.939 1.218,1.558 2.21,1.529 2.2,-0.069 4.708,-0.494 7.411,-1.182 0.967,-0.246 1.955,-0.521 2.968,-0.832 0.101,-0.031 0.205,-0.068 0.307,-0.101 1.377,-0.431 2.785,-0.916 4.209,-1.454 -0.456,0.629 -0.937,1.268 -1.455,1.917 -10e-4,10e-4 0,0 0,0 -0.398,0.499 -0.82,0.999 -1.24,1.498 -0.184,0.218 -0.36,0.435 -0.546,0.652 -1.696,1.976 -3.475,3.882 -4.958,5.412 -1.009,1.042 -1.882,1.912 -2.5,2.52 -0.309,0.304 -0.554,0.542 -0.722,0.703 -0.145,0.14 -0.216,0.208 -0.235,0.226 0,0 -0.017,0.016 -0.017,0.016 v 0 c 0,0 -0.01,0.01 -0.011,0.014 -0.149,0.145 -0.272,0.312 -0.378,0.493 -0.021,0.037 -0.041,0.073 -0.061,0.112 -0.094,0.184 -0.169,0.378 -0.21,0.586 0,0 0,0 0,10e-4 v 0 c -10e-4,0.01 0,0.014 0,0.02 -0.025,0.135 -0.042,0.272 -0.042,0.414 v 18.073 c -0.034,0.05 -0.063,0.094 -0.102,0.151 -2.416,3.545 -13.576,19.677 -27.145,35.663 -4.239,4.995 -8.714,9.975 -13.22,14.546 -2.704,2.742 -5.419,5.338 -8.1,7.701 -1.725,1.521 -3.434,2.939 -5.117,4.244 -1.803,1.399 -3.575,2.667 -5.294,3.763 -0.769,0.491 -1.524,0.94 -2.27,1.362 -0.588,0.331 -1.163,0.627 -1.734,0.911 -0.129,0.065 -0.261,0.139 -0.389,0.201 -0.683,0.331 -1.353,0.63 -2.008,0.892 0,10e-4 -0.01,0 -0.01,0 -0.665,0.266 -1.314,0.497 -1.946,0.692 0,10e-4 -0.01,0 -0.012,0 0,-0.01 -0.01,-0.019 -0.01,-0.029 -0.371,-1.183 -0.744,-2.335 -1.119,-3.464 -0.02,-0.059 -0.039,-0.122 -0.059,-0.181 -0.266,-0.799 -0.533,-1.566 -0.8,-2.337 -0.131,-0.379 -0.262,-0.776 -0.393,-1.148 -3.151,-8.943 -6.305,-15.976 -8.667,-20.897 -1.181,-2.459 -2.166,-4.393 -2.84,-5.749 -0.278,-0.556 -0.485,-0.987 -0.642,-1.326 -0.034,-0.073 -0.082,-0.171 -0.109,-0.233 -10e-4,0 0,-0.01 0,-0.01 l -0.071,-0.168 c 0,-0.01 0,-0.011 0,-0.017 -0.017,-0.166 -0.051,-0.329 -0.105,-0.491 -0.01,-0.027 -0.015,-0.054 -0.025,-0.08 -0.063,-0.168 -0.141,-0.332 -0.246,-0.486 0,0 0,-0.01 -0.01,-0.01 0,0 0,-0.01 0,-0.01 -0.048,-0.069 -0.107,-0.125 -0.161,-0.187 -0.044,-0.051 -0.084,-0.108 -0.132,-0.153 -0.056,-0.054 -0.119,-0.095 -0.179,-0.142 -0.057,-0.045 -0.111,-0.095 -0.172,-0.133 -0.062,-0.039 -0.128,-0.066 -0.192,-0.098 -0.067,-0.034 -0.13,-0.072 -0.199,-0.099 -0.066,-0.026 -0.135,-0.039 -0.203,-0.058 -0.072,-0.021 -0.142,-0.047 -0.215,-0.06 -0.068,-0.012 -0.137,-0.012 -0.206,-0.018 -0.076,-0.01 -0.151,-0.019 -0.228,-0.018 -0.063,10e-4 -0.126,0.014 -0.19,0.02 -0.083,0.01 -0.165,0.011 -0.247,0.028 -0.055,0.011 -0.108,0.035 -0.162,0.05 -0.088,0.026 -0.177,0.047 -0.263,0.084 -0.047,0.02 -0.089,0.051 -0.135,0.074 -0.086,0.044 -0.174,0.084 -0.256,0.141 v 0 c 0,0 0,0.01 -0.01,0.01 0,0 0,0 -0.01,0.01 -0.105,0.073 -0.168,0.169 -0.254,0.253 -0.105,0.103 -0.229,0.196 -0.308,0.307 -0.01,0.01 -0.01,0.019 -0.015,0.029 -0.13,0.19 -0.229,0.383 -0.283,0.544 -0.121,0.355 -0.133,0.608 -0.135,0.801 0,0.314 0.045,0.494 0.081,0.652 0.074,0.299 0.153,0.499 0.243,0.725 v 0 c 0,0 0,0 0,0 0.241,0.585 0.605,1.327 1.084,2.285 0.2,0.4 0.414,0.827 0.657,1.313 2.858,5.711 8.561,17.274 13.571,33.927 1.137,3.782 2.234,7.839 3.256,12.133 1.42,5.964 2.685,12.411 3.689,19.316 1.454,10.008 2.36,20.964 2.36,32.812 0,7.628 -0.382,15.627 -1.224,23.966 28.009,-17.582 52.324,-40.506 71.496,-67.36 h 17.463 c 0.473,0 0.936,-0.192 1.27,-0.526 0.334,-0.335 0.526,-0.797 0.526,-1.27 v -29.851 c 17.61,-34.413 27.545,-73.405 27.545,-114.718 0,-31.589 -5.825,-61.813 -16.432,-89.68 h 37.174 c 0.715,0 1.366,-0.428 1.65,-1.085 l 8.573,-19.887 c 0.258,-0.559 0.202,-1.193 -0.131,-1.7 z m -248.898,180.944 c -4.556,4.419 -9.232,6.294 -12.891,6.283 -1.933,0 -3.585,-0.497 -4.942,-1.397 -1.354,-0.906 -2.445,-2.23 -3.179,-4.086 -0.926,-2.35 -2.417,-5.339 -4.153,-8.577 -2.817,-5.248 -6.27,-11.099 -8.852,-15.376 1.308,0.874 2.625,1.706 3.963,2.448 8.531,4.735 17.614,6.792 26.656,6.789 6.236,0 12.449,-0.977 18.496,-2.699 -3.865,4.669 -9.529,11.222 -15.098,16.615 z m 162.786,-165.856 -39.568,10.284 -3.311,-11.919 42.948,-0.836 c -0.027,0.811 -0.05,1.637 -0.069,2.471 z m -71.095,115.394 z m -262.361,65.798 c 0.025,0.011 0.047,0.028 0.073,0.038 v 0 l 0.029,0.012 c 0.371,0.15 4.13,1.732 7.768,4.19 1.818,1.224 3.598,2.669 4.899,4.182 0.532,0.615 0.951,1.231 1.301,1.843 h -22.19 c 1.534,-2.281 4.124,-5.895 7.309,-9.408 0.262,-0.289 0.542,-0.57 0.811,-0.857 z m 6.966,-1.625 c -1.358,-0.757 -2.564,-1.352 -3.479,-1.78 1.247,-1.104 2.528,-2.132 3.825,-2.995 2.867,-1.917 5.746,-3.048 8.327,-3.038 1.471,0 2.872,0.336 4.316,1.138 1.427,0.798 2.904,2.091 4.38,4.076 0.271,0.438 0.62,1.061 0.968,1.859 0.716,1.641 1.416,3.974 1.416,6.838 -0.001,1.73 -0.274,3.669 -0.948,5.79 h -6.735 c -0.616,-1.875 -1.716,-3.536 -2.999,-4.991 -2.655,-2.988 -6.183,-5.277 -9.071,-6.897 z m -26.076,13.995 -14.957,-59.951 c -0.32,-1.282 -1.619,-2.063 -2.902,-1.743 -1.283,0.32 -2.063,1.619 -1.743,2.902 l 15.039,60.282 -4.047,1.321 -21.622,-91.58 8.658,-4.612 25.484,92.104 z m 28.927,17.976 c -5.641,2.795 -10.653,3.775 -14.987,3.78 -4.324,0 -8.004,-0.989 -10.937,-2.236 z m -164.812,-111.141 106.025,-1.225 -3.755,2 -105.814,3.173 z m 23.656,95.677 h -8.022 l -21.573,-86.868 106.959,-3.207 21.493,91.035 -98.613,-0.935 c -0.081,-0.01 -0.16,-0.025 -0.244,-0.025 z m 2.66,12.293 -0.2,-7.46 99.407,0.943 c 0.052,0 0.101,-0.011 0.152,-0.014 0.074,0 0.147,-0.01 0.22,-0.02 0.092,-0.014 0.18,-0.034 0.268,-0.057 0.042,-0.011 0.085,-0.014 0.126,-0.027 l 10.425,-3.404 -1.226,10.039 h -4.101 l -0.142,-0.134 -0.044,-0.043 -10e-4,-10e-4 c -0.873,-0.897 -2.308,-0.916 -3.205,-0.043 -0.067,0.065 -0.094,0.151 -0.152,0.222 H 751.634 Z m 151.877,5.811 c -0.971,1.571 -2.062,3.135 -3.132,4.348 -0.606,0.701 -1.209,1.25 -1.737,1.648 -1.944,-1.55 -3.522,-2.864 -4.629,-3.809 -0.53,-0.452 -0.929,-0.8 -1.248,-1.08 1.983,-1.017 4.013,-2.22 6.087,-3.648 0.261,-0.179 0.471,-0.404 0.63,-0.655 l 6.06,-0.361 c -0.577,1.089 -1.266,2.322 -2.031,3.557 z m 40.54,-17.934 0.804,7.24 -79.207,4.717 1.406,-11.513 1.358,-0.443 h 75.639 z m 59.346,-154.614 z m 11.002,-2.551 z m 199.655,-46.088 -37.369,0.728 c -10e-4,0 -10e-4,-0.01 0,-0.012 0,0 -0.031,-0.118 -0.092,-0.358 -0.458,-1.796 -2.551,-10.179 -4.524,-21.051 -1.975,-10.868 -3.823,-24.24 -3.82,-35.915 -0.017,-8.672 1.064,-16.41 3.573,-21.264 1.202,-2.358 3.16,-4.939 5.685,-7.582 4.417,-4.632 10.547,-9.454 17.234,-14.023 10.032,-6.86 21.318,-13.177 30.078,-17.763 4.381,-2.294 8.131,-4.156 10.783,-5.444 1.283,-0.623 2.302,-1.108 3.018,-1.446 l 31.559,22.164 c 8.554,6.941 13.998,16.008 17.333,25.967 3.336,9.967 4.521,20.804 4.519,31.034 0,15.253 -2.624,29.128 -4.446,36.757 l -41.512,7.949 c -1.575,-15.902 -4.603,-26.634 -7.607,-33.757 -3.988,-9.465 -7.964,-12.55 -8.307,-12.795 -0.933,-0.683 -2.228,-0.556 -3.01,0.295 -0.369,0.384 -11.039,12.372 -13.093,46.516 z m 20.091,92.755 c -0.282,-1.922 -0.77,-4.53 -1.505,-7.467 3.011,-5.452 5.637,-10.449 7.442,-13.945 0.62,-0.404 1.031,-1.102 1.031,-1.897 v -0.112 c 0.229,-0.448 0.436,-0.854 0.616,-1.21 0.55,0.272 1.179,0.649 1.786,1.16 0.798,0.668 1.566,1.547 2.151,2.749 0.582,1.204 0.997,2.747 1,4.827 0,0.975 -0.093,2.067 -0.311,3.286 -0.229,1.298 -0.826,2.839 -1.765,4.502 -1.638,2.915 -4.299,6.18 -7.494,9.4 -0.952,0.961 -1.961,1.917 -2.994,2.865 0.198,-0.338 0.337,-0.715 0.337,-1.127 0,-0.726 -0.102,-1.689 -0.294,-3.031 z m -15.9,-80.52 c 0,0 0,-10e-4 0,-10e-4 v 0 0 c 0,-0.156 -10e-4,-0.308 -10e-4,-0.457 0,-21.161 3.175,-35.079 6.284,-43.645 1.555,-4.283 3.094,-7.23 4.22,-9.08 0.112,-0.183 0.216,-0.348 0.319,-0.51 1.366,1.687 3.436,4.788 5.567,10.047 3.611,8.917 7.357,24.017 7.935,48.683 v 32.089 h -3.721 -19.924 z m 2.808,49.714 v -8.057 h 15.527 v 14.35 c -1.377,2.682 -3.384,6.53 -5.739,10.883 -0.818,-2.426 -1.795,-4.911 -2.952,-7.309 -1.785,-3.683 -4.012,-7.148 -6.836,-9.867 z m -2.934,47.183 c 1.682,-2.366 3.419,-5.007 5.171,-7.808 1.57,-2.513 3.146,-5.147 4.685,-7.793 0.414,0.525 0.786,1.025 1.076,1.454 0.388,0.571 0.668,1.038 0.846,1.352 0.089,0.157 0.152,0.276 0.191,0.35 l 0.039,0.078 0.01,0.012 10e-4,-10e-4 c 0.46,0.945 1.518,1.454 2.543,1.22 0.16,-0.036 0.297,-0.116 0.441,-0.184 -3.913,3.493 -8.235,6.809 -12.296,9.557 -0.92,0.621 -1.818,1.203 -2.703,1.763 z m 7.624,9.443 c -2.299,0.915 -4.56,1.688 -6.685,2.299 0.356,-0.332 0.713,-0.663 1.076,-1.014 1.982,-1.921 4.03,-4.118 5.727,-6.446 1.489,-2.058 2.698,-4.213 3.314,-6.489 2.225,-1.701 4.441,-3.499 6.565,-5.374 3.713,-3.284 7.134,-6.757 9.809,-10.223 1.068,-1.392 2.016,-2.778 2.819,-4.162 0.074,0.196 0.149,0.392 0.224,0.603 0.808,2.266 1.585,5.305 1.581,8.37 -10e-4,1.935 -0.299,3.858 -1.047,5.673 0,0.011 -0.012,0.021 -0.017,0.033 -0.247,0.593 -0.539,1.176 -0.888,1.742 -1.189,1.946 -3.498,4.212 -6.463,6.376 -4.444,3.26 -10.326,6.351 -16.015,8.612 z m -1.054,13.525 c 1.848,-2.061 3.745,-4.318 5.302,-6.504 0.779,-1.095 1.473,-2.172 2.038,-3.223 0.357,-0.668 0.638,-1.327 0.875,-1.99 2.158,-1.032 4.279,-2.15 6.293,-3.336 2.781,-1.639 5.361,-3.401 7.566,-5.248 1.477,-1.24 2.77,-2.519 3.859,-3.844 0.045,0.156 0.091,0.304 0.136,0.466 0.768,2.724 1.495,6.251 1.491,9.523 0,1.878 -0.238,3.661 -0.777,5.157 -0.543,1.501 -1.344,2.704 -2.55,3.64 -1.866,1.454 -4.949,2.859 -8.457,4.009 -5.27,1.741 -11.5,2.984 -16.379,3.773 -0.666,0.108 -1.3,0.206 -1.91,0.297 0.8,-0.844 1.649,-1.757 2.513,-2.72 z m 11.892,113.597 h -18.398 v -89.019 c 0,0 0,0 0,0 v -16.737 c 2.492,-0.302 6.995,-0.914 12.029,-1.912 2.07,-0.411 4.225,-0.893 6.37,-1.442 v 109.114 z m 51.158,-236.045 h -40.933 c -0.098,-1.842 -0.209,-3.64 -0.342,-5.369 l 42.981,-8.231 h 4.156 z"
               id="path198" />
            <path
               inkscape:connector-curvature="0"
               d="m 1005.335,1259.038 c -1.858,-4.179 -5.312,-7.323 -8.296,-7.323 -1.279,0 -2.29,0.577 -2.972,1.566 -1.137,1.648 -1.361,4.439 -0.39,7.605 1.554,5.064 5.578,9.17 8.989,9.17 0.213,0 0.419,-0.016 0.617,-0.047 2.97,-0.47 4.202,-4.375 2.744,-9.123 -0.193,-0.632 -0.426,-1.251 -0.692,-1.848 z"
               id="path200" />
            <path
               inkscape:connector-curvature="0"
               d="m 1052.064,1251.715 c 1.457,4.749 5.085,8.655 8.344,9.124 0.217,0.031 0.433,0.047 0.646,0.047 3.41,0 4.914,-4.106 3.36,-9.172 -1.554,-5.064 -5.578,-9.17 -8.988,-9.17 -3.198,0 -4.72,3.609 -3.617,8.233 0.073,0.309 0.158,0.622 0.255,0.938 z"
               id="path202" />
            <path
               inkscape:connector-curvature="0"
               d="m 1047.27,1293.644 c 0.048,0.013 0.091,0.034 0.141,0.044 0.097,0.02 0.192,0.022 0.288,0.03 0.056,0 0.113,0.017 0.169,0.018 0.049,0 0.095,-0.011 0.144,-0.014 0.101,-0.01 0.202,-0.01 0.3,-0.029 0.867,-0.173 1.589,-0.846 1.78,-1.765 0.268,-1.296 0.88,-2.52 1.833,-3.718 0.552,-0.697 1.232,-1.373 2,-2.028 1.538,-1.312 3.456,-2.529 5.591,-3.599 2.398,-1.209 5.044,-2.238 7.659,-3.098 2.615,-0.86 5.2,-1.551 7.477,-2.082 1.835,-0.429 3.454,-0.754 4.75,-0.993 0.312,-0.058 0.623,-0.114 0.894,-0.161 0.268,-0.047 0.494,-0.084 0.717,-0.121 0.358,-0.059 0.677,-0.111 0.909,-0.146 0.188,-0.029 0.331,-0.05 0.426,-0.063 l 0.135,-0.019 c 0.621,-0.083 1.149,-0.41 1.501,-0.871 0.352,-0.461 0.529,-1.056 0.446,-1.677 -0.166,-1.241 -1.307,-2.112 -2.546,-1.946 h -10e-4 c -0.056,0.01 -3.847,0.514 -8.965,1.75 -2.32,0.56 -4.913,1.271 -7.555,2.153 -0.902,0.303 -1.81,0.636 -2.716,0.98 -2.652,1.007 -5.255,2.214 -7.652,3.642 -0.629,0.375 -1.269,0.74 -1.862,1.148 -0.406,0.28 -0.799,0.572 -1.186,0.869 -0.044,0.034 -0.092,0.066 -0.136,0.1 -1.284,1.002 -2.447,2.105 -3.43,3.336 -1.308,1.637 -2.296,3.522 -2.73,5.626 -0.245,1.176 0.477,2.319 1.619,2.634 z"
               id="path204" />
            <path
               inkscape:connector-curvature="0"
               d="m 1076.617,1295.712 c -1.482,2.373 -2.683,5.064 -3.298,8.007 -0.052,0.249 -0.128,0.487 -0.172,0.74 -0.051,0.304 -0.039,0.603 0.026,0.886 10e-4,0 10e-4,0.01 0,0.012 0.018,0.074 0.049,0.143 0.073,0.215 0.155,0.448 0.443,0.837 0.831,1.112 0.268,0.19 0.577,0.33 0.922,0.389 0.309,0.052 0.613,0.039 0.9,-0.028 0.476,-0.112 0.895,-0.382 1.208,-0.752 0.252,-0.299 0.437,-0.661 0.508,-1.074 0.424,-2.506 1.469,-4.906 2.844,-7.104 0.356,-0.571 0.756,-1.105 1.149,-1.644 0.842,-1.154 1.733,-2.235 2.653,-3.219 1.134,-1.212 2.28,-2.299 3.316,-3.188 1.136,-0.976 2.137,-1.739 2.849,-2.252 0.355,-0.257 0.637,-0.451 0.825,-0.578 l 0.212,-0.141 0.021,-0.014 0.027,-0.017 v -10e-4 h 0.01 c 1.057,-0.669 1.373,-2.07 0.704,-3.127 0,0 0,0 0,0 0,0 0,0 0,-10e-4 -0.065,-0.103 -0.142,-0.193 -0.22,-0.281 -0.022,-0.025 -0.039,-0.056 -0.063,-0.08 -0.731,-0.76 -1.918,-0.929 -2.844,-0.343 v 0 c -0.09,0.06 -3.452,2.185 -7.123,5.853 -1.834,1.836 -3.748,4.059 -5.359,6.633 z"
               id="path206" />
            <path
               inkscape:connector-curvature="0"
               d="m 1110.465,1208.508 c 0.964,-1.903 2.169,-3.691 3.711,-5.136 1.549,-1.42 3.447,-2.516 5.673,-2.847 -2.23,-0.284 -4.61,0.511 -6.443,1.93 -1.87,1.403 -3.25,3.33 -4.311,5.353 -2.077,4.1 -2.746,8.783 -2.187,13.208 0.664,-4.408 1.584,-8.688 3.557,-12.508 z"
               id="path208" />
            <path
               inkscape:connector-curvature="0"
               d="m 1084.39,1279.13 c -0.056,0.021 -2.652,0.949 -6.242,2.682 -1.624,0.783 -3.45,1.731 -5.337,2.835 -3.031,1.776 -6.222,3.953 -8.992,6.544 -2.761,2.593 -5.133,5.613 -6.367,9.155 -0.313,0.904 -0.016,1.87 0.669,2.458 0.21,0.181 0.455,0.329 0.733,0.426 1.183,0.409 2.474,-0.218 2.884,-1.401 0.877,-2.555 2.756,-5.062 5.181,-7.329 3.628,-3.406 8.416,-6.229 12.273,-8.151 0.081,-0.041 0.156,-0.075 0.236,-0.115 1.829,-0.904 3.44,-1.613 4.595,-2.091 0.603,-0.25 1.083,-0.438 1.409,-0.563 0.164,-0.063 0.289,-0.11 0.37,-0.14 l 0.09,-0.033 0.017,-0.01 h 0.01 c 0.142,-0.051 0.275,-0.116 0.401,-0.191 0,0 0.01,0 0.014,-0.01 0.074,-0.045 0.137,-0.101 0.204,-0.154 0.05,-0.039 0.106,-0.072 0.152,-0.115 0.012,-0.011 0.021,-0.025 0.033,-0.036 0.412,-0.396 0.665,-0.934 0.697,-1.505 0.017,-0.294 -0.024,-0.596 -0.129,-0.891 -0.13,-0.364 -0.35,-0.666 -0.618,-0.908 -0.057,-0.052 -0.111,-0.109 -0.173,-0.155 0,-10e-4 0,0 -0.01,0 -0.116,-0.084 -0.239,-0.158 -0.368,-0.219 -0.524,-0.247 -1.143,-0.295 -1.732,-0.085 z"
               id="path210" />
            <path
               inkscape:connector-curvature="0"
               d="m 931.951,1309.199 c -2.143,0.938 -4.152,2.233 -5.812,4.001 -1.661,1.764 -2.947,4.003 -3.653,6.676 -0.322,1.21 0.399,2.451 1.609,2.773 1.21,0.322 2.451,-0.399 2.773,-1.609 0.53,-1.983 1.416,-3.495 2.577,-4.738 1.737,-1.855 4.183,-3.115 7.018,-3.895 2.827,-0.781 6,-1.066 8.993,-1.065 1.963,0 3.847,0.12 5.513,0.288 0.51,-1.51 1.14,-2.959 1.887,-4.349 -2.103,-0.257 -4.651,-0.471 -7.4,-0.473 -4.365,0.01 -9.21,0.521 -13.505,2.391 z"
               id="path212" />
            <path
               inkscape:connector-curvature="0"
               d="m 1235.624,1160.713 c -0.838,-1.825 -2.069,-3.769 -4.431,-4.89 -1.17,-0.536 -2.646,-0.689 -3.914,-0.298 -1.283,0.367 -2.27,1.146 -2.991,1.967 -1.432,1.683 -1.997,3.602 -2.303,5.44 -0.224,1.864 -0.153,3.704 0.338,5.437 0.507,-1.724 1.033,-3.345 1.782,-4.802 0.701,-1.45 1.655,-2.761 2.674,-3.544 1.087,-0.78 1.842,-0.764 2.552,-0.337 0.763,0.45 1.605,1.557 2.146,2.858 1.143,2.615 1.534,5.843 1.322,8.937 -0.14,1.545 -0.379,3.125 -0.999,4.548 -0.582,1.42 -1.462,2.824 -3.205,3.361 0.871,0.262 1.901,0.096 2.78,-0.338 0.892,-0.427 1.632,-1.096 2.295,-1.814 1.268,-1.488 2.113,-3.261 2.634,-5.102 0.526,-1.845 0.701,-3.763 0.621,-5.687 -0.087,-1.925 -0.484,-3.864 -1.301,-5.736 z"
               id="path214" />
          </g>
        </g>
      </g>
      <g
         id="g274">
        <path
           inkscape:connector-curvature="0"
           d="m 538.925,1628.118 v -35.756 c 0,-1.161 0.406,-2.147 1.219,-2.96 0.813,-0.813 1.8,-1.22 2.96,-1.22 h 4.063 v 32.506 h 19.503 v 7.43 z"
           id="path222" />
        <path
           inkscape:connector-curvature="0"
           d="m 574.588,1588.182 h 4.179 c 1.083,0 2.011,0.389 2.786,1.161 0.772,0.774 1.161,1.703 1.161,2.786 v 2.438 h -8.126 z m 0,9.056 h 4.179 c 1.083,0 2.011,0.388 2.786,1.161 0.772,0.774 1.161,1.703 1.161,2.786 v 26.933 h -8.126 z"
           id="path224" />
        <path
           inkscape:connector-curvature="0"
           d="m 615.939,1628.118 h -4.063 c -1.161,0 -2.109,-0.366 -2.844,-1.103 -0.736,-0.735 -1.103,-1.684 -1.103,-2.845 v -15.788 c 0,-1.857 -0.563,-3.211 -1.684,-4.063 -1.123,-0.851 -2.38,-1.276 -3.773,-1.276 -1.393,0 -2.632,0.426 -3.715,1.276 -1.084,0.853 -1.625,2.206 -1.625,4.063 v 19.735 h -8.126 v -18.11 c 0,-5.262 1.373,-8.783 4.121,-10.564 2.747,-1.779 5.785,-2.746 9.113,-2.901 3.405,0 6.539,0.891 9.403,2.67 2.862,1.781 4.295,5.38 4.295,10.796 v 18.11 z"
           id="path226" />
        <path
           inkscape:connector-curvature="0"
           d="m 631.286,1597.238 v 11.377 l 9.868,-11.377 h 9.751 l -11.029,11.841 11.145,19.039 h -9.751 l -5.688,-10.448 c -1.161,-2.09 -2.168,-2.979 -3.019,-2.67 -0.853,0.311 -1.277,0.774 -1.277,1.393 v 4.296 7.43 h -8.126 v -39.936 h 4.179 c 1.083,0 2.012,0.389 2.786,1.161 0.773,0.774 1.161,1.665 1.161,2.67 z"
           id="path228" />
        <path
           inkscape:connector-curvature="0"
           d="m 679.835,1618.598 h 5.805 c -0.853,3.251 -2.478,5.729 -4.876,7.43 -2.399,1.781 -5.418,2.67 -9.055,2.67 -4.412,0 -7.856,-1.431 -10.332,-4.295 -2.478,-2.786 -3.715,-6.771 -3.715,-11.957 0,-4.952 1.199,-8.823 3.599,-11.609 2.476,-2.862 5.92,-4.295 10.332,-4.295 4.644,0 8.242,1.393 10.796,4.179 2.476,2.864 3.715,6.85 3.715,11.957 0,0.311 0,0.581 0,0.813 0,0.231 0,0.388 0,0.464 0,0.389 -0.04,0.658 -0.116,0.813 h -20.083 c 0.076,2.4 0.657,4.18 1.741,5.341 1.005,1.238 2.514,1.857 4.528,1.857 1.315,0 2.438,-0.271 3.367,-0.813 0.232,-0.076 0.444,-0.212 0.638,-0.406 0.192,-0.192 0.406,-0.406 0.639,-0.638 0.076,-0.232 0.366,-0.541 0.871,-0.93 0.501,-0.387 1.218,-0.581 2.146,-0.581 z m -13.93,-9.055 h 11.841 c -0.156,-2.09 -0.697,-3.637 -1.625,-4.644 -1.006,-1.083 -2.438,-1.626 -4.295,-1.626 -1.703,0 -3.096,0.543 -4.179,1.626 -1.086,1.085 -1.666,2.633 -1.742,4.644 z"
           id="path230" />
        <path
           inkscape:connector-curvature="0"
           d="m 713.757,1588.067 h 3.947 c 1.083,0 2.012,0.406 2.786,1.219 0.773,0.813 1.161,1.723 1.161,2.728 v 22.638 c 0,5.496 -1.587,9.211 -4.76,11.145 -3.174,1.936 -6.617,2.902 -10.332,2.902 -2.014,0 -3.987,-0.33 -5.921,-0.986 -1.935,-0.656 -3.482,-1.722 -4.644,-3.192 -2.246,-2.862 -3.367,-6.771 -3.367,-11.726 0,-4.876 1.121,-8.782 3.367,-11.725 2.322,-3.019 5.3,-4.527 8.939,-4.527 1.934,0 3.637,0.388 5.108,1.16 1.547,0.929 2.787,2.13 3.715,3.599 v -13.235 z m -13.234,24.379 c 0,3.096 0.58,5.456 1.741,7.081 1.161,1.625 2.824,2.438 4.992,2.438 2.09,0 3.715,-0.813 4.876,-2.438 1.083,-1.625 1.625,-3.985 1.625,-7.081 0,-2.786 -0.581,-4.992 -1.742,-6.617 -1.239,-1.548 -2.902,-2.322 -4.992,-2.322 -2.014,0 -3.599,0.813 -4.76,2.438 -1.16,1.549 -1.74,3.715 -1.74,6.501 z"
           id="path232" />
        <path
           inkscape:connector-curvature="0"
           d="m 777.885,1623.358 c -1.393,2.014 -3.058,3.482 -4.992,4.411 -2.014,0.852 -4.219,1.277 -6.617,1.277 -5.729,0 -10.256,-1.896 -13.583,-5.688 -3.407,-3.715 -5.108,-8.823 -5.108,-15.324 0,-6.423 1.664,-11.492 4.992,-15.208 3.482,-3.868 8.086,-5.804 13.815,-5.804 4.952,0 9.055,1.2 12.305,3.599 3.173,2.554 5.068,5.883 5.688,9.983 h -5.572 c -1.625,0 -2.826,-0.734 -3.599,-2.205 -0.542,-0.929 -1.317,-1.78 -2.322,-2.555 -1.549,-1.083 -3.599,-1.625 -6.153,-1.625 -3.329,0 -5.96,1.201 -7.894,3.599 -1.936,2.554 -2.902,5.961 -2.902,10.216 0,4.336 1.005,7.74 3.018,10.216 1.934,2.4 4.682,3.6 8.243,3.6 2.63,0 4.798,-0.735 6.501,-2.206 1.702,-1.547 2.786,-3.675 3.25,-6.385 h -4.876 c -1.161,0 -2.147,-0.406 -2.96,-1.219 -0.813,-0.813 -1.219,-1.8 -1.219,-2.961 v -2.67 h 16.601 v 21.709 h -2.206 c -2.168,0 -3.523,-1.083 -4.063,-3.251 z"
           id="path234" />
        <path
           inkscape:connector-curvature="0"
           d="m 813.664,1618.598 h 5.805 c -0.853,3.251 -2.478,5.729 -4.876,7.43 -2.399,1.781 -5.418,2.67 -9.055,2.67 -4.412,0 -7.856,-1.431 -10.332,-4.295 -2.478,-2.786 -3.715,-6.771 -3.715,-11.957 0,-4.952 1.199,-8.823 3.599,-11.609 2.476,-2.862 5.92,-4.295 10.332,-4.295 4.644,0 8.242,1.393 10.796,4.179 2.476,2.864 3.715,6.85 3.715,11.957 0,0.311 0,0.581 0,0.813 0,0.231 0,0.388 0,0.464 0,0.389 -0.04,0.658 -0.116,0.813 h -20.083 c 0.076,2.4 0.657,4.18 1.741,5.341 1.005,1.238 2.514,1.857 4.528,1.857 1.315,0 2.438,-0.271 3.367,-0.813 0.232,-0.076 0.444,-0.212 0.638,-0.406 0.192,-0.192 0.406,-0.406 0.639,-0.638 0.076,-0.232 0.366,-0.541 0.871,-0.93 0.501,-0.387 1.218,-0.581 2.146,-0.581 z m -13.93,-9.055 h 11.841 c -0.156,-2.09 -0.697,-3.637 -1.625,-4.644 -1.006,-1.083 -2.438,-1.626 -4.295,-1.626 -1.703,0 -3.096,0.543 -4.179,1.626 -1.085,1.085 -1.666,2.633 -1.742,4.644 z"
           id="path236" />
        <path
           inkscape:connector-curvature="0"
           d="m 830.985,1625.332 c -1.625,-1.394 -2.786,-3.269 -3.483,-5.631 -0.696,-2.359 -1.045,-4.817 -1.045,-7.371 0,-2.09 0.291,-4.18 0.871,-6.27 0.58,-2.089 1.489,-3.831 2.728,-5.224 2.012,-2.322 4.604,-3.695 7.778,-4.121 3.173,-0.425 6.037,-0.174 8.591,0.755 2.94,1.16 5.108,3.174 6.501,6.036 1.315,2.554 1.974,5.534 1.974,8.939 0,2.478 -0.272,4.605 -0.813,6.385 -0.542,1.781 -1.239,3.29 -2.09,4.527 -1.857,2.554 -4.219,4.142 -7.082,4.76 -2.554,0.696 -5.128,0.755 -7.72,0.174 -2.593,-0.58 -4.662,-1.567 -6.21,-2.959 z m 5.572,-20.432 c -1.625,1.781 -2.362,4.431 -2.206,7.952 0.154,3.522 0.813,5.979 1.974,7.371 0.464,0.621 1.277,1.144 2.438,1.567 1.161,0.427 2.34,0.465 3.541,0.116 1.199,-0.349 2.264,-1.219 3.192,-2.612 0.929,-1.393 1.431,-3.637 1.509,-6.732 0,-2.787 -0.446,-4.876 -1.335,-6.27 -0.891,-1.393 -1.916,-2.281 -3.077,-2.67 -1.161,-0.387 -2.322,-0.406 -3.482,-0.058 -1.16,0.349 -2.013,0.795 -2.554,1.336 z"
           id="path238" />
        <path
           inkscape:connector-curvature="0"
           d="m 882.553,1588.067 h 3.947 c 1.083,0 2.012,0.406 2.786,1.219 0.773,0.813 1.161,1.723 1.161,2.728 v 22.638 c 0,5.496 -1.587,9.211 -4.76,11.145 -3.174,1.936 -6.617,2.902 -10.332,2.902 -2.014,0 -3.987,-0.33 -5.921,-0.986 -1.935,-0.656 -3.482,-1.722 -4.644,-3.192 -2.246,-2.862 -3.367,-6.771 -3.367,-11.726 0,-4.876 1.121,-8.782 3.367,-11.725 2.322,-3.019 5.3,-4.527 8.939,-4.527 1.934,0 3.637,0.388 5.108,1.16 1.547,0.929 2.787,2.13 3.715,3.599 v -13.235 z m -13.235,24.379 c 0,3.096 0.58,5.456 1.741,7.081 1.161,1.625 2.824,2.438 4.992,2.438 2.09,0 3.715,-0.813 4.876,-2.438 1.083,-1.625 1.625,-3.985 1.625,-7.081 0,-2.786 -0.581,-4.992 -1.742,-6.617 -1.239,-1.548 -2.902,-2.322 -4.992,-2.322 -2.014,0 -3.599,0.813 -4.76,2.438 -1.16,1.549 -1.74,3.715 -1.74,6.501 z"
           id="path240" />
        <path
           inkscape:connector-curvature="0"
           d="m 919.26,1618.598 h 5.805 c -0.853,3.251 -2.478,5.729 -4.876,7.43 -2.399,1.781 -5.418,2.67 -9.055,2.67 -4.412,0 -7.856,-1.431 -10.332,-4.295 -2.478,-2.786 -3.715,-6.771 -3.715,-11.957 0,-4.952 1.199,-8.823 3.599,-11.609 2.476,-2.862 5.92,-4.295 10.332,-4.295 4.644,0 8.242,1.393 10.796,4.179 2.476,2.864 3.715,6.85 3.715,11.957 0,0.311 0,0.581 0,0.813 0,0.231 0,0.388 0,0.464 0,0.389 -0.04,0.658 -0.116,0.813 H 905.33 c 0.076,2.4 0.657,4.18 1.741,5.341 1.005,1.238 2.514,1.857 4.528,1.857 1.315,0 2.438,-0.271 3.367,-0.813 0.232,-0.076 0.444,-0.212 0.638,-0.406 0.192,-0.192 0.406,-0.406 0.639,-0.638 0.076,-0.232 0.366,-0.541 0.871,-0.93 0.501,-0.387 1.217,-0.581 2.146,-0.581 z m -13.931,-9.055 h 11.841 c -0.156,-2.09 -0.697,-3.637 -1.625,-4.644 -1.006,-1.083 -2.438,-1.626 -4.295,-1.626 -1.703,0 -3.096,0.543 -4.179,1.626 -1.085,1.085 -1.665,2.633 -1.742,4.644 z"
           id="path242" />
        <path
           inkscape:connector-curvature="0"
           d="m 932.054,1617.902 h 7.895 c 0.076,1.549 0.657,2.71 1.741,3.482 1.161,0.774 2.708,1.161 4.644,1.161 1.393,0 2.592,-0.271 3.599,-0.813 0.929,-0.541 1.393,-1.277 1.393,-2.206 0,-1.393 -1.625,-2.438 -4.876,-3.135 -1.393,-0.231 -2.438,-0.464 -3.134,-0.696 -4.104,-1.005 -6.85,-2.205 -8.243,-3.599 -1.549,-1.394 -2.322,-3.251 -2.322,-5.572 0,-2.94 1.121,-5.378 3.367,-7.313 2.322,-1.779 5.34,-2.67 9.055,-2.67 4.023,0 7.235,0.891 9.635,2.67 2.244,1.936 3.443,4.451 3.599,7.546 h -4.992 c -1.471,0 -2.594,-0.657 -3.367,-1.974 -0.31,-0.309 -0.62,-0.619 -0.929,-0.929 -0.929,-0.696 -2.206,-1.045 -3.831,-1.045 -1.549,0 -2.71,0.232 -3.482,0.696 -0.697,0.465 -1.045,1.161 -1.045,2.09 0,1.239 2.012,2.283 6.037,3.135 0.464,0.155 0.871,0.271 1.219,0.348 0.348,0.078 0.676,0.116 0.986,0.116 3.947,1.007 6.693,2.168 8.243,3.482 1.469,1.394 2.206,3.251 2.206,5.572 0,3.407 -1.239,6.037 -3.715,7.895 -2.322,1.703 -5.804,2.554 -10.448,2.554 -4.411,0 -7.702,-0.889 -9.868,-2.67 -2.246,-1.779 -3.367,-4.371 -3.367,-7.778 z"
           id="path244" />
        <path
           inkscape:connector-curvature="0"
           d="m 971.083,1639.03 v -6.385 h 2.206 c 1.547,0 2.766,-0.368 3.657,-1.103 0.889,-0.736 1.063,-1.916 0.522,-3.541 l -10.796,-30.764 h 8.939 l 6.269,21.825 5.456,-19.039 c 0.464,-1.857 1.702,-2.786 3.715,-2.786 h 5.572 l -11.841,35.175 c -0.929,2.555 -2.09,4.372 -3.483,5.457 -1.393,0.929 -3.677,1.393 -6.85,1.393 -0.232,0 -0.504,0 -0.813,0 -0.31,0 -0.581,0 -0.813,0 -0.232,-0.078 -0.522,-0.136 -0.871,-0.174 -0.346,-0.04 -0.637,-0.058 -0.869,-0.058 z"
           id="path246" />
        <path
           inkscape:connector-curvature="0"
           d="m 1034.748,1628.118 -11.493,-39.936 h 8.475 l 6.85,28.21 5.805,-28.21 h 8.822 l 5.688,28.21 6.153,-25.191 c 0.464,-2.012 1.817,-3.019 4.063,-3.019 h 5.108 l -11.377,39.936 h -7.895 l -6.152,-30.647 -6.269,30.647 z"
           id="path248" />
        <path
           inkscape:connector-curvature="0"
           d="m 1086.431,1625.332 c -1.625,-1.394 -2.786,-3.269 -3.482,-5.631 -0.697,-2.359 -1.045,-4.817 -1.045,-7.371 0,-2.09 0.29,-4.18 0.87,-6.27 0.581,-2.089 1.489,-3.831 2.729,-5.224 2.012,-2.322 4.604,-3.695 7.778,-4.121 3.172,-0.425 6.036,-0.174 8.591,0.755 2.939,1.16 5.107,3.174 6.501,6.036 1.314,2.554 1.974,5.534 1.974,8.939 0,2.478 -0.272,4.605 -0.813,6.385 -0.542,1.781 -1.238,3.29 -2.089,4.527 -1.857,2.554 -4.22,4.142 -7.082,4.76 -2.554,0.696 -5.128,0.755 -7.72,0.174 -2.595,-0.58 -4.666,-1.567 -6.212,-2.959 z m 5.572,-20.432 c -1.625,1.781 -2.361,4.431 -2.206,7.952 0.154,3.522 0.813,5.979 1.974,7.371 0.465,0.621 1.277,1.144 2.438,1.567 1.16,0.427 2.34,0.465 3.54,0.116 1.199,-0.349 2.265,-1.219 3.193,-2.612 0.929,-1.393 1.431,-3.637 1.509,-6.732 0,-2.787 -0.446,-4.876 -1.335,-6.27 -0.891,-1.393 -1.916,-2.281 -3.076,-2.67 -1.161,-0.387 -2.322,-0.406 -3.483,-0.058 -1.161,0.349 -2.013,0.795 -2.554,1.336 z"
           id="path250" />
        <path
           inkscape:connector-curvature="0"
           d="m 1117.566,1628.118 v -14.976 c 0,-3.019 0.444,-5.553 1.335,-7.604 0.889,-2.049 2.107,-3.694 3.657,-4.934 1.469,-1.161 3.192,-2.012 5.166,-2.554 1.974,-0.541 4.005,-0.813 6.095,-0.813 0.154,0 0.348,0 0.58,0 0.232,0 0.425,0 0.581,0 v 8.242 h -2.671 c -2.245,0 -3.908,0.542 -4.991,1.625 -1.085,1.085 -1.626,2.786 -1.626,5.108 v 15.904 h -8.126 z"
           id="path252" />
        <path
           inkscape:connector-curvature="0"
           d="m 1149.862,1597.238 v 11.377 l 9.868,-11.377 h 9.752 l -11.029,11.841 11.145,19.039 h -9.751 l -5.688,-10.448 c -1.161,-2.09 -2.168,-2.979 -3.019,-2.67 -0.853,0.311 -1.277,0.774 -1.277,1.393 v 4.296 7.43 h -8.126 v -39.936 h 4.18 c 1.082,0 2.011,0.389 2.786,1.161 0.772,0.774 1.16,1.665 1.16,2.67 v 5.224 z"
           id="path254" />
        <path
           inkscape:connector-curvature="0"
           d="m 1177.631,1588.182 h 4.18 c 1.083,0 2.012,0.389 2.786,1.161 0.772,0.774 1.161,1.703 1.161,2.786 v 2.438 h -8.127 z m 0,9.056 h 4.18 c 1.083,0 2.012,0.388 2.786,1.161 0.772,0.774 1.161,1.703 1.161,2.786 v 26.933 h -8.127 z"
           id="path256" />
        <path
           inkscape:connector-curvature="0"
           d="m 1218.982,1628.118 h -4.063 c -1.161,0 -2.11,-0.366 -2.845,-1.103 -0.736,-0.735 -1.103,-1.684 -1.103,-2.845 v -15.788 c 0,-1.857 -0.563,-3.211 -1.684,-4.063 -1.123,-0.851 -2.38,-1.276 -3.772,-1.276 -1.394,0 -2.632,0.426 -3.715,1.276 -1.085,0.853 -1.626,2.206 -1.626,4.063 v 19.735 h -8.126 v -18.11 c 0,-5.262 1.373,-8.783 4.121,-10.564 2.746,-1.779 5.785,-2.746 9.113,-2.901 3.404,0 6.539,0.891 9.403,2.67 2.862,1.781 4.295,5.38 4.295,10.796 v 18.11 z"
           id="path258" />
        <path
           inkscape:connector-curvature="0"
           d="m 1246.636,1626.26 v -1.974 c -1.393,2.168 -3.271,3.522 -5.63,4.063 -2.362,0.54 -4.702,0.348 -7.023,-0.581 -2.322,-0.929 -4.315,-2.649 -5.979,-5.166 -1.666,-2.514 -2.496,-5.822 -2.496,-9.926 0,-4.798 1.103,-8.687 3.309,-11.667 2.205,-2.979 5.746,-4.469 10.622,-4.469 3.715,0 7.157,1.006 10.332,3.018 3.173,2.014 4.76,5.729 4.76,11.145 v 16.369 c 0,5.416 -1.587,9.113 -4.76,11.087 -3.175,1.974 -6.617,2.96 -10.332,2.96 -7.121,0 -11.533,-3.328 -13.234,-9.983 h 8.475 c 0.618,1.083 1.567,1.915 2.844,2.496 1.277,0.58 2.555,0.734 3.831,0.464 1.277,-0.271 2.438,-1.026 3.483,-2.264 1.044,-1.239 1.642,-3.096 1.798,-5.572 z m -13.235,-13.35 c 0,5.34 1.548,8.301 4.644,8.881 3.095,0.581 5.379,-0.134 6.85,-2.147 0.696,-0.851 1.199,-2.186 1.51,-4.005 0.308,-1.817 0.328,-3.617 0.058,-5.398 -0.272,-1.779 -0.91,-3.366 -1.915,-4.76 -1.007,-1.393 -2.479,-2.09 -4.412,-2.09 -2.632,0 -4.411,0.969 -5.34,2.902 -0.93,1.935 -1.395,4.141 -1.395,6.617 z"
           id="path260" />
        <path
           inkscape:connector-curvature="0"
           d="m 1289.403,1613.838 v 14.279 h -8.242 v -35.756 c 0,-1.161 0.406,-2.147 1.219,-2.96 0.813,-0.813 1.8,-1.22 2.961,-1.22 h 13.582 c 4.256,0 7.43,1.085 9.52,3.251 2.166,2.168 3.251,5.38 3.251,9.636 0,4.024 -1.045,7.197 -3.135,9.52 -2.09,2.167 -5.108,3.25 -9.055,3.25 z m 0,-7.197 h 8.011 c 2.166,0 3.715,-0.465 4.644,-1.394 1.005,-0.851 1.509,-2.321 1.509,-4.411 0,-1.779 -0.464,-3.211 -1.393,-4.295 -1.085,-0.929 -2.517,-1.394 -4.296,-1.394 h -8.475 z"
           id="path262" />
        <path
           inkscape:connector-curvature="0"
           d="m 1338.881,1626.84 c -1.625,0.853 -3.349,1.373 -5.166,1.567 -1.819,0.192 -3.425,0.29 -4.817,0.29 -2.786,0 -5.225,-0.754 -7.314,-2.264 -2.089,-1.509 -3.134,-4.005 -3.134,-7.487 0,-3.251 0.946,-5.572 2.844,-6.966 1.896,-1.393 4.313,-2.321 7.256,-2.786 0.387,0 0.851,-0.058 1.394,-0.174 0.54,-0.116 1.16,-0.213 1.857,-0.29 3.404,-0.465 5.107,-1.47 5.107,-3.019 0,-1.161 -0.601,-1.916 -1.799,-2.264 -1.201,-0.349 -2.304,-0.522 -3.309,-0.522 -1.085,0 -2.052,0.155 -2.902,0.464 -0.853,0.311 -1.472,0.891 -1.857,1.741 h -7.778 c 0.309,-2.397 1.393,-4.371 3.25,-5.92 2.09,-1.779 5.068,-2.67 8.939,-2.67 4.333,0 7.584,0.736 9.752,2.205 2.243,1.549 3.366,3.715 3.366,6.501 v 10.564 c 0,3.097 -0.563,5.515 -1.684,7.256 -1.122,1.743 -2.458,3.002 -4.005,3.774 z m -1.858,-14.278 c -1.085,0.542 -2.594,1.044 -4.527,1.509 l -2.67,0.58 c -1.394,0.389 -2.4,0.891 -3.019,1.51 -0.543,0.853 -0.813,1.703 -0.813,2.554 0,1.161 0.348,2.09 1.045,2.786 0.696,0.62 1.701,0.929 3.018,0.929 2.166,0 3.869,-0.618 5.108,-1.857 1.237,-1.237 1.857,-2.94 1.857,-5.108 v -2.903 z"
           id="path264" />
        <path
           inkscape:connector-curvature="0"
           d="m 1359.569,1635.547 c 0,1.083 -0.389,2.012 -1.161,2.786 -0.774,0.772 -1.703,1.161 -2.786,1.161 h -3.947 v -28.906 c 0,-5.417 1.585,-9.113 4.76,-11.087 3.173,-1.974 6.617,-2.96 10.332,-2.96 1.934,0 3.889,0.368 5.862,1.103 1.974,0.736 3.541,1.799 4.702,3.192 2.321,3.019 3.482,6.89 3.482,11.609 0,4.875 -1.161,8.822 -3.482,11.841 -2.322,2.942 -5.303,4.411 -8.939,4.411 -1.936,0 -3.639,-0.348 -5.107,-1.045 -1.55,-0.772 -2.786,-1.973 -3.715,-3.599 v 11.494 z m 13.235,-22.754 c 0,-3.019 -0.581,-5.34 -1.742,-6.965 -1.16,-1.626 -2.825,-2.438 -4.991,-2.438 -2.09,0 -3.715,0.813 -4.876,2.438 -1.085,1.471 -1.625,3.793 -1.625,6.965 0,2.942 0.58,5.148 1.741,6.617 1.161,1.626 2.824,2.438 4.991,2.438 2.012,0 3.6,-0.813 4.76,-2.438 1.161,-1.624 1.742,-3.83 1.742,-6.617 z"
           id="path266" />
        <path
           inkscape:connector-curvature="0"
           d="m 1409.627,1618.598 h 5.805 c -0.853,3.251 -2.478,5.729 -4.876,7.43 -2.399,1.781 -5.418,2.67 -9.055,2.67 -4.411,0 -7.856,-1.431 -10.332,-4.295 -2.478,-2.786 -3.715,-6.771 -3.715,-11.957 0,-4.952 1.199,-8.823 3.599,-11.609 2.476,-2.862 5.921,-4.295 10.332,-4.295 4.644,0 8.242,1.393 10.796,4.179 2.477,2.864 3.716,6.85 3.716,11.957 0,0.311 0,0.581 0,0.813 0,0.231 0,0.388 0,0.464 0,0.389 -0.04,0.658 -0.116,0.813 h -20.084 c 0.076,2.4 0.656,4.18 1.741,5.341 1.005,1.238 2.515,1.857 4.527,1.857 1.315,0 2.438,-0.271 3.367,-0.813 0.232,-0.076 0.444,-0.212 0.639,-0.406 0.191,-0.192 0.406,-0.406 0.638,-0.638 0.076,-0.232 0.367,-0.541 0.871,-0.93 0.501,-0.387 1.218,-0.581 2.147,-0.581 z m -13.931,-9.055 h 11.841 c -0.155,-2.09 -0.696,-3.637 -1.625,-4.644 -1.007,-1.083 -2.438,-1.626 -4.295,-1.626 -1.703,0 -3.097,0.543 -4.18,1.626 -1.085,1.085 -1.665,2.633 -1.741,4.644 z"
           id="path268" />
        <path
           inkscape:connector-curvature="0"
           d="m 1423.116,1628.118 v -14.976 c 0,-3.019 0.444,-5.553 1.335,-7.604 0.889,-2.049 2.107,-3.694 3.657,-4.934 1.469,-1.161 3.192,-2.012 5.166,-2.554 1.974,-0.541 4.005,-0.813 6.095,-0.813 0.154,0 0.348,0 0.58,0 0.232,0 0.425,0 0.581,0 v 8.242 h -2.671 c -2.245,0 -3.908,0.542 -4.991,1.625 -1.085,1.085 -1.626,2.786 -1.626,5.108 v 15.904 h -8.126 z"
           id="path270" />
        <path
           inkscape:connector-curvature="0"
           d="m 1446.59,1617.902 h 7.894 c 0.076,1.549 0.657,2.71 1.742,3.482 1.16,0.774 2.708,1.161 4.644,1.161 1.393,0 2.592,-0.271 3.599,-0.813 0.929,-0.541 1.393,-1.277 1.393,-2.206 0,-1.393 -1.625,-2.438 -4.876,-3.135 -1.393,-0.231 -2.438,-0.464 -3.134,-0.696 -4.104,-1.005 -6.85,-2.205 -8.242,-3.599 -1.55,-1.394 -2.322,-3.251 -2.322,-5.572 0,-2.94 1.121,-5.378 3.366,-7.313 2.322,-1.779 5.341,-2.67 9.056,-2.67 4.023,0 7.235,0.891 9.636,2.67 2.243,1.936 3.442,4.451 3.599,7.546 h -4.992 c -1.471,0 -2.594,-0.657 -3.366,-1.974 -0.311,-0.309 -0.621,-0.619 -0.929,-0.929 -0.929,-0.696 -2.206,-1.045 -3.831,-1.045 -1.55,0 -2.71,0.232 -3.483,0.696 -0.696,0.465 -1.045,1.161 -1.045,2.09 0,1.239 2.012,2.283 6.037,3.135 0.465,0.155 0.871,0.271 1.219,0.348 0.349,0.078 0.677,0.116 0.987,0.116 3.947,1.007 6.693,2.168 8.242,3.482 1.47,1.394 2.206,3.251 2.206,5.572 0,3.407 -1.239,6.037 -3.715,7.895 -2.322,1.703 -5.805,2.554 -10.448,2.554 -4.412,0 -7.702,-0.889 -9.868,-2.67 -2.245,-1.779 -3.366,-4.371 -3.366,-7.778 v -0.347 z"
           id="path272" />
      </g>
    </g>
  </g>
</svg>
