<?xml version="1.0" encoding="UTF-8" standalone="no"?>
<!-- Created with Inkscape (http://www.inkscape.org/) -->

<svg
   xmlns:dc="http://purl.org/dc/elements/1.1/"
   xmlns:cc="http://creativecommons.org/ns#"
   xmlns:rdf="http://www.w3.org/1999/02/22-rdf-syntax-ns#"
   xmlns:svg="http://www.w3.org/2000/svg"
   xmlns="http://www.w3.org/2000/svg"
   xmlns:sodipodi="http://sodipodi.sourceforge.net/DTD/sodipodi-0.dtd"
   xmlns:inkscape="http://www.inkscape.org/namespaces/inkscape"
   width="114.14211mm"
   height="107.04559mm"
   viewBox="0 0 114.14211 107.04559"
   version="1.1"
   id="svg6353"
   inkscape:version="0.92.1 r15371"
   sodipodi:docname="Linked Geodesy Working Papers SVG File_2.svg">
  <defs
     id="defs6347">
    <clipPath
       clipPathUnits="userSpaceOnUse"
       id="clipPath6252">
      <rect
         style="opacity:1;fill:#000000;fill-opacity:1;fill-rule:evenodd;stroke:none;stroke-width:1.87464571;stroke-miterlimit:4;stroke-dasharray:none;stroke-opacity:1"
         id="rect6254"
         width="728.08026"
         height="614.22412"
         x="638.19385"
         y="85.418503" />
    </clipPath>
  </defs>
  <sodipodi:namedview
     id="base"
     pagecolor="#ffffff"
     bordercolor="#666666"
     borderopacity="1.0"
     inkscape:pageopacity="0.0"
     inkscape:pageshadow="2"
     inkscape:zoom="0.35"
     inkscape:cx="-451.44123"
     inkscape:cy="-194.85198"
     inkscape:document-units="mm"
     inkscape:current-layer="layer1"
     showgrid="false"
     fit-margin-top="0"
     fit-margin-left="0"
     fit-margin-right="0"
     fit-margin-bottom="0"
     inkscape:window-width="1920"
     inkscape:window-height="1028"
     inkscape:window-x="-8"
     inkscape:window-y="-8"
     inkscape:window-maximized="1" />
  <metadata
     id="metadata6350">
    <rdf:RDF>
      <cc:Work
         rdf:about="">
        <dc:format>image/svg+xml</dc:format>
        <dc:type
           rdf:resource="http://purl.org/dc/dcmitype/StillImage" />
        <dc:title></dc:title>
      </cc:Work>
    </rdf:RDF>
  </metadata>
  <g
     inkscape:label="Ebene 1"
     inkscape:groupmode="layer"
     id="layer1"
     transform="translate(-60.101562,9.7668428)">
    <g
       transform="matrix(0.26458333,0,0,0.26458333,-147.41085,-58.689474)"
       id="g162"
       clip-path="url(#clipPath6252)">
      <g
         id="g106">
        <path
           inkscape:connector-curvature="0"
           d="m 992.1,513.712 c 0,-0.13 0.01,-0.27 0.03,-0.4 -11.09,-0.72 -21.86,-2.6 -32.19,-5.53 -0.43,0.9 -0.88,1.79 -1.35,2.67 11,3.16 22.49,5.16 34.34,5.85 -0.1,-0.14 -0.19,-0.28 -0.27,-0.43 -0.37,-0.66 -0.56,-1.41 -0.56,-2.16 z"
           id="path2" />
        <path
           inkscape:connector-curvature="0"
           d="m 1002.32,513.642 h -0.7 c -0.37,0.83 -0.76,1.61 -1.2,2.34 v 0.004 -0.006 0.006 l -0.01,0.016 -0.01,0.01 c -0.12,0.2 -0.25,0.38 -0.4,0.55 0.77,0.01 1.54,0.02 2.32,0.02 20.35,0 39.81,-3.85 57.68,-10.86 0.36,-1.13 0.73,-2.33 1.1,-3.61 -18.13,7.43 -37.98,11.53 -58.78,11.53 z"
           id="path4" />
        <path
           inkscape:connector-curvature="0"
           d="m 892.64,248.862 c 28.08,-28.07 66.84,-45.43 109.68,-45.43 29.58,0 57.21,8.28 80.73,22.65 0.09,-1 0.21,-1.99 0.36,-2.95 0.01,-0.08 0.03,-0.17 0.04,-0.25 -23.71,-14.22 -51.47,-22.39 -81.13,-22.39 -78.17,0 -143.08,56.74 -155.79,131.28 l 2.99,-0.04 c 5.59,-32.09 21.04,-60.79 43.12,-82.87 z"
           id="path6" />
        <path
           inkscape:connector-curvature="0"
           d="m 950.62,506.402 c 0.24,-0.44 0.47,-0.89 0.7,-1.34 -22.32,-7.77 -42.31,-20.49 -58.68,-36.85 -15.11,-15.11 -27.11,-33.32 -34.98,-53.6 h -3.15 c 16.5,43.47 51.63,77.78 95.64,93.16 0.07,-0.47 0.23,-0.93 0.46,-1.36 z"
           id="path8" />
        <path
           inkscape:connector-curvature="0"
           d="m 1157.42,358.542 c 0,42.83 -17.36,81.6 -45.43,109.67 -9.31,9.31 -19.79,17.43 -31.2,24.14 -0.25,1.27 -0.52,2.56 -0.81,3.86 47.99,-27.12 80.38,-78.62 80.38,-137.67 0,-26.02 -6.29,-50.57 -17.42,-72.21 v 6.68 c 9.29,19.91 14.48,42.11 14.48,65.53 z"
           id="path10" />
        <path
           inkscape:connector-curvature="0"
           d="m 849.99,279.612 c 0.78,0.42 1.76,0.12 2.18,-0.67 1.86,-3.5 3.83,-6.93 5.92,-10.28 0.48,-0.75 0.25,-1.74 -0.51,-2.22 -0.75,-0.47 -1.75,-0.24 -2.22,0.52 -2.13,3.41 -4.15,6.9 -6.04,10.47 -0.42,0.79 -0.12,1.76 0.67,2.18 z"
           id="path12" />
        <path
           inkscape:connector-curvature="0"
           d="m 840.47,301.592 c 0.84,0.3 1.76,-0.13 2.06,-0.97 1.36,-3.73 2.84,-7.4 4.44,-11.01 0.36,-0.81 -0.01,-1.76 -0.82,-2.13 -0.81,-0.36 -1.77,0.01 -2.13,0.82 -1.63,3.68 -3.14,7.42 -4.52,11.22 -0.3,0.84 0.13,1.76 0.97,2.07 z"
           id="path14" />
        <path
           inkscape:connector-curvature="0"
           d="m 834.13,324.662 c 0.88,0.18 1.73,-0.38 1.91,-1.25 0.82,-3.89 1.77,-7.72 2.85,-11.51 0.24,-0.85 -0.26,-1.75 -1.11,-1.99 -0.86,-0.24 -1.75,0.25 -1.99,1.11 -1.1,3.86 -2.07,7.77 -2.9,11.73 -0.19,0.87 0.37,1.72 1.24,1.91 z"
           id="path16" />
        <path
           inkscape:connector-curvature="0"
           d="m 862.47,259.182 c 0.72,0.53 1.73,0.37 2.26,-0.35 2.32,-3.21 4.76,-6.32 7.29,-9.35 0.58,-0.69 0.49,-1.7 -0.2,-2.27 -0.68,-0.58 -1.7,-0.49 -2.27,0.2 -2.58,3.08 -5.06,6.26 -7.43,9.52 -0.53,0.72 -0.37,1.73 0.35,2.25 z"
           id="path18" />
        <path
           inkscape:connector-curvature="0"
           d="m 847.12,427.802 c -0.36,-0.82 -1.32,-1.18 -2.13,-0.82 -0.81,0.37 -1.18,1.32 -0.81,2.13 1.64,3.69 3.41,7.3 5.3,10.84 0.42,0.79 1.4,1.08 2.19,0.67 0.78,-0.42 1.08,-1.4 0.66,-2.19 -1.86,-3.47 -3.59,-7.02 -5.21,-10.63 z"
           id="path20" />
        <path
           inkscape:connector-curvature="0"
           d="m 872.22,467.832 c -0.57,-0.68 -1.59,-0.77 -2.27,-0.19 -0.68,0.57 -0.77,1.59 -0.19,2.27 2.59,3.08 5.29,6.07 8.09,8.97 0.62,0.64 1.64,0.65 2.28,0.04 0.64,-0.62 0.65,-1.64 0.03,-2.28 -2.74,-2.84 -5.39,-5.78 -7.94,-8.81 z"
           id="path22" />
        <path
           inkscape:connector-curvature="0"
           d="m 879.95,240.662 c 2.74,-2.85 5.59,-5.6 8.52,-8.25 0.66,-0.6 0.71,-1.62 0.12,-2.28 -0.6,-0.66 -1.62,-0.71 -2.28,-0.12 -2.99,2.7 -5.89,5.51 -8.68,8.41 -0.62,0.64 -0.6,1.66 0.04,2.28 0.64,0.62 1.66,0.6 2.28,-0.04 z"
           id="path24" />
        <path
           inkscape:connector-curvature="0"
           d="m 897.79,492.492 c -3.12,-2.43 -6.15,-4.98 -9.09,-7.62 -0.66,-0.6 -1.68,-0.54 -2.28,0.12 -0.59,0.66 -0.54,1.68 0.12,2.28 3,2.69 6.08,5.28 9.26,7.76 0.7,0.55 1.72,0.43 2.26,-0.27 0.55,-0.71 0.43,-1.72 -0.27,-2.27 z"
           id="path26" />
        <path
           inkscape:connector-curvature="0"
           d="m 858.27,448.692 c -0.47,-0.76 -1.47,-0.99 -2.22,-0.51 -0.76,0.47 -0.98,1.46 -0.51,2.22 2.14,3.41 4.4,6.75 6.77,10 0.52,0.72 1.53,0.88 2.25,0.35 0.72,-0.52 0.88,-1.53 0.35,-2.25 -2.32,-3.19 -4.54,-6.46 -6.64,-9.81 z"
           id="path28" />
        <path
           inkscape:connector-curvature="0"
           d="m 1007.95,188.722 c 3.98,0.13 7.92,0.39 11.83,0.79 0.88,0.09 1.67,-0.55 1.76,-1.44 0.1,-0.88 -0.55,-1.67 -1.44,-1.77 -3.97,-0.4 -7.99,-0.67 -12.05,-0.8 -0.89,-0.03 -1.63,0.66 -1.66,1.55 -0.03,0.89 0.67,1.64 1.56,1.67 z"
           id="path30" />
        <path
           inkscape:connector-curvature="0"
           d="m 1031.52,191.132 c 3.92,0.67 7.79,1.49 11.61,2.43 0.86,0.21 1.73,-0.32 1.95,-1.18 0.21,-0.87 -0.32,-1.74 -1.18,-1.95 -3.89,-0.96 -7.84,-1.79 -11.83,-2.48 -0.87,-0.15 -1.71,0.44 -1.86,1.31 -0.15,0.88 0.43,1.71 1.31,1.87 z"
           id="path32" />
        <path
           inkscape:connector-curvature="0"
           d="m 984.26,189.572 c 3.91,-0.41 7.85,-0.69 11.83,-0.83 0.89,-0.03 1.58,-0.78 1.55,-1.67 -0.03,-0.89 -0.78,-1.59 -1.67,-1.55 -4.05,0.14 -8.07,0.43 -12.05,0.85 -0.88,0.09 -1.52,0.88 -1.43,1.77 0.09,0.89 0.89,1.53 1.77,1.43 z"
           id="path34" />
        <path
           inkscape:connector-curvature="0"
           d="m 917.44,505.762 c -3.43,-1.98 -6.78,-4.08 -10.06,-6.29 -0.74,-0.5 -1.74,-0.31 -2.24,0.43 -0.49,0.74 -0.3,1.74 0.44,2.24 3.33,2.25 6.75,4.39 10.25,6.41 0.77,0.45 1.75,0.18 2.2,-0.59 0.45,-0.77 0.18,-1.76 -0.59,-2.2 z"
           id="path36" />
        <path
           inkscape:connector-curvature="0"
           d="m 917.15,211.482 c 3.41,-1.98 6.89,-3.84 10.45,-5.58 0.8,-0.4 1.13,-1.36 0.73,-2.16 -0.39,-0.8 -1.35,-1.13 -2.15,-0.74 -3.63,1.78 -7.18,3.68 -10.65,5.69 -0.77,0.45 -1.03,1.44 -0.58,2.21 0.44,0.77 1.43,1.03 2.2,0.58 z"
           id="path38" />
        <path
           inkscape:connector-curvature="0"
           d="m 897.54,224.772 c 3.11,-2.44 6.3,-4.77 9.57,-6.99 0.74,-0.5 0.93,-1.5 0.43,-2.24 -0.5,-0.73 -1.5,-0.92 -2.24,-0.43 -3.33,2.27 -6.59,4.64 -9.75,7.12 -0.7,0.55 -0.82,1.57 -0.27,2.27 0.55,0.7 1.56,0.82 2.26,0.27 z"
           id="path40" />
        <path
           inkscape:connector-curvature="0"
           d="m 938.4,201.062 c 3.65,-1.49 7.37,-2.85 11.14,-4.08 0.84,-0.27 1.31,-1.18 1.03,-2.03 -0.28,-0.85 -1.19,-1.31 -2.03,-1.03 -3.85,1.25 -7.63,2.64 -11.35,4.15 -0.82,0.33 -1.22,1.27 -0.89,2.1 0.34,0.82 1.28,1.22 2.1,0.89 z"
           id="path42" />
        <path
           inkscape:connector-curvature="0"
           d="m 960.93,193.702 c 3.82,-0.95 7.68,-1.78 11.59,-2.47 0.88,-0.16 1.47,-0.99 1.31,-1.87 -0.15,-0.88 -0.99,-1.46 -1.87,-1.31 -3.98,0.71 -7.92,1.55 -11.81,2.52 -0.87,0.22 -1.39,1.1 -1.17,1.96 0.21,0.86 1.09,1.39 1.95,1.17 z"
           id="path44" />
        <path
           inkscape:connector-curvature="0"
           d="m 1054.53,196.802 c 3.78,1.22 7.5,2.57 11.16,4.04 0.83,0.33 1.77,-0.07 2.1,-0.9 0.33,-0.82 -0.07,-1.76 -0.89,-2.09 -3.73,-1.5 -7.53,-2.88 -11.38,-4.12 -0.85,-0.27 -1.76,0.19 -2.03,1.04 -0.27,0.85 0.19,1.76 1.04,2.03 z"
           id="path46" />
        <path
           inkscape:connector-curvature="0"
           d="m 1163.97,301.022 c 0.83,-0.31 1.26,-1.23 0.95,-2.07 -1.38,-3.79 -2.9,-7.52 -4.54,-11.18 -0.37,-0.81 -1.32,-1.17 -2.13,-0.81 -0.82,0.37 -1.18,1.32 -0.81,2.13 1.61,3.6 3.09,7.25 4.46,10.97 0.3,0.84 1.23,1.27 2.07,0.96 z"
           id="path48" />
        <path
           inkscape:connector-curvature="0"
           d="m 1167.69,404.252 c -0.86,-0.24 -1.75,0.25 -2,1.11 -1.09,3.81 -2.31,7.58 -3.66,11.28 -0.3,0.83 0.13,1.76 0.97,2.06 0.83,0.31 1.76,-0.13 2.06,-0.96 1.38,-3.77 2.62,-7.61 3.73,-11.49 0.25,-0.86 -0.25,-1.75 -1.1,-2 z"
           id="path50" />
        <path
           inkscape:connector-curvature="0"
           d="m 1168.68,310.432 c -0.25,-0.85 -1.14,-1.34 -1.99,-1.1 -0.86,0.25 -1.35,1.14 -1.11,2 1.09,3.78 2.06,7.61 2.89,11.5 0.18,0.87 1.04,1.42 1.91,1.24 0.87,-0.19 1.43,-1.05 1.24,-1.92 -0.85,-3.96 -1.83,-7.86 -2.94,-11.72 z"
           id="path52" />
        <path
           inkscape:connector-curvature="0"
           d="m 1159.71,426.822 c -0.81,-0.36 -1.76,0.01 -2.12,0.82 -1.62,3.62 -3.36,7.18 -5.21,10.66 -0.42,0.79 -0.12,1.77 0.66,2.18 0.79,0.42 1.76,0.13 2.18,-0.66 1.89,-3.55 3.66,-7.17 5.31,-10.87 0.36,-0.81 0,-1.76 -0.82,-2.13 z"
           id="path54" />
        <path
           inkscape:connector-curvature="0"
           d="m 1170.54,334.502 c 0.55,3.89 0.97,7.82 1.25,11.79 0.07,0.89 0.84,1.55 1.72,1.49 0.89,-0.06 1.56,-0.83 1.5,-1.72 -0.29,-4.04 -0.72,-8.05 -1.28,-12.01 -0.12,-0.88 -0.94,-1.5 -1.82,-1.37 -0.88,0.12 -1.49,0.94 -1.37,1.82 z"
           id="path56" />
        <path
           inkscape:connector-curvature="0"
           d="m 1148.66,448.062 c -0.76,-0.47 -1.75,-0.24 -2.22,0.51 -2.11,3.36 -4.32,6.64 -6.65,9.83 -0.52,0.72 -0.36,1.73 0.36,2.26 0.72,0.52 1.73,0.36 2.25,-0.36 2.37,-3.25 4.63,-6.59 6.77,-10.01 0.47,-0.76 0.24,-1.75 -0.51,-2.23 z"
           id="path58" />
        <path
           inkscape:connector-curvature="0"
           d="m 938.76,516.162 c -3.68,-1.49 -7.3,-3.1 -10.84,-4.83 -0.8,-0.39 -1.77,-0.06 -2.16,0.74 -0.39,0.8 -0.06,1.77 0.74,2.16 3.62,1.76 7.3,3.4 11.05,4.92 0.83,0.33 1.77,-0.07 2.1,-0.89 0.33,-0.83 -0.06,-1.77 -0.89,-2.1 z"
           id="path60" />
        <path
           inkscape:connector-curvature="0"
           d="m 1132.48,467.752 c -2.54,3.03 -5.19,5.96 -7.93,8.81 -0.62,0.64 -0.6,1.66 0.04,2.28 0.64,0.62 1.66,0.6 2.28,-0.04 2.79,-2.9 5.49,-5.89 8.08,-8.98 0.58,-0.68 0.49,-1.7 -0.19,-2.27 -0.69,-0.57 -1.7,-0.49 -2.28,0.2 z"
           id="path62" />
        <path
           inkscape:connector-curvature="0"
           d="m 1088.63,208.422 c -3.48,-2.01 -7.05,-3.9 -10.68,-5.67 -0.8,-0.39 -1.76,-0.05 -2.15,0.75 -0.39,0.8 -0.06,1.76 0.74,2.15 3.57,1.74 7.06,3.59 10.48,5.56 0.47,0.28 1.02,0.28 1.48,0.07 0.28,-0.35 0.58,-0.7 0.89,-1.05 0.18,-0.69 -0.12,-1.44 -0.76,-1.81 z"
           id="path64" />
        <path
           inkscape:connector-curvature="0"
           d="m 1172.41,380.802 c -0.88,-0.12 -1.69,0.49 -1.81,1.38 -0.55,3.93 -1.24,7.83 -2.05,11.67 -0.18,0.87 0.37,1.73 1.25,1.91 0.87,0.19 1.72,-0.37 1.91,-1.24 0.82,-3.92 1.52,-7.89 2.08,-11.9 0.12,-0.88 -0.49,-1.7 -1.38,-1.82 z"
           id="path66" />
        <path
           inkscape:connector-curvature="0"
           d="m 839.64,417.932 c 0.31,0.84 1.23,1.27 2.07,0.96 0.84,-0.3 1.27,-1.23 0.96,-2.07 -0.27,-0.74 -0.53,-1.47 -0.79,-2.21 h -3.41 c 0.38,1.11 0.77,2.22 1.17,3.32 z"
           id="path68" />
        <path
           inkscape:connector-curvature="0"
           d="m 1173.83,356.522 c -0.89,0.01 -1.61,0.73 -1.6,1.62 v 0.4 c 0,3.98 -0.14,7.93 -0.41,11.84 -0.06,0.89 0.61,1.66 1.5,1.72 0.89,0.06 1.66,-0.61 1.72,-1.49 0.27,-3.99 0.41,-8.02 0.41,-12.07 v -0.41 c 0,-0.89 -0.73,-1.61 -1.62,-1.61 z"
           id="path70" />
        <path
           inkscape:connector-curvature="0"
           d="m 984.66,527.542 c -3.96,-0.41 -7.87,-0.95 -11.74,-1.63 -0.88,-0.15 -1.71,0.43 -1.87,1.31 -0.15,0.88 0.44,1.71 1.31,1.87 3.95,0.68 7.94,1.24 11.97,1.65 0.89,0.1 1.68,-0.55 1.77,-1.43 0.09,-0.89 -0.55,-1.68 -1.44,-1.77 z"
           id="path72" />
        <path
           inkscape:connector-curvature="0"
           d="m 1031.92,525.882 c -3.87,0.68 -7.79,1.22 -11.74,1.64 -0.89,0.09 -1.53,0.88 -1.44,1.77 0.09,0.88 0.88,1.53 1.77,1.43 4.03,-0.42 8.02,-0.98 11.96,-1.67 0.88,-0.15 1.47,-0.99 1.31,-1.87 -0.15,-0.87 -0.99,-1.46 -1.86,-1.3 z"
           id="path74" />
        <path
           inkscape:connector-curvature="0"
           d="m 1116.02,484.802 c -2.94,2.64 -5.96,5.18 -9.08,7.62 -0.7,0.55 -0.82,1.56 -0.28,2.27 0.55,0.7 1.57,0.82 2.27,0.27 3.17,-2.48 6.26,-5.07 9.25,-7.77 0.66,-0.59 0.71,-1.61 0.11,-2.28 -0.59,-0.66 -1.61,-0.71 -2.27,-0.11 z"
           id="path76" />
        <path
           inkscape:connector-curvature="0"
           d="m 1054.91,520.152 c -3.74,1.22 -7.55,2.31 -11.4,3.27 -0.86,0.21 -1.39,1.09 -1.17,1.95 0.21,0.86 1.09,1.39 1.95,1.17 3.93,-0.97 7.8,-2.08 11.62,-3.32 0.84,-0.28 1.31,-1.19 1.03,-2.04 -0.28,-0.84 -1.18,-1.31 -2.03,-1.03 z"
           id="path78" />
        <path
           inkscape:connector-curvature="0"
           d="m 961.32,523.472 v -0.01 c -3.86,-0.95 -7.66,-2.04 -11.4,-3.25 -0.85,-0.27 -1.76,0.19 -2.03,1.04 -0.28,0.84 0.19,1.75 1.03,2.03 3.82,1.23 7.7,2.34 11.62,3.31 0.87,0.22 1.74,-0.31 1.96,-1.17 0.21,-0.87 -0.32,-1.74 -1.18,-1.95 z"
           id="path80" />
        <path
           inkscape:connector-curvature="0"
           d="m 1008.35,528.342 c -2,0.07 -4.01,0.1 -6.03,0.1 -1.95,0 -3.9,-0.03 -5.83,-0.09 -0.89,-0.03 -1.64,0.66 -1.67,1.55 -0.03,0.89 0.67,1.64 1.56,1.67 1.97,0.06 3.95,0.1 5.94,0.1 2.05,0 4.1,-0.04 6.14,-0.11 0.89,-0.03 1.59,-0.78 1.56,-1.67 -0.03,-0.89 -0.78,-1.58 -1.67,-1.55 z"
           id="path82" />
        <path
           inkscape:connector-curvature="0"
           d="m 1097.36,499.402 c -3.27,2.21 -6.62,4.31 -10.05,6.29 -0.77,0.45 -1.03,1.43 -0.58,2.2 0.44,0.77 1.43,1.04 2.2,0.59 3.49,-2.02 6.9,-4.16 10.23,-6.41 0.74,-0.5 0.93,-1.5 0.44,-2.24 -0.5,-0.74 -1.51,-0.93 -2.24,-0.43 z"
           id="path84" />
        <path
           inkscape:connector-curvature="0"
           d="m 1076.86,511.262 c -3.54,1.73 -7.14,3.34 -10.81,4.83 -0.06,0.02 -0.12,0.05 -0.17,0.09 -0.3,0.79 -0.54,1.45 -0.74,1.95 0,0.02 0.01,0.04 0.02,0.06 0.33,0.82 1.27,1.22 2.1,0.89 3.74,-1.52 7.41,-3.16 11.02,-4.92 0.8,-0.39 1.13,-1.36 0.74,-2.16 -0.39,-0.8 -1.36,-1.13 -2.16,-0.74 z"
           id="path86" />
        <path
           inkscape:connector-curvature="0"
           d="m 1129.727,268.978 c 0.58,-0.277 1.06,-0.712 1.49,-1.178 0.824,-0.966 1.372,-2.117 1.71,-3.313 0.342,-1.198 0.455,-2.443 0.403,-3.692 -0.057,-1.251 -0.315,-2.51 -0.846,-3.726 -0.543,-1.185 -1.344,-2.447 -2.876,-3.175 -0.76,-0.347 -1.718,-0.447 -2.541,-0.193 -0.833,0.238 -1.474,0.744 -1.943,1.277 -0.93,1.093 -1.296,2.339 -1.495,3.532 -0.145,1.21 -0.1,2.405 0.221,3.531 0.329,-1.119 0.67,-2.172 1.156,-3.118 0.456,-0.942 1.074,-1.793 1.736,-2.301 0.706,-0.506 1.197,-0.496 1.657,-0.218 0.495,0.292 1.042,1.011 1.394,1.855 0.742,1.698 0.996,3.794 0.859,5.803 -0.091,1.002 -0.247,2.029 -0.649,2.953 -0.378,0.922 -0.949,1.834 -2.082,2.182 0.567,0.17 1.236,0.062 1.806,-0.219 z"
           id="path88" />
        <path
           inkscape:connector-curvature="0"
           d="m 1081.12,459.582 c 0,-0.91 -0.01,-1.81 -0.03,-2.7 0,-0.37 -0.01,-0.74 -0.02,-1.11 -0.02,-0.76 -0.04,-1.51 -0.07,-2.26 -0.04,-0.92 -0.08,-1.84 -0.13,-2.75 -0.01,-0.18 -0.02,-0.35 -0.03,-0.52 -0.06,-0.86 -0.12,-1.7 -0.18,-2.54 -0.15,-1.9 -0.33,-3.76 -0.54,-5.57 -0.1,-0.91 -0.22,-1.8 -0.34,-2.69 -0.1,-0.81 -0.22,-1.62 -0.34,-2.41 -0.02,-0.16 -0.04,-0.31 -0.07,-0.47 -0.12,-0.78 -0.24,-1.54 -0.37,-2.29 -0.41,-2.39 -0.86,-4.69 -1.35,-6.89 -0.04,-0.21 -0.09,-0.41 -0.14,-0.61 -0.12,-0.55 -0.24,-1.09 -0.37,-1.62 -0.49,-2.09 -1.01,-4.09 -1.56,-5.99 -0.08,-0.29 -0.16,-0.57 -0.24,-0.85 0,-0.008 0,-0.014 0,-0.017 2.154,-0.662 4.364,-1.784 6.632,-3.272 4.361,-2.869 8.93,-7.028 13.379,-11.663 9.559,-9.967 18.541,-22.154 22.866,-28.261 v 54.568 c 0,0.388 0.157,0.767 0.431,1.041 0.274,0.274 0.653,0.431 1.041,0.431 h 14.89 c 0.388,0 0.767,-0.157 1.041,-0.431 0.274,-0.274 0.431,-0.653 0.431,-1.041 v -73.159 c 0.165,-0.052 0.336,-0.099 0.499,-0.153 2.451,-0.814 4.687,-1.779 6.368,-3.068 1.285,-0.989 2.131,-2.306 2.628,-3.7 0.5,-1.398 0.676,-2.881 0.677,-4.342 0,-2.626 -0.572,-5.208 -1.13,-7.163 -0.349,-1.216 -0.696,-2.186 -0.912,-2.755 0.498,-1.421 0.695,-2.869 0.695,-4.241 0,-2.514 -0.62,-4.811 -1.225,-6.5 -0.607,-1.688 -1.211,-2.77 -1.239,-2.821 -0.041,-0.073 -0.09,-0.137 -0.14,-0.2 0.026,-0.115 0.058,-0.23 0.08,-0.345 0.169,-0.948 0.248,-1.83 0.248,-2.651 0,-1.806 -0.387,-3.321 -1.002,-4.535 -0.922,-1.828 -2.313,-2.935 -3.443,-3.566 -1.078,-0.602 -1.93,-0.8 -2.103,-0.838 v -5.974 h 2.415 c 0.388,0 0.767,-0.157 1.041,-0.431 0.274,-0.274 0.431,-0.653 0.431,-1.041 v -24.309 h 27.354 c 0.586,0 1.12,-0.351 1.352,-0.889 l 5.074,-11.774 c 0.197,-0.456 0.151,-0.976 -0.122,-1.391 -0.273,-0.415 -0.733,-0.663 -1.229,-0.663 h -3.08 c 1.202,-5.248 2.765,-14.004 2.767,-23.689 -10e-4,-6.867 -0.786,-14.202 -3.086,-21.083 -2.298,-6.876 -6.136,-13.313 -12.218,-18.235 l -0.08,-0.06 -21.244,-14.92 c -0.427,-0.299 -0.986,-0.351 -1.46,-0.133 -0.026,0.013 -9.516,4.365 -19.92,10.459 -5.203,3.048 -10.635,6.529 -15.247,10.146 -2.306,1.809 -4.408,3.652 -6.179,5.507 -1.77,1.856 -3.213,3.72 -4.183,5.615 -1.991,3.931 -2.631,9.282 -2.642,15.147 0,8.407 1.399,17.865 2.788,25.253 1.102,5.853 2.201,10.387 2.613,12.033 l -2.695,0.052 c -0.457,0.009 -0.879,0.226 -1.152,0.592 -0.273,0.366 -0.36,0.833 -0.238,1.273 l 3.045,10.962 c 0.215,0.775 1.01,1.233 1.788,1.03 l 26.307,-6.838 0.01,0.344 c 0,10e-4 0,0.002 0,0.003 v 0.001 l 0.467,25.596 c 0.014,0.765 0.608,1.375 1.357,1.434 v 3.1 c -0.191,-0.098 -0.38,-0.199 -0.577,-0.285 -1.215,-0.531 -2.555,-0.833 -3.978,-0.831 -0.138,0 -0.276,0.003 -0.414,0.008 -1.615,0.059 -3.075,0.722 -4.248,1.732 -1.033,0.885 -1.882,2.021 -2.613,3.323 -1.274,2.28 -2.199,5.086 -2.912,8.118 -1.065,4.545 -1.635,9.6 -1.948,14.021 -0.311,4.42 -0.36,8.202 -0.361,10.166 0,0.489 0,0.854 0.01,1.099 -0.617,1.436 -1.623,3.009 -2.957,4.637 -2.461,3.011 -5.975,6.192 -9.851,9.229 -5.815,4.56 -12.44,8.813 -17.601,11.915 -2.581,1.551 -4.796,2.816 -6.364,3.692 -0.546,0.305 -1.008,0.56 -1.385,0.766 0.685,-1.57 1.298,-3.103 1.839,-4.547 1.982,-5.301 3.001,-9.425 3.131,-9.962 1.439,-4.138 2.021,-8.073 2.02,-11.699 -10e-4,-6.709 -1.971,-12.327 -4.048,-16.417 1.36,-0.136 3.623,-0.315 6.14,-0.314 1.944,0 4.028,0.108 5.914,0.414 1.886,0.301 3.568,0.818 4.678,1.515 0.69,0.429 1.598,0.217 2.027,-0.473 0.429,-0.69 0.217,-1.598 -0.473,-2.027 -1.646,-1.016 -3.651,-1.575 -5.762,-1.921 -2.11,-0.341 -4.332,-0.451 -6.384,-0.452 -3.764,10e-4 -6.955,0.375 -7.697,0.469 -0.603,-0.982 -1.171,-1.817 -1.666,-2.493 0.766,-0.381 2.533,-1.215 4.874,-2.033 2.998,-1.051 6.917,-2.053 10.737,-2.05 2.485,0 4.915,0.418 7.067,1.463 0.731,0.355 1.612,0.049 1.966,-0.682 0.355,-0.731 0.049,-1.612 -0.682,-1.966 -2.66,-1.289 -5.542,-1.757 -8.351,-1.758 -4.464,0.004 -8.782,1.172 -12.014,2.323 -2.031,0.726 -3.629,1.448 -4.548,1.892 0.093,-0.571 0.181,-1.142 0.262,-1.712 0.061,-0.019 0.122,-0.035 0.181,-0.062 v 0 c 0,0 0.043,-0.02 0.136,-0.062 0.693,-0.312 3.961,-1.754 7.953,-3.107 1.995,-0.677 4.172,-1.331 6.286,-1.811 2.113,-0.482 4.167,-0.785 5.877,-0.783 1.239,-0.002 2.288,0.163 3.029,0.463 0.755,0.302 1.611,-0.065 1.913,-0.82 0.302,-0.755 -0.065,-1.611 -0.82,-1.913 -1.248,-0.496 -2.641,-0.671 -4.123,-0.673 -2.182,0.002 -4.577,0.393 -6.98,0.961 -5.264,1.251 -10.555,3.373 -13.037,4.43 0.446,-4.173 0.621,-8.244 0.622,-12.04 0,-2.233 -0.062,-4.365 -0.16,-6.374 0,0 10e-4,-10e-4 0,-10e-4 v -0.01 c 0.08,-0.05 0.15,-0.09 0.22,-0.14 0.07,-0.05 0.14,-0.11 0.21,-0.17 0.09,-0.05 0.17,-0.12 0.25,-0.18 0.19,-0.15 0.37,-0.29 0.55,-0.45 0.01,0 0.01,-0.01 0.02,-0.02 0.22,-0.19 0.44,-0.38 0.65,-0.59 0.2,-0.19 0.4,-0.39 0.6,-0.6 0.18,-0.19 0.36,-0.39 0.54,-0.6 0.12,-0.14 0.24,-0.28 0.35,-0.43 0.13,-0.15 0.25,-0.3 0.37,-0.46 0.17,-0.21 0.32,-0.43 0.48,-0.65 0.08,-0.11 0.15,-0.22 0.23,-0.33 0.14,-0.21 0.28,-0.42 0.42,-0.64 0.14,-0.23 0.28,-0.45 0.42,-0.69 0.21,-0.35 0.41,-0.72 0.6,-1.09 0.16,-0.31 0.32,-0.63 0.47,-0.95 0.14,-0.28 0.27,-0.57 0.39,-0.86 0.16,-0.37 0.32,-0.75 0.47,-1.14 0.13,-0.34 0.26,-0.7 0.38,-1.05 1.22,-3.55 1.91,-7.62 1.91,-11.95 0,-13.84 -7.09,-25.07 -15.84,-25.07 -8.74,0 -15.83,11.23 -15.83,25.07 0,0.49 0.01,0.98 0.03,1.47 0,0.08 0,0.15 0.01,0.22 0.02,0.46 0.04,0.92 0.08,1.37 0.03,0.44 0.07,0.89 0.13,1.33 0,0.1 0.01,0.2 0.03,0.29 0.05,0.4 0.1,0.81 0.16,1.2 0.08,0.53 0.17,1.06 0.27,1.57 0.1,0.46 0.2,0.92 0.3,1.37 0.11,0.45 0.22,0.89 0.34,1.33 0.01,0.03 0.02,0.06 0.03,0.09 0.11,0.4 0.24,0.81 0.36,1.2 0.01,0.04 0.02,0.07 0.03,0.09 0.12,0.35 0.24,0.69 0.36,1.03 0.18,0.49 0.36,0.96 0.56,1.42 0.15,0.35 0.3,0.69 0.46,1.02 0.21,0.46 0.44,0.91 0.68,1.34 0.17,0.32 0.35,0.63 0.53,0.94 0.15,0.24 0.29,0.47 0.44,0.7 0.13,0.2 0.25,0.38 0.39,0.57 0.39,0.58 0.82,1.13 1.25,1.64 v 0 c -4.344,6.528 -9.522,12.059 -14.841,16.659 -0.022,-0.069 -0.044,-0.138 -0.078,-0.205 -1.776,-3.556 -4.393,-6.331 -7.414,-8.461 -4.536,-3.197 -9.972,-4.987 -15.132,-6.004 -5.161,-1.015 -10.059,-1.249 -13.541,-1.25 -3.095,0 -5.07,0.187 -5.106,0.191 l -0.043,0.005 c -10.653,1.33 -18.875,4.453 -25.183,8.543 -9.47,6.134 -14.57,14.415 -17.262,21.808 -2.697,7.399 -3.031,13.93 -3.033,16.785 0,0.952 0.038,1.495 0.04,1.526 0,0.001 0,0.001 0,0.001 -1.08,-0.881 -2.828,-2.226 -4.989,-3.583 -1.826,-1.146 -3.944,-2.299 -6.213,-3.177 -2.269,-0.876 -4.693,-1.484 -7.142,-1.486 -2.385,-0.004 -4.812,0.6 -6.964,2.108 -2.644,1.847 -4.419,3.76 -5.527,5.708 -1.11,1.945 -1.522,3.912 -1.518,5.722 10e-4,1.652 0.327,3.176 0.717,4.535 0.391,1.358 0.848,2.564 1.145,3.546 0.583,1.928 1.614,3.757 3.257,5.106 1.638,1.353 3.863,2.155 6.552,2.148 2.371,-10e-4 5.113,-0.592 8.318,-1.891 2.533,-1.028 5.365,-2.51 8.529,-4.513 -0.048,0.794 -0.081,1.581 -0.081,2.35 -0.001,5.021 1.003,9.501 2.758,13.459 2.632,5.942 6.929,10.689 11.946,14.505 0.34,0.258 0.691,0.502 1.037,0.753 -1.14,0.216 -2.515,0.333 -4.041,0.326 -4.358,0.003 -9.867,-0.839 -14.766,-1.866 -4.897,-1.024 -9.224,-2.238 -11.22,-2.922 -4.872,-1.667 -10.365,-3.365 -11.586,-3.74 -0.499,-0.414 -1.007,-0.787 -1.535,-1.082 -1.364,-0.766 -2.817,-1.116 -4.239,-1.113 -2.602,0.008 -5.04,1.103 -7.247,2.607 -3.311,2.269 -6.188,5.536 -8.286,8.247 -0.791,1.024 -1.466,1.968 -2.003,2.75 l -16.554,-59.83 c -0.001,-0.003 -0.003,-0.005 -0.003,-0.007 -0.03,-0.105 -0.069,-0.209 -0.123,-0.309 -0.02,-0.038 -0.047,-0.069 -0.07,-0.105 -0.017,-0.026 -0.032,-0.051 -0.05,-0.075 -0.089,-0.122 -0.191,-0.23 -0.306,-0.319 -0.013,-0.01 -0.028,-0.018 -0.042,-0.028 -0.119,-0.085 -0.248,-0.153 -0.384,-0.202 -0.014,-0.005 -0.027,-0.012 -0.041,-0.017 -0.145,-0.047 -0.297,-0.067 -0.45,-0.07 -0.016,0 -0.029,-0.007 -0.045,-0.007 l -75.905,0.877 c -0.433,0.005 -0.85,0.194 -1.139,0.516 l -5.139,5.726 c -0.344,0.383 -0.476,0.913 -0.352,1.413 l 14.775,59.498 c 0.172,0.692 0.795,1.18 1.508,1.18 h 4.911 l 0.174,6.469 c 0.023,0.844 0.709,1.512 1.554,1.512 h 68.869 c 0.622,0.478 1.44,1.047 2.465,1.623 2.423,1.36 5.961,2.726 10.374,2.726 2.613,0.003 5.52,-0.488 8.646,-1.705 0.08,0.188 0.194,0.363 0.355,0.509 v 0 c 0.044,0.039 7.368,6.712 18.237,13.465 10.732,6.655 24.905,13.423 39.107,13.841 0,10e-4 0,0 0,0.007 0.03,0.71 0.05,1.46 0.07,2.24 0.01,0.42 0.03,0.85 0.03,1.29 0.01,0.03 0.01,0.08 0,0.12 0,0 0.01,0.01 0,0.02 0.01,0.32 0.02,0.65 0.02,0.99 0.02,1 0.03,2.03 0.03,3.1 0,0.56 0,1.13 -0.01,1.71 0,1.03 -0.02,2.08 -0.05,3.16 -0.04,1.64 -0.1,3.34 -0.19,5.09 -0.03,0.58 -0.06,1.16 -0.1,1.75 -0.03,0.59 -0.07,1.19 -0.12,1.79 -0.03,0.45 -0.06,0.9 -0.1,1.36 -0.04,0.55 -0.09,1.11 -0.14,1.67 -0.09,1.03 -0.19,2.07 -0.3,3.11 -0.04,0.38 -0.09,0.76 -0.13,1.14 -0.23,2.02 -0.5,4.06 -0.83,6.11 -0.07,0.52 -0.16,1.04 -0.25,1.56 -0.11,0.7 -0.24,1.4 -0.37,2.1 -0.1,0.58 -0.21,1.16 -0.33,1.74 -0.25,1.29 -0.53,2.59 -0.83,3.88 -0.14,0.63 -0.29,1.25 -0.45,1.87 -0.15,0.63 -0.31,1.25 -0.48,1.88 -0.21,0.77 -0.42,1.53 -0.64,2.29 -0.27,0.91 -0.55,1.81 -0.84,2.71 -0.1,0.3 -0.2,0.61 -0.3,0.91 -0.44,1.31 -0.91,2.61 -1.41,3.89 -0.4,1.05 -0.83,2.09 -1.28,3.11 -0.5,1.14 -1.03,2.26 -1.58,3.36 h -0.01 c -0.01,0.04 -0.03,0.08 -0.05,0.11 -0.28,0.57 -0.58,1.13 -0.88,1.69 -0.14,0.26 -0.19,0.54 -0.16,0.81 0,0.05 0,0.09 0.01,0.13 0.83,0.27 1.66,0.53 2.5,0.79 0.09,-0.1 0.17,-0.21 0.24,-0.33 0.28,-0.52 0.55,-1.05 0.82,-1.58 0.13,-0.24 0.25,-0.48 0.36,-0.73 0.27,-0.54 0.53,-1.09 0.79,-1.64 0.05,-0.1 0.1,-0.21 0.14,-0.31 0.23,-0.51 0.46,-1.02 0.68,-1.54 0.26,-0.59 0.5,-1.18 0.75,-1.78 0.49,-1.19 0.94,-2.4 1.37,-3.62 1.3,-3.65 2.37,-7.41 3.25,-11.18 0.13,-0.57 0.26,-1.15 0.39,-1.73 0.47,-2.14 0.88,-4.28 1.23,-6.42 0.11,-0.66 0.21,-1.31 0.31,-1.96 0.17,-1.06 0.32,-2.12 0.46,-3.18 0.07,-0.57 0.14,-1.15 0.21,-1.72 0.07,-0.52 0.13,-1.05 0.18,-1.57 0.09,-0.82 0.18,-1.63 0.25,-2.43 0.05,-0.49 0.09,-0.97 0.13,-1.46 0.04,-0.37 0.07,-0.74 0.09,-1.1 0.05,-0.58 0.09,-1.15 0.13,-1.72 0.35,-4.93 0.48,-9.57 0.48,-13.72 0,-10.97 -0.88,-18.48 -0.89,-18.52 -0.09,-0.81 -0.82,-1.38 -1.63,-1.29 -0.81,0.1 -1.39,0.83 -1.29,1.63 0,0 0.01,0.11 0.03,0.33 0.04,0.38 0.12,1.1 0.2,2.11 0.02,0.23 0.04,0.48 0.06,0.75 0.1,1.15 0.2,2.59 0.29,4.27 0,0.001 0,0.001 0,0.002 -13.241,-0.432 -26.98,-6.897 -37.414,-13.391 -4.401,-2.734 -8.204,-5.455 -11.162,-7.711 0.768,-0.696 1.466,-1.53 2.114,-2.424 1.527,-2.119 2.778,-4.549 3.399,-5.831 l 23.939,-1.425 c 0.426,-0.025 0.821,-0.223 1.096,-0.55 0.275,-0.326 0.403,-0.749 0.356,-1.173 l -0.857,-7.709 c -0.088,-0.788 -0.752,-1.382 -1.545,-1.382 h -22.986 c 0.342,-1.335 0.503,-2.602 0.503,-3.76 0,-2.397 -0.599,-4.346 -1.206,-5.708 2.19,0.695 4.927,1.581 7.475,2.453 2.183,0.746 6.549,1.966 11.57,3.018 5.019,1.049 10.651,1.926 15.369,1.929 2.766,-0.01 5.212,-0.287 7.169,-1.158 3.922,2.456 8.114,4.469 12.252,6.144 0.753,0.305 1.611,-0.059 1.916,-0.812 0.305,-0.753 -0.059,-1.612 -0.812,-1.916 -7.317,-2.957 -14.697,-6.964 -20.175,-12.49 -2.742,-2.763 -5.012,-5.899 -6.602,-9.487 -1.589,-3.59 -2.504,-7.636 -2.506,-12.267 0,-1.616 0.112,-3.303 0.348,-5.066 0.353,-2.63 1.245,-4.982 2.555,-7.124 2.289,-3.744 5.896,-6.841 10.077,-9.342 6.265,-3.756 13.776,-6.151 19.699,-7.578 2.962,-0.715 5.528,-1.192 7.348,-1.489 0.91,-0.148 1.633,-0.252 2.126,-0.318 0.247,-0.033 0.436,-0.057 0.562,-0.072 0.126,-0.015 0.183,-0.021 0.183,-0.021 0.808,-0.089 1.391,-0.816 1.303,-1.623 -0.089,-0.808 -0.815,-1.391 -1.623,-1.302 v 0 c -0.069,0.01 -10.354,1.132 -21.137,5.165 -5.393,2.021 -10.919,4.767 -15.367,8.545 -0.771,0.656 -1.495,1.356 -2.194,2.077 0,-3.536 0.598,-13.355 6.191,-22.817 2.808,-4.755 6.86,-9.431 12.76,-13.258 5.898,-3.822 13.659,-6.803 23.929,-8.09 l 0.05,-0.004 c 0.378,-0.032 2.148,-0.171 4.752,-0.171 4.463,-0.003 11.379,0.414 17.884,2.419 3.252,1 6.397,2.394 9.091,4.297 2.697,1.906 4.944,4.305 6.479,7.372 0.142,0.285 0.366,0.5 0.627,0.639 -3.58,2.924 -7.177,5.442 -10.579,7.574 -5.356,3.359 -10.217,5.766 -13.729,7.33 -1.756,0.782 -3.175,1.353 -4.151,1.727 -0.488,0.187 -0.864,0.325 -1.117,0.415 -0.126,0.045 -0.221,0.078 -0.284,0.1 l -0.087,0.03 c -0.771,0.257 -1.188,1.091 -0.931,1.862 0.257,0.771 1.091,1.188 1.862,0.931 v 0 c 0.076,-0.026 9.004,-3.005 20.001,-9.9 9.252,-5.805 19.979,-14.405 28.078,-26.388 0,0 0,0 0,0 l 0.01,0.01 c 0.01,0.01 0.01,0.02 0.02,0.01 0.24,0.2 0.48,0.38 0.72,0.56 0.37,0.27 0.76,0.52 1.15,0.74 0.14,0.08 0.28,0.16 0.42,0.22 0.23,0.12 0.45,0.23 0.69,0.33 0.15,0.07 0.3,0.13 0.45,0.19 0.23,0.1 0.47,0.18 0.7,0.25 0.19,0.06 0.38,0.12 0.58,0.16 0.3,0.08 0.61,0.15 0.92,0.19 0.2,0.04 0.4,0.06 0.61,0.08 0,0 0,0 0.01,0 0.1,0.01 0.2,0.02 0.3,0.03 0.22,0.01 0.44,0.02 0.67,0.02 0.29,0 0.59,-0.01 0.88,-0.04 0.36,-0.03 0.71,-0.08 1.06,-0.16 0.22,-0.03 0.43,-0.08 0.64,-0.14 0.02,0 0.04,0 0.06,-0.01 0.23,-0.06 0.46,-0.13 0.68,-0.21 0.039,-0.01 0.068,-0.02 0.106,-0.039 0.061,1.572 0.099,3.206 0.099,4.904 0,9.362 -1.077,20.38 -4.772,30.223 -2.722,7.295 -9.338,15.444 -17.843,21.667 -8.503,6.239 -18.865,10.557 -28.999,10.549 -5.43,-0.002 -10.798,-1.222 -15.88,-4.039 -4.794,-2.661 -9.342,-6.778 -13.414,-12.695 0.765,-0.581 1.456,-1.016 1.98,-1.311 0.335,-0.188 0.603,-0.322 0.781,-0.406 l 0.196,-0.089 0.042,-0.018 0.002,-10e-4 c 0.755,-0.302 1.122,-1.158 0.82,-1.913 -0.302,-0.755 -1.158,-1.122 -1.913,-0.82 v 0 c -0.101,0.042 -2.073,0.839 -4.443,2.811 -2.366,1.969 -5.136,5.14 -6.709,9.864 -0.257,0.771 0.16,1.605 0.931,1.862 0.771,0.257 1.605,-0.16 1.862,-0.931 1.031,-3.091 2.635,-5.394 4.24,-7.073 2.095,3.003 4.328,5.588 6.674,7.772 -0.266,0.457 -0.282,1.04 0.019,1.52 v 0 c 0,0.001 0.131,0.209 0.367,0.589 0.826,1.332 2.929,4.751 5.061,8.445 1.066,1.847 2.14,3.762 3.062,5.513 0.922,1.749 1.695,3.343 2.146,4.494 0.668,1.709 1.771,3.096 3.173,4.027 1.4,0.934 3.076,1.403 4.84,1.401 3.364,-0.007 7.045,-1.645 10.418,-4.909 5.893,-5.712 11.774,-13.147 12.995,-14.709 4.797,-1.931 9.359,-4.534 13.49,-7.56 8.89,-6.529 15.83,-14.965 18.859,-23.007 1.1,-2.937 1.969,-5.954 2.658,-8.988 0.684,0.979 1.481,2.23 2.277,3.736 2.023,3.827 4.003,9.22 4.002,15.635 0,3.339 -0.533,6.96 -1.884,10.815 l -0.044,0.149 -0.019,0.077 c -0.202,0.835 -2.094,8.364 -5.775,16.143 -1.838,3.889 -4.124,7.836 -6.823,11.026 -2.7,3.198 -5.789,5.606 -9.2,6.595 -0.781,0.227 -1.229,1.044 -1.002,1.825 0.227,0.78 1.044,1.229 1.825,1.001 4.32,-1.264 7.916,-4.235 10.908,-7.859 2.625,-3.188 4.797,-6.906 6.582,-10.578 0.446,0.398 1.106,0.503 1.666,0.207 v 0 c 0.027,-0.015 8.7,-4.599 18.098,-10.908 4.7,-3.157 9.582,-6.742 13.673,-10.432 2.046,-1.846 3.895,-3.718 5.428,-5.592 1.532,-1.875 2.753,-3.749 3.519,-5.638 0.073,-0.182 0.111,-0.387 0.107,-0.582 0,0 0,-0.118 0,-0.353 0,-0.235 -0.01,-0.582 -0.01,-1.027 0,-3.331 0.151,-12.153 1.534,-20.075 0.685,-3.956 1.694,-7.688 3.053,-10.314 0.676,-1.314 1.434,-2.339 2.214,-3.003 0.788,-0.664 1.551,-0.987 2.454,-1.029 0.1,-0.004 0.199,-0.006 0.296,-0.006 1.158,0.002 2.19,0.269 3.17,0.759 1.708,0.853 3.254,2.445 4.565,4.467 1.884,2.891 3.25,6.602 4.138,9.851 -0.166,0.299 -0.333,0.597 -0.502,0.898 -2.546,-2.131 -6.266,-4.167 -11.296,-4.595 -0.81,-0.069 -1.523,0.531 -1.592,1.341 -0.069,0.81 0.531,1.523 1.341,1.592 4.641,0.402 7.87,2.329 10.059,4.278 -2.115,3.668 -4.356,7.332 -6.406,10.259 -1.029,1.47 -2.01,2.753 -2.885,3.746 -0.868,0.992 -1.656,1.69 -2.148,1.97 -0.636,0.372 -0.899,1.163 -0.613,1.842 0.286,0.679 1.036,1.043 1.746,0.847 0.905,-0.25 1.923,-0.673 3.072,-1.238 1.31,-0.647 2.797,-1.501 4.362,-2.485 -1.245,1.437 -2.682,2.806 -3.917,3.888 -0.836,0.733 -1.579,1.339 -2.111,1.76 -0.266,0.21 -0.479,0.374 -0.623,0.484 l -0.164,0.124 -0.051,0.038 c -0.52,0.381 -0.73,1.056 -0.521,1.665 0.21,0.609 0.791,1.011 1.435,0.992 1.939,-0.06 4.243,-0.542 6.738,-1.308 0.957,-0.295 1.94,-0.634 2.933,-1.01 -0.297,0.409 -0.61,0.825 -0.947,1.247 -1.401,1.756 -3.069,3.558 -4.379,4.91 -0.655,0.676 -1.222,1.242 -1.623,1.636 -0.201,0.197 -0.36,0.352 -0.468,0.457 -0.109,0.105 -0.164,0.157 -0.164,0.157 0,0.003 0,0.008 -0.01,0.011 -0.097,0.094 -0.177,0.203 -0.246,0.321 -0.014,0.024 -0.026,0.047 -0.038,0.071 -0.061,0.12 -0.11,0.246 -0.137,0.382 -10e-4,0.004 0,0.008 -10e-4,0.012 -0.016,0.088 -0.027,0.177 -0.027,0.27 v 11.735 c -0.022,0.033 -0.041,0.061 -0.067,0.098 -1.569,2.302 -8.815,12.777 -17.625,23.156 -4.403,5.189 -9.2,10.353 -13.843,14.445 -2.32,2.046 -4.602,3.822 -6.76,5.198 -1.944,1.242 -3.778,2.131 -5.432,2.64 v -0.001 c -0.01,-0.02 -0.02,-0.04 -0.02,-0.06 -0.25,-0.8 -0.5,-1.58 -0.75,-2.33 -0.26,-0.78 -0.52,-1.53 -0.78,-2.26 -2.04,-5.8 -4.09,-10.37 -5.62,-13.57 -0.77,-1.59 -1.41,-2.85 -1.85,-3.73 -0.22,-0.44 -0.38,-0.78 -0.48,-1.01 -0.02,-0.04 -0.04,-0.08 -0.05,-0.11 0,-0.01 0,-0.01 0,-0.01 -0.01,-0.01 -0.01,-0.01 -0.01,-0.02 0,-0.07 -0.01,-0.13 -0.03,-0.2 -0.01,-0.05 -0.03,-0.09 -0.05,-0.14 -0.03,-0.12 -0.09,-0.23 -0.17,-0.34 -0.46,-0.67 -1.38,-0.83 -2.05,-0.36 -0.3,0.21 -0.48,0.51 -0.56,0.73 -0.07,0.23 -0.08,0.4 -0.08,0.52 0,0.21 0.03,0.32 0.05,0.43 0.05,0.19 0.1,0.32 0.16,0.47 0.22,0.53 0.59,1.26 1.13,2.33 1.85,3.71 5.56,11.22 8.81,22.03 3.25,10.81 6.04,24.9 6.04,41.73 0,11.07 -1.2,23.31 -4.29,36.59 -0.29,1.25 -0.6,2.51 -0.92,3.78 1.17,-0.59 2.32,-1.18 3.47,-1.8 0.31,-1.28 0.61,-2.55 0.87,-3.82 2.731,-12.544 3.811,-24.184 3.811,-34.754 z m -182.695,-46.56 c -2.808,0 -5.197,-0.642 -7.102,-1.452 l 16.834,-1.002 c -3.663,1.814 -6.918,2.45 -9.732,2.454 z m -9.31,-4.514 h -2.663 l -0.092,-0.087 -0.029,-0.028 -10e-4,-10e-4 c -0.567,-0.582 -1.499,-0.595 -2.081,-0.028 -0.043,0.042 -0.061,0.098 -0.098,0.144 h -65.92 l -0.13,-4.844 64.545,0.613 c 0.034,0 0.065,-0.007 0.099,-0.009 0.048,-0.003 0.096,-0.006 0.143,-0.013 0.059,-0.009 0.117,-0.022 0.173,-0.037 0.027,-0.007 0.055,-0.009 0.082,-0.017 l 6.768,-2.21 z m -72.612,-7.982 h -5.209 l -14.007,-56.403 69.449,-2.083 13.956,59.109 -64.03,-0.608 c -0.053,-0.004 -0.105,-0.015 -0.159,-0.015 z m 58.863,-62.263 16.547,59.803 -2.539,0.829 -9.711,-38.926 c -0.208,-0.833 -1.051,-1.339 -1.884,-1.132 -0.833,0.207 -1.339,1.051 -1.132,1.884 l 9.765,39.141 -2.628,0.858 -14.039,-59.463 z m -74.223,0.14 68.843,-0.795 -2.439,1.299 -68.705,2.06 z m 142.546,66.934 -51.429,3.062 0.913,-7.475 0.882,-0.288 h 49.112 z m -47.18,-7.809 c 0.996,-1.481 2.678,-3.827 4.746,-6.108 0.17,-0.188 0.352,-0.37 0.526,-0.556 0.016,0.007 0.03,0.018 0.047,0.025 v 0 l 0.019,0.008 c 0.241,0.097 2.682,1.124 5.044,2.72 1.18,0.795 2.336,1.733 3.181,2.715 0.345,0.399 0.618,0.8 0.845,1.196 z m 20.335,14.753 c -0.63,1.02 -1.339,2.036 -2.033,2.823 -0.393,0.455 -0.784,0.811 -1.128,1.07 -1.262,-1.007 -2.287,-1.86 -3.006,-2.473 -0.344,-0.294 -0.603,-0.52 -0.81,-0.701 1.288,-0.66 2.606,-1.441 3.952,-2.369 0.169,-0.116 0.306,-0.262 0.409,-0.426 l 3.935,-0.234 c -0.375,0.707 -0.822,1.508 -1.319,2.31 z m -2.702,-14.753 c -0.4,-1.218 -1.115,-2.296 -1.948,-3.241 -1.724,-1.942 -4.015,-3.428 -5.891,-4.479 -0.882,-0.492 -1.664,-0.878 -2.258,-1.155 0.81,-0.717 1.641,-1.384 2.484,-1.945 1.861,-1.245 3.731,-1.979 5.407,-1.972 0.955,0.003 1.865,0.218 2.802,0.739 0.926,0.518 1.886,1.358 2.845,2.647 0.176,0.284 0.402,0.689 0.628,1.206 0.465,1.065 0.919,2.58 0.919,4.439 -10e-4,1.124 -0.178,2.383 -0.615,3.76 h -4.373 z m 7.989,-34.423 c -1.091,-0.894 -1.848,-2.17 -2.307,-3.685 -0.342,-1.125 -0.784,-2.291 -1.133,-3.506 -0.349,-1.214 -0.603,-2.464 -0.603,-3.722 0.004,-1.384 0.29,-2.776 1.134,-4.267 0.846,-1.488 2.279,-3.09 4.654,-4.75 1.61,-1.121 3.367,-1.573 5.278,-1.578 1.952,-0.002 4.047,0.5 6.08,1.288 3.051,1.178 5.949,2.989 8.06,4.504 1.056,0.757 1.917,1.439 2.51,1.928 0.296,0.245 0.526,0.441 0.679,0.575 l 0.172,0.151 0.041,0.037 0.01,0.009 c 0.003,0.002 0.006,0.003 0.009,0.005 -0.129,0.219 -0.258,0.439 -0.38,0.663 -1.457,-0.266 -4.161,-0.669 -7.222,-0.671 -2.834,0.004 -5.981,0.337 -8.769,1.551 -1.392,0.609 -2.696,1.45 -3.774,2.598 -1.078,1.145 -1.913,2.599 -2.372,4.335 -0.209,0.786 0.259,1.592 1.044,1.8 0.786,0.209 1.592,-0.259 1.8,-1.044 0.344,-1.287 0.919,-2.269 1.673,-3.076 1.128,-1.205 2.716,-2.022 4.557,-2.529 1.835,-0.507 3.896,-0.692 5.839,-0.691 2.075,0 4.017,0.207 5.428,0.415 0.188,0.028 0.366,0.055 0.534,0.083 -0.451,1.214 -0.791,2.488 -1.012,3.817 -3.877,2.613 -7.215,4.42 -10.037,5.564 -2.95,1.197 -5.338,1.677 -7.211,1.675 -2.133,-0.007 -3.587,-0.589 -4.682,-1.479 z m 90.466,17.801 c -2.958,2.87 -5.994,4.087 -8.37,4.08 -1.255,-0.002 -2.328,-0.323 -3.209,-0.908 -0.879,-0.588 -1.588,-1.448 -2.064,-2.653 -0.601,-1.526 -1.569,-3.467 -2.696,-5.569 -1.829,-3.407 -4.071,-7.206 -5.748,-9.983 0.849,0.568 1.705,1.108 2.574,1.589 5.539,3.075 11.436,4.41 17.307,4.408 4.049,-0.003 8.084,-0.634 12.011,-1.753 -2.51,3.032 -6.188,7.287 -9.805,10.789 z M 1054.2,278.842 c -3.37,0 -6.09,-4.32 -6.09,-9.65 0,-5.32 2.72,-9.64 6.09,-9.64 3.36,0 6.09,4.32 6.09,9.64 0,5.33 -2.73,9.65 -6.09,9.65 z m 78.907,149.354 h -11.947 v -57.799 c 0,-10e-4 0,-0.002 0,-0.003 v -10.867 c 1.618,-0.196 4.542,-0.593 7.81,-1.241 1.344,-0.267 2.744,-0.58 4.136,-0.937 v 70.847 z m -1.582,-99.306 c -0.183,-1.248 -0.5,-2.941 -0.977,-4.848 1.955,-3.54 3.66,-6.785 4.832,-9.054 0.403,-0.263 0.671,-0.715 0.671,-1.232 v -0.074 c 0.148,-0.29 0.282,-0.553 0.399,-0.784 0.357,0.177 0.766,0.421 1.159,0.753 0.518,0.434 1.017,1.004 1.397,1.785 0.378,0.782 0.647,1.784 0.649,3.134 0,0.633 -0.061,1.342 -0.202,2.134 -0.149,0.843 -0.536,1.844 -1.146,2.923 -1.063,1.893 -2.791,4.013 -4.866,6.104 -0.618,0.624 -1.273,1.244 -1.944,1.86 0.129,-0.22 0.219,-0.464 0.219,-0.731 0,-0.473 -0.067,-1.098 -0.191,-1.97 z m -8.5,-20.001 v -5.233 h 10.082 v 9.316 c -0.894,1.741 -2.197,4.24 -3.727,7.068 -0.531,-1.575 -1.165,-3.189 -1.916,-4.745 -1.16,-2.391 -2.606,-4.64 -4.439,-6.406 z m 13.969,-8.177 h -15.353 l -0.44,-24.136 c 0,-0.089 0,-0.178 0,-0.266 0,-13.74 2.061,-22.777 4.08,-28.339 1.01,-2.781 2.009,-4.695 2.74,-5.896 0.072,-0.119 0.14,-0.226 0.207,-0.331 0.887,1.096 2.231,3.109 3.614,6.523 2.345,5.79 4.777,15.594 5.152,31.609 z m 2.752,-25.78 c -0.063,-1.196 -0.136,-2.364 -0.222,-3.486 l 27.907,-5.344 h 2.698 l -3.806,8.83 z m -45.531,-5.803 c 0,0 -0.02,-0.077 -0.06,-0.232 -0.298,-1.166 -1.656,-6.609 -2.938,-13.668 -1.282,-7.056 -2.482,-15.739 -2.481,-23.319 -0.011,-5.631 0.691,-10.656 2.32,-13.807 0.78,-1.531 2.052,-3.207 3.691,-4.922 2.868,-3.008 6.848,-6.138 11.19,-9.105 6.514,-4.455 13.842,-8.556 19.53,-11.533 2.844,-1.489 5.28,-2.699 7.002,-3.535 0.833,-0.405 1.495,-0.72 1.96,-0.939 l 20.49,14.391 c 5.554,4.507 9.089,10.394 11.255,16.86 2.166,6.471 2.935,13.507 2.934,20.149 0,9.904 -1.704,18.914 -2.888,23.867 l -26.953,5.161 c -1.022,-10.325 -2.988,-17.293 -4.939,-21.918 -2.59,-6.146 -5.171,-8.149 -5.394,-8.308 -0.605,-0.444 -1.446,-0.361 -1.954,0.192 -0.24,0.248 -7.168,8.033 -8.502,30.202 l -24.264,0.472 c 10e-4,-0.003 10e-4,-0.006 10e-4,-0.008 z m -1.611,10.764 -2.15,-7.739 27.886,-0.543 c -0.019,0.526 -0.033,1.063 -0.045,1.604 z m 34.914,49.501 c 0.269,0.341 0.51,0.666 0.699,0.944 0.252,0.371 0.433,0.674 0.549,0.878 0.058,0.102 0.099,0.179 0.124,0.227 l 0.026,0.05 v 0.008 h 10e-4 c 0.298,0.614 0.985,0.944 1.651,0.792 0.104,-0.024 0.193,-0.076 0.286,-0.119 -2.541,2.268 -5.347,4.422 -7.984,6.206 -0.597,0.404 -1.18,0.781 -1.754,1.145 1.092,-1.537 2.22,-3.251 3.357,-5.07 1.019,-1.633 2.042,-3.343 3.041,-5.061 z m -5.789,17.753 c 0.231,-0.215 0.463,-0.43 0.698,-0.658 1.287,-1.247 2.616,-2.674 3.719,-4.186 0.967,-1.336 1.752,-2.735 2.152,-4.213 1.445,-1.105 2.884,-2.272 4.263,-3.489 2.411,-2.132 4.632,-4.388 6.369,-6.638 0.693,-0.904 1.309,-1.804 1.831,-2.703 0.048,0.128 0.097,0.255 0.145,0.392 0.525,1.471 1.029,3.445 1.026,5.435 -10e-4,1.261 -0.197,2.514 -0.686,3.695 0,0.003 0,0.006 0,0.009 -0.16,0.385 -0.35,0.763 -0.577,1.131 -0.772,1.264 -2.272,2.735 -4.196,4.141 -2.885,2.118 -6.705,4.125 -10.399,5.593 -1.493,0.593 -2.961,1.095 -4.341,1.491 z m 3.656,7.29 c 1.2,-1.338 2.431,-2.804 3.442,-4.223 0.506,-0.711 0.957,-1.41 1.323,-2.093 0.231,-0.434 0.414,-0.862 0.568,-1.292 1.401,-0.67 2.778,-1.396 4.086,-2.166 1.806,-1.064 3.481,-2.208 4.913,-3.408 0.959,-0.805 1.798,-1.635 2.505,-2.496 0.029,0.101 0.059,0.198 0.088,0.303 0.499,1.769 0.971,4.058 0.968,6.183 10e-4,1.22 -0.155,2.378 -0.505,3.348 -0.353,0.975 -0.872,1.756 -1.656,2.364 -1.212,0.944 -3.213,1.856 -5.491,2.603 -0.438,0.145 -0.888,0.284 -1.344,0.418 0,10e-4 -0.01,0.002 -0.012,0.003 -3.098,0.912 -6.521,1.582 -9.279,2.028 -0.432,0.07 -0.844,0.134 -1.24,0.193 0.522,-0.547 1.073,-1.139 1.634,-1.765 z"
           id="path90" />
        <path
           inkscape:connector-curvature="0"
           d="m 1032.66,328.942 v 0 c -0.053,0.009 -5.228,0.696 -10.727,2.534 -2.752,0.923 -5.588,2.128 -7.941,3.746 -1.176,0.811 -2.234,1.729 -3.085,2.795 -0.849,1.063 -1.491,2.287 -1.772,3.653 -0.165,0.796 0.347,1.575 1.143,1.739 0.796,0.165 1.575,-0.347 1.739,-1.143 0.175,-0.842 0.572,-1.636 1.191,-2.414 1.076,-1.358 2.85,-2.613 4.928,-3.654 3.114,-1.57 6.872,-2.673 9.828,-3.363 1.479,-0.346 2.759,-0.591 3.664,-0.749 0.453,-0.079 0.812,-0.136 1.056,-0.173 0.122,-0.019 0.215,-0.032 0.277,-0.041 l 0.088,-0.012 c 0.806,-0.108 1.371,-0.848 1.264,-1.654 -0.107,-0.806 -0.847,-1.372 -1.653,-1.264 z"
           id="path92" />
        <path
           inkscape:connector-curvature="0"
           d="m 1034.289,333.958 c -0.053,0.02 -3.583,1.28 -7.518,3.582 -1.969,1.153 -4.041,2.566 -5.839,4.249 -1.793,1.684 -3.333,3.644 -4.134,5.944 -0.133,0.384 -0.098,0.786 0.067,1.124 0.041,0.085 0.09,0.166 0.147,0.241 0.17,0.227 0.407,0.407 0.695,0.507 0.768,0.266 1.606,-0.141 1.872,-0.909 0.285,-0.83 0.732,-1.651 1.305,-2.449 0.143,-0.2 0.294,-0.398 0.453,-0.594 0.475,-0.589 1.016,-1.163 1.606,-1.715 0.883,-0.829 1.873,-1.605 2.896,-2.317 0.341,-0.237 0.686,-0.468 1.032,-0.69 1.385,-0.891 2.788,-1.661 4.041,-2.285 1.252,-0.625 2.354,-1.108 3.137,-1.432 0.392,-0.162 0.704,-0.285 0.916,-0.366 0.106,-0.041 0.187,-0.071 0.24,-0.09 l 0.059,-0.021 0.015,-0.005 c 0.765,-0.274 1.164,-1.116 0.89,-1.881 -0.273,-0.768 -1.115,-1.167 -1.88,-0.893 z"
           id="path94" />
        <path
           inkscape:connector-curvature="0"
           d="m 1032.722,340.418 c -1.191,1.192 -2.434,2.636 -3.48,4.307 -1.044,1.671 -1.894,3.576 -2.253,5.679 -0.136,0.801 0.403,1.561 1.204,1.698 0.801,0.136 1.561,-0.403 1.698,-1.204 0.276,-1.627 0.954,-3.185 1.847,-4.612 1.335,-2.14 3.148,-3.963 4.622,-5.228 0.737,-0.633 1.388,-1.128 1.849,-1.462 0.231,-0.167 0.414,-0.293 0.537,-0.375 l 0.137,-0.091 0.032,-0.021 0.01,-0.003 c 0.687,-0.434 0.891,-1.344 0.457,-2.03 -0.434,-0.687 -1.344,-0.892 -2.031,-0.457 v 0 c -0.058,0.037 -2.241,1.417 -4.624,3.799 z"
           id="path96" />
        <path
           inkscape:connector-curvature="0"
           d="m 981.226,328.066 c 2.214,0 3.191,-2.666 2.182,-5.955 -1.009,-3.289 -3.622,-5.955 -5.836,-5.955 -2.214,0 -3.191,2.666 -2.183,5.955 1.01,3.289 3.623,5.955 5.837,5.955 z"
           id="path98" />
        <path
           inkscape:connector-curvature="0"
           d="m 1019.136,322.112 c 2.214,0 3.191,-2.666 2.182,-5.955 -1.009,-3.289 -3.622,-5.955 -5.836,-5.955 -2.214,0 -3.191,2.666 -2.182,5.955 1.009,3.289 3.622,5.955 5.836,5.955 z"
           id="path100" />
        <path
           inkscape:connector-curvature="0"
           d="m 997.831,514.466 c 1.184,-1.98 2.144,-4.583 2.967,-7.718 1.23,-4.699 2.13,-10.593 2.73,-17.212 0.375,-4.136 0.631,-8.554 0.77,-13.13 0.028,-0.915 0.051,-1.837 0.07,-2.764 0.037,-1.854 0.056,-3.729 0.056,-5.617 0,-9.909 -0.51,-20.186 -1.52,-29.682 -0.241,-2.26 -0.35,-4.362 -0.35,-6.317 0,-1.394 0.058,-2.712 0.162,-3.96 0.052,-0.624 0.116,-1.23 0.191,-1.819 0.974,-7.654 3.814,-12.397 6.585,-15.369 1.711,-1.826 3.414,-2.976 4.675,-3.665 0.63,-0.344 1.149,-0.573 1.5,-0.713 0.175,-0.07 0.309,-0.117 0.393,-0.146 l 0.089,-0.029 0.015,-0.005 v -10e-4 c 0.778,-0.226 1.228,-1.038 1.005,-1.818 -0.224,-0.781 -1.038,-1.234 -1.82,-1.01 v 0 c -0.165,0.049 -4.085,1.194 -8.004,5.372 -3.925,4.172 -7.745,11.389 -7.733,23.159 0,2.065 0.116,4.272 0.367,6.629 0.998,9.378 1.503,19.563 1.503,29.371 0,9.969 -0.523,19.551 -1.572,27.486 -0.524,3.966 -1.18,7.521 -1.958,10.492 -0.775,2.969 -1.685,5.357 -2.644,6.949 -0.418,0.697 -0.192,1.601 0.505,2.019 0.696,0.421 1.6,0.195 2.018,-0.502 z"
           id="path102" />
        <path
           inkscape:connector-curvature="0"
           d="m 1068.15,499.012 c 2.94,-10.93 5.8,-25.32 5.8,-40.02 0,-7.42 -0.73,-14.92 -2.57,-22.08 -4.65,-18.1 -14.07,-28.49 -22.34,-34.26 -8.28,-5.78 -15.36,-6.99 -15.51,-7.02 -0.8,-0.13 -1.56,0.41 -1.69,1.21 -0.09,0.53 0.11,1.05 0.5,1.37 0.2,0.16 0.43,0.28 0.7,0.33 v -0.01 c 0.03,0.01 1.34,0.24 3.44,0.96 0.75,0.25 1.6,0.57 2.53,0.97 0.37,0.14 0.75,0.31 1.14,0.49 0.4,0.18 0.82,0.38 1.24,0.59 1.05,0.51 2.15,1.11 3.3,1.8 0.46,0.27 0.93,0.57 1.41,0.88 0.47,0.3 0.95,0.63 1.43,0.97 7.74,5.47 16.54,15.16 21,32.45 1.76,6.87 2.48,14.12 2.48,21.35 0,14.69 -2.96,29.25 -5.93,40.12 -0.14,0.5 -0.28,1 -0.41,1.48 -0.37,1.29 -0.73,2.51 -1.07,3.67 1.18,-0.5 2.35,-1.01 3.51,-1.53 0.27,-0.92 0.54,-1.87 0.81,-2.85 0.08,-0.29 0.16,-0.58 0.23,-0.87 z"
           id="path104" />
      </g>
      <g
         id="g160">
        <path
           inkscape:connector-curvature="0"
           d="m 804.477,419.115 c 0.405,-0.145 0.801,-0.126 1.188,0.057 0.387,0.184 0.653,0.478 0.798,0.882 0.145,0.404 0.125,0.8 -0.058,1.188 -0.182,0.387 -0.476,0.652 -0.88,0.798 l -17.68,6.33 3.664,10.233 c 0.145,0.404 0.125,0.8 -0.057,1.188 -0.183,0.387 -0.477,0.652 -0.88,0.798 -0.406,0.145 -0.801,0.126 -1.188,-0.058 -0.387,-0.183 -0.653,-0.477 -0.798,-0.881 l -4.188,-11.695 c -0.076,-0.211 -0.108,-0.418 -0.097,-0.618 0.011,-0.201 0.058,-0.393 0.145,-0.573 0.086,-0.181 0.203,-0.34 0.351,-0.476 0.149,-0.136 0.329,-0.242 0.54,-0.318 z"
           id="path108" />
        <path
           inkscape:connector-curvature="0"
           d="m 793.299,446.846 12.192,-5.389 c 0.393,-0.174 0.786,-0.185 1.178,-0.032 0.393,0.151 0.675,0.42 0.844,0.804 0.17,0.384 0.179,0.772 0.027,1.166 -0.153,0.393 -0.423,0.68 -0.813,0.862 l -12.192,5.389 c -0.397,0.165 -0.792,0.171 -1.185,0.019 -0.393,-0.152 -0.674,-0.42 -0.844,-0.804 -0.17,-0.385 -0.18,-0.773 -0.026,-1.165 0.153,-0.394 0.425,-0.677 0.819,-0.85 z m 17.61,-4.148 c -0.456,0.201 -0.915,0.212 -1.379,0.033 -0.463,-0.18 -0.796,-0.497 -0.997,-0.953 -0.201,-0.455 -0.212,-0.915 -0.033,-1.378 0.181,-0.464 0.498,-0.797 0.954,-0.998 0.455,-0.201 0.914,-0.213 1.378,-0.033 0.464,0.18 0.796,0.497 0.997,0.953 0.202,0.456 0.212,0.915 0.033,1.379 -0.181,0.463 -0.498,0.796 -0.953,0.997 z"
           id="path110" />
        <path
           inkscape:connector-curvature="0"
           d="m 810.634,452.48 c 1.498,0.675 2.658,1.788 3.484,3.341 0.48,0.906 0.76,1.86 0.84,2.863 0.079,1.002 -0.021,1.976 -0.299,2.92 -0.279,0.943 -0.733,1.815 -1.365,2.615 -0.631,0.8 -1.412,1.447 -2.344,1.941 l -6.377,3.389 c -0.379,0.201 -0.771,0.24 -1.174,0.117 -0.402,-0.123 -0.703,-0.371 -0.899,-0.741 -0.201,-0.38 -0.241,-0.771 -0.118,-1.174 0.124,-0.403 0.375,-0.705 0.754,-0.906 l 6.378,-3.388 c 0.552,-0.294 1.016,-0.679 1.393,-1.154 0.377,-0.478 0.651,-0.997 0.824,-1.558 0.171,-0.562 0.235,-1.146 0.189,-1.752 -0.046,-0.605 -0.215,-1.185 -0.508,-1.736 -0.297,-0.561 -0.681,-1.028 -1.152,-1.403 -0.47,-0.375 -0.989,-0.65 -1.557,-0.823 -0.568,-0.174 -1.154,-0.236 -1.757,-0.187 -0.603,0.049 -1.182,0.222 -1.733,0.515 l -6.378,3.389 c -0.38,0.201 -0.771,0.24 -1.173,0.116 -0.403,-0.123 -0.704,-0.369 -0.9,-0.741 -0.202,-0.379 -0.241,-0.77 -0.117,-1.172 0.124,-0.403 0.375,-0.706 0.754,-0.907 l 11.772,-6.253 c 0.37,-0.197 0.76,-0.235 1.167,-0.114 0.406,0.121 0.711,0.371 0.913,0.75 0.197,0.371 0.23,0.759 0.104,1.164 -0.127,0.405 -0.368,0.702 -0.721,0.889 z"
           id="path112" />
        <path
           inkscape:connector-curvature="0"
           d="m 807.873,475.056 17.002,-11.204 c 0.357,-0.236 0.743,-0.313 1.156,-0.228 0.413,0.085 0.736,0.306 0.975,0.665 0.23,0.351 0.303,0.732 0.218,1.145 -0.085,0.413 -0.306,0.738 -0.665,0.975 l -9.541,6.287 9.578,4.179 c 0.264,0.117 0.481,0.303 0.647,0.556 0.119,0.18 0.196,0.368 0.232,0.566 0.037,0.197 0.034,0.393 -0.009,0.585 -0.043,0.191 -0.12,0.373 -0.228,0.545 -0.11,0.172 -0.25,0.313 -0.422,0.427 -0.456,0.301 -0.903,0.36 -1.337,0.18 l -6.705,-2.933 -2.453,9.161 c -0.104,0.408 -0.324,0.723 -0.66,0.942 -0.171,0.113 -0.356,0.186 -0.557,0.219 -0.201,0.033 -0.398,0.031 -0.591,-0.005 -0.194,-0.036 -0.375,-0.11 -0.542,-0.223 -0.168,-0.111 -0.31,-0.257 -0.428,-0.437 -0.226,-0.343 -0.305,-0.701 -0.235,-1.074 l 2.625,-9.834 -1.961,-0.848 -4.415,2.91 c -0.352,0.231 -0.735,0.306 -1.152,0.224 -0.416,-0.082 -0.741,-0.299 -0.971,-0.649 -0.237,-0.358 -0.311,-0.745 -0.221,-1.161 0.089,-0.416 0.31,-0.739 0.66,-0.97 z"
           id="path114" />
        <path
           inkscape:connector-curvature="0"
           d="m 829.049,499.146 c 0.275,0.343 0.39,0.717 0.346,1.122 -0.044,0.405 -0.239,0.745 -0.581,1.02 -0.336,0.269 -0.713,0.383 -1.133,0.344 -1.983,-0.351 -3.618,-1.329 -4.907,-2.937 -1.418,-1.768 -2.002,-3.777 -1.754,-6.029 0.248,-2.251 1.256,-4.085 3.023,-5.502 1.768,-1.417 3.777,-2.002 6.029,-1.754 2.25,0.248 4.085,1.256 5.503,3.023 1.405,1.753 1.989,3.762 1.753,6.029 -0.116,1.119 -0.429,2.139 -0.937,3.06 -0.508,0.92 -1.203,1.734 -2.087,2.442 -0.343,0.274 -0.72,0.387 -1.131,0.334 -0.411,-0.052 -0.751,-0.246 -1.019,-0.581 l -7.257,-9.053 c -0.315,0.466 -0.545,0.964 -0.69,1.492 -0.145,0.53 -0.206,1.063 -0.181,1.602 0.024,0.537 0.131,1.064 0.321,1.582 0.189,0.518 0.461,0.998 0.815,1.439 0.402,0.503 0.849,0.903 1.338,1.2 0.487,0.296 1.027,0.502 1.62,0.616 0.373,0.076 0.683,0.259 0.929,0.551 z m 4.401,-2.683 c 0.315,-0.466 0.544,-0.966 0.686,-1.498 0.142,-0.534 0.202,-1.069 0.178,-1.606 -0.025,-0.538 -0.132,-1.065 -0.322,-1.583 -0.189,-0.518 -0.458,-0.994 -0.806,-1.428 -0.348,-0.435 -0.756,-0.803 -1.223,-1.104 -0.467,-0.302 -0.962,-0.524 -1.484,-0.669 -0.522,-0.145 -1.057,-0.203 -1.605,-0.177 -0.549,0.026 -1.082,0.146 -1.598,0.36 z"
           id="path116" />
        <path
           inkscape:connector-curvature="0"
           d="m 849.85,504.468 c 1.366,1.383 2.144,3.023 2.332,4.924 l 5.201,-5.137 c 0.313,-0.309 0.672,-0.462 1.08,-0.459 0.408,0.002 0.765,0.159 1.074,0.473 0.302,0.306 0.455,0.665 0.46,1.08 0.004,0.414 -0.151,0.776 -0.463,1.084 l -9.754,9.636 c -1.625,1.606 -3.564,2.396 -5.815,2.368 -2.278,-0.028 -4.207,-0.842 -5.785,-2.438 -1.593,-1.612 -2.382,-3.551 -2.368,-5.815 0.014,-2.266 0.826,-4.193 2.438,-5.786 1.611,-1.592 3.55,-2.381 5.815,-2.367 2.265,0.012 4.193,0.825 5.785,2.437 z m -2.222,9.423 c 0.5,-0.494 0.876,-1.055 1.129,-1.682 0.252,-0.627 0.382,-1.271 0.39,-1.929 0.007,-0.66 -0.111,-1.308 -0.356,-1.945 -0.244,-0.637 -0.617,-1.209 -1.119,-1.716 -0.508,-0.514 -1.079,-0.897 -1.712,-1.149 -0.634,-0.253 -1.277,-0.379 -1.929,-0.38 -0.653,-10e-4 -1.296,0.124 -1.93,0.371 -0.633,0.248 -1.2,0.619 -1.7,1.113 -0.5,0.495 -0.878,1.057 -1.133,1.688 -0.256,0.63 -0.389,1.271 -0.396,1.924 -0.008,0.652 0.11,1.298 0.355,1.934 0.245,0.637 0.621,1.213 1.128,1.727 0.502,0.507 1.069,0.888 1.703,1.14 0.634,0.253 1.281,0.379 1.94,0.38 0.66,0 1.304,-0.122 1.935,-0.366 0.629,-0.246 1.194,-0.616 1.695,-1.11 z"
           id="path118" />
        <path
           inkscape:connector-curvature="0"
           d="m 876.667,542.961 c -0.24,0.333 -0.587,0.541 -1.042,0.621 -2.783,0.141 -5.284,-0.588 -7.503,-2.184 -2.634,-1.894 -4.211,-4.435 -4.73,-7.624 -0.521,-3.189 0.164,-6.1 2.057,-8.732 1.886,-2.624 4.424,-4.197 7.614,-4.719 3.204,-0.523 6.117,0.159 8.742,2.046 2.252,1.619 3.751,3.823 4.501,6.611 0.074,0.366 -0.023,0.735 -0.292,1.107 -0.131,0.183 -0.282,0.326 -0.454,0.432 -0.173,0.104 -0.358,0.173 -0.555,0.206 -0.198,0.032 -0.396,0.024 -0.597,-0.023 -0.2,-0.048 -0.387,-0.134 -0.562,-0.26 -0.325,-0.233 -0.529,-0.561 -0.611,-0.981 -0.261,-0.908 -0.663,-1.751 -1.206,-2.526 -0.543,-0.775 -1.223,-1.456 -2.039,-2.044 -1.935,-1.391 -4.082,-1.894 -6.439,-1.509 -2.331,0.381 -4.19,1.539 -5.582,3.474 -1.397,1.942 -1.906,4.078 -1.525,6.409 0.383,2.345 1.545,4.215 3.489,5.612 1.435,1.031 2.99,1.579 4.666,1.641 l 2.651,-3.687 -3.283,-2.36 c -0.355,-0.257 -0.568,-0.593 -0.636,-1.009 -0.069,-0.415 0.026,-0.802 0.283,-1.158 0.125,-0.175 0.275,-0.316 0.45,-0.425 0.175,-0.11 0.361,-0.181 0.559,-0.213 0.198,-0.031 0.395,-0.025 0.591,0.02 0.196,0.045 0.386,0.132 0.568,0.264 l 4.555,3.275 c 0.167,0.12 0.3,0.268 0.402,0.443 0.103,0.175 0.169,0.362 0.203,0.561 0.031,0.197 0.026,0.397 -0.018,0.601 -0.044,0.203 -0.125,0.388 -0.245,0.555 z"
           id="path120" />
        <path
           inkscape:connector-curvature="0"
           d="m 893.564,551.745 c 0.383,0.216 0.629,0.519 0.74,0.911 0.109,0.393 0.057,0.78 -0.158,1.163 -0.21,0.375 -0.518,0.623 -0.921,0.743 -1.97,0.416 -3.853,0.12 -5.65,-0.888 -1.975,-1.109 -3.269,-2.755 -3.882,-4.936 -0.612,-2.181 -0.362,-4.259 0.746,-6.233 1.109,-1.976 2.754,-3.271 4.935,-3.882 2.181,-0.613 4.258,-0.364 6.235,0.745 1.958,1.1 3.251,2.745 3.881,4.936 0.311,1.081 0.403,2.145 0.276,3.188 -0.127,1.043 -0.467,2.059 -1.022,3.046 -0.215,0.384 -0.523,0.628 -0.924,0.733 -0.401,0.105 -0.788,0.053 -1.164,-0.158 l -10.115,-5.68 c -0.118,0.549 -0.146,1.097 -0.082,1.642 0.063,0.545 0.207,1.063 0.43,1.553 0.224,0.488 0.52,0.938 0.89,1.348 0.369,0.409 0.801,0.752 1.295,1.029 0.562,0.315 1.125,0.52 1.688,0.612 0.564,0.093 1.143,0.081 1.734,-0.035 0.375,-0.068 0.732,-0.015 1.068,0.163 z m 3.077,-4.135 c 0.118,-0.55 0.144,-1.098 0.076,-1.646 -0.067,-0.548 -0.212,-1.066 -0.437,-1.556 -0.223,-0.489 -0.519,-0.939 -0.889,-1.349 -0.37,-0.408 -0.797,-0.749 -1.282,-1.021 -0.486,-0.272 -1.001,-0.462 -1.547,-0.566 -0.546,-0.105 -1.088,-0.127 -1.626,-0.065 -0.538,0.062 -1.058,0.207 -1.556,0.437 -0.499,0.23 -0.948,0.541 -1.347,0.933 z"
           id="path122" />
        <path
           inkscape:connector-curvature="0"
           d="m 919.091,559.676 c -0.908,2.097 -2.411,3.554 -4.509,4.369 -2.124,0.826 -4.217,0.792 -6.278,-0.1 -2.079,-0.9 -3.535,-2.403 -4.369,-4.509 -0.833,-2.105 -0.8,-4.199 0.099,-6.278 0.9,-2.078 2.404,-3.535 4.51,-4.368 2.106,-0.834 4.198,-0.801 6.277,0.099 2.061,0.893 3.518,2.396 4.369,4.51 0.417,1.053 0.615,2.102 0.595,3.146 -0.022,1.043 -0.253,2.088 -0.694,3.131 z m -5.485,-7.978 c -0.664,-0.286 -1.336,-0.429 -2.018,-0.426 -0.683,0.002 -1.328,0.125 -1.932,0.369 -0.605,0.243 -1.156,0.599 -1.65,1.065 -0.494,0.466 -0.881,1.022 -1.161,1.668 -0.28,0.645 -0.419,1.308 -0.422,1.988 -0.002,0.68 0.116,1.324 0.354,1.933 0.235,0.607 0.587,1.161 1.052,1.66 0.465,0.499 1.03,0.893 1.692,1.18 0.654,0.283 1.323,0.424 2.006,0.421 0.681,-0.003 1.329,-0.127 1.941,-0.373 0.612,-0.246 1.164,-0.601 1.657,-1.063 0.492,-0.462 0.879,-1.016 1.158,-1.661 0.279,-0.646 0.418,-1.307 0.418,-1.982 10e-4,-0.675 -0.119,-1.32 -0.358,-1.935 -0.24,-0.615 -0.591,-1.172 -1.058,-1.671 -0.465,-0.498 -1.026,-0.89 -1.679,-1.173 z"
           id="path124" />
        <path
           inkscape:connector-curvature="0"
           d="m 934.848,556.376 c 1.852,0.588 3.305,1.679 4.357,3.272 l 2.21,-6.968 c 0.133,-0.419 0.38,-0.722 0.742,-0.909 0.362,-0.188 0.752,-0.215 1.172,-0.082 0.408,0.13 0.712,0.378 0.909,0.742 0.197,0.365 0.229,0.757 0.096,1.176 l -4.146,13.068 c -0.691,2.179 -2.04,3.779 -4.044,4.803 -2.03,1.036 -4.115,1.215 -6.257,0.535 -2.159,-0.685 -3.76,-2.033 -4.802,-4.044 -1.042,-2.011 -1.22,-4.097 -0.535,-6.256 0.685,-2.159 2.033,-3.76 4.044,-4.803 2.01,-1.04 4.095,-1.22 6.254,-0.534 z m 2.42,9.374 c 0.212,-0.671 0.286,-1.342 0.216,-2.014 -0.069,-0.673 -0.253,-1.302 -0.553,-1.889 -0.302,-0.588 -0.708,-1.106 -1.22,-1.556 -0.514,-0.449 -1.109,-0.782 -1.79,-0.998 -0.689,-0.219 -1.372,-0.292 -2.05,-0.221 -0.678,0.072 -1.307,0.26 -1.885,0.563 -0.578,0.304 -1.088,0.713 -1.534,1.228 -0.446,0.515 -0.775,1.106 -0.987,1.777 -0.213,0.67 -0.286,1.343 -0.218,2.02 0.067,0.678 0.25,1.307 0.545,1.888 0.297,0.581 0.703,1.096 1.217,1.546 0.512,0.449 1.113,0.783 1.802,1.002 0.68,0.216 1.358,0.288 2.037,0.216 0.679,-0.071 1.31,-0.261 1.893,-0.567 0.584,-0.307 1.098,-0.714 1.542,-1.224 0.444,-0.51 0.772,-1.1 0.985,-1.771 z"
           id="path126" />
        <path
           inkscape:connector-curvature="0"
           d="m 957.406,574.23 c 0.43,0.089 0.757,0.305 0.98,0.645 0.224,0.341 0.29,0.727 0.201,1.156 -0.088,0.421 -0.305,0.75 -0.654,0.986 -1.752,0.993 -3.637,1.28 -5.654,0.861 -2.218,-0.461 -3.949,-1.639 -5.19,-3.532 -1.243,-1.894 -1.634,-3.949 -1.174,-6.168 0.461,-2.218 1.638,-3.948 3.531,-5.191 1.895,-1.241 3.95,-1.634 6.169,-1.173 2.199,0.457 3.93,1.635 5.191,3.532 0.623,0.937 1.032,1.922 1.226,2.955 0.194,1.032 0.177,2.104 -0.053,3.213 -0.089,0.43 -0.311,0.756 -0.66,0.978 -0.35,0.222 -0.736,0.289 -1.157,0.201 l -11.359,-2.358 c 0.053,0.56 0.193,1.089 0.418,1.59 0.225,0.501 0.518,0.951 0.879,1.35 0.36,0.399 0.779,0.738 1.254,1.017 0.476,0.277 0.992,0.475 1.545,0.59 0.632,0.131 1.229,0.156 1.796,0.073 0.564,-0.081 1.112,-0.268 1.641,-0.557 0.339,-0.18 0.695,-0.236 1.07,-0.168 z m 1.685,-4.872 c -0.053,-0.559 -0.195,-1.09 -0.426,-1.592 -0.229,-0.501 -0.524,-0.951 -0.886,-1.351 -0.361,-0.398 -0.779,-0.737 -1.255,-1.016 -0.476,-0.279 -0.986,-0.475 -1.531,-0.588 -0.545,-0.113 -1.093,-0.138 -1.646,-0.072 -0.552,0.064 -1.076,0.208 -1.571,0.429 -0.495,0.222 -0.944,0.518 -1.351,0.887 -0.406,0.37 -0.74,0.802 -1.001,1.296 z"
           id="path128" />
        <path
           inkscape:connector-curvature="0"
           d="m 970.709,573.072 c -0.875,-0.45 -1.476,-0.879 -1.805,-1.288 l 0.015,10e-4 c -0.657,-0.828 -0.93,-1.746 -0.818,-2.756 0.08,-0.738 0.35,-1.384 0.808,-1.938 0.459,-0.554 1.026,-1.005 1.703,-1.354 0.677,-0.349 1.423,-0.594 2.238,-0.735 0.817,-0.142 1.623,-0.169 2.419,-0.082 2.426,0.265 4.402,1.468 5.926,3.609 0.177,0.275 0.245,0.592 0.206,0.951 -0.048,0.437 -0.231,0.782 -0.548,1.037 -0.317,0.255 -0.694,0.359 -1.131,0.312 -0.311,-0.034 -0.565,-0.15 -0.764,-0.349 -0.201,-0.199 -0.391,-0.411 -0.572,-0.638 -0.882,-1.099 -2.032,-1.725 -3.45,-1.88 -1.398,-0.152 -2.561,0.153 -3.489,0.916 -0.171,0.139 -0.273,0.344 -0.303,0.615 -0.029,0.272 0.076,0.47 0.318,0.595 l 6.571,2.987 c 0.91,0.472 1.512,0.902 1.803,1.287 l -0.015,-10e-4 c 0.657,0.828 0.93,1.746 0.819,2.756 -0.082,0.748 -0.352,1.396 -0.809,1.945 -0.459,0.55 -1.026,1.001 -1.703,1.354 -0.677,0.354 -1.421,0.6 -2.231,0.736 -0.811,0.138 -1.614,0.163 -2.411,0.076 -2.446,-0.268 -4.423,-1.461 -5.931,-3.58 -0.182,-0.306 -0.254,-0.633 -0.217,-0.982 0.048,-0.437 0.23,-0.782 0.548,-1.038 0.318,-0.254 0.695,-0.358 1.132,-0.311 0.321,0.035 0.582,0.159 0.785,0.373 0.203,0.214 0.386,0.418 0.551,0.613 0.883,1.098 2.038,1.726 3.464,1.881 1.388,0.151 2.553,-0.163 3.492,-0.944 0.164,-0.149 0.259,-0.34 0.284,-0.573 0.029,-0.271 -0.081,-0.476 -0.332,-0.61 z"
           id="path130" />
        <path
           inkscape:connector-curvature="0"
           d="m 992.004,580.953 -5.045,-12.764 c -0.094,-0.227 -0.138,-0.456 -0.134,-0.691 0.003,-0.204 0.045,-0.399 0.127,-0.583 0.081,-0.185 0.191,-0.346 0.331,-0.485 0.14,-0.139 0.303,-0.246 0.489,-0.32 0.187,-0.075 0.388,-0.11 0.602,-0.106 0.303,0.005 0.585,0.096 0.846,0.271 0.26,0.176 0.456,0.431 0.587,0.766 l 3.939,9.9 4.292,-9.783 c 0.123,-0.291 0.295,-0.524 0.518,-0.701 0.223,-0.177 0.535,-0.262 0.936,-0.254 0.214,0.004 0.415,0.046 0.598,0.127 0.184,0.082 0.343,0.195 0.478,0.339 0.134,0.145 0.241,0.31 0.32,0.496 0.079,0.188 0.117,0.384 0.114,0.589 0,0.215 -0.062,0.443 -0.173,0.685 l -8.783,20.047 c -0.133,0.3 -0.332,0.543 -0.599,0.729 -0.267,0.186 -0.557,0.276 -0.87,0.271 -0.439,-0.008 -0.801,-0.161 -1.083,-0.46 -0.283,-0.297 -0.42,-0.666 -0.412,-1.104 0.004,-0.235 0.056,-0.459 0.158,-0.672 z"
           id="path132" />
        <path
           inkscape:connector-curvature="0"
           d="m 1019.685,559.164 6.507,14.192 1.724,-15.499 c 0.03,-0.312 0.167,-0.588 0.409,-0.83 0.242,-0.242 0.542,-0.391 0.899,-0.448 0.309,-0.05 0.615,-0.008 0.918,0.127 0.303,0.134 0.534,0.356 0.693,0.667 l 6.508,14.192 1.751,-15.519 c 0.033,-0.223 0.123,-0.436 0.268,-0.637 0.25,-0.347 0.588,-0.555 1.012,-0.622 0.424,-0.068 0.808,0.023 1.149,0.275 0.342,0.252 0.547,0.589 0.616,1.014 0.021,0.194 0.02,0.402 0,0.623 l -2.28,20.633 c -0.074,0.397 -0.229,0.731 -0.462,1.002 -0.233,0.27 -0.529,0.434 -0.885,0.49 -0.434,0.07 -0.815,-0.026 -1.145,-0.291 -0.236,-0.179 -0.431,-0.405 -0.583,-0.678 l -6.385,-13.974 -1.69,15.241 c -0.076,0.397 -0.23,0.731 -0.462,1.001 -0.234,0.271 -0.529,0.435 -0.885,0.491 -0.434,0.069 -0.821,-0.026 -1.16,-0.289 -0.224,-0.161 -0.413,-0.388 -0.569,-0.68 l -8.662,-18.919 c -0.093,-0.213 -0.153,-0.405 -0.182,-0.58 -0.068,-0.424 0.024,-0.809 0.274,-1.156 0.25,-0.347 0.588,-0.555 1.012,-0.623 0.425,-0.067 0.81,0.023 1.157,0.274 0.195,0.15 0.345,0.324 0.457,0.523 z"
           id="path134" />
        <path
           inkscape:connector-curvature="0"
           d="m 1064.872,563.706 c 0.631,2.197 0.394,4.275 -0.708,6.239 -1.117,1.986 -2.755,3.289 -4.913,3.908 -2.179,0.625 -4.257,0.389 -6.238,-0.709 -1.981,-1.097 -3.285,-2.734 -3.91,-4.913 -0.624,-2.178 -0.387,-4.257 0.71,-6.238 1.097,-1.981 2.734,-3.284 4.912,-3.909 2.159,-0.619 4.238,-0.383 6.239,0.709 0.99,0.549 1.809,1.233 2.456,2.054 0.646,0.82 1.13,1.773 1.452,2.859 z m -9.304,-2.68 c -0.694,0.2 -1.304,0.518 -1.829,0.952 -0.525,0.436 -0.945,0.939 -1.258,1.512 -0.313,0.573 -0.513,1.196 -0.599,1.871 -0.085,0.675 -0.031,1.35 0.163,2.026 0.193,0.676 0.506,1.277 0.938,1.803 0.43,0.527 0.93,0.95 1.498,1.27 0.569,0.319 1.192,0.524 1.869,0.614 0.675,0.091 1.36,0.036 2.055,-0.163 0.686,-0.196 1.291,-0.513 1.816,-0.948 0.525,-0.435 0.946,-0.942 1.264,-1.52 0.315,-0.579 0.519,-1.204 0.604,-1.874 0.087,-0.67 0.035,-1.343 -0.16,-2.019 -0.194,-0.676 -0.505,-1.274 -0.935,-1.797 -0.429,-0.521 -0.932,-0.944 -1.506,-1.267 -0.576,-0.322 -1.201,-0.528 -1.877,-0.62 -0.676,-0.089 -1.357,-0.036 -2.043,0.16 z"
           id="path136" />
        <path
           inkscape:connector-curvature="0"
           d="m 1070.765,554.417 0.106,0.272 c 0.471,-0.812 1.049,-1.519 1.736,-2.122 0.688,-0.603 1.486,-1.081 2.396,-1.436 0.4,-0.155 0.841,-0.296 1.322,-0.42 0.48,-0.125 0.942,-0.191 1.384,-0.202 0.441,-0.009 0.837,0.06 1.188,0.206 0.35,0.147 0.602,0.416 0.754,0.807 0.078,0.2 0.112,0.402 0.103,0.605 -0.01,0.203 -0.055,0.396 -0.13,0.577 -0.075,0.181 -0.186,0.343 -0.331,0.481 -0.145,0.141 -0.316,0.25 -0.517,0.328 -0.173,0.066 -0.393,0.095 -0.659,0.083 -0.662,-0.004 -1.33,0.125 -2.003,0.387 -0.664,0.259 -1.238,0.627 -1.724,1.104 -0.485,0.478 -0.86,1.016 -1.124,1.616 -0.264,0.6 -0.407,1.241 -0.431,1.921 -0.024,0.68 0.094,1.353 0.353,2.017 l 2.424,6.224 c 0.152,0.392 0.144,0.78 -0.026,1.166 -0.17,0.386 -0.45,0.654 -0.841,0.807 -0.401,0.156 -0.793,0.149 -1.179,-0.02 -0.386,-0.17 -0.655,-0.45 -0.808,-0.842 l -4.847,-12.449 c -0.152,-0.391 -0.144,-0.779 0.025,-1.165 0.17,-0.386 0.455,-0.656 0.855,-0.813 0.391,-0.152 0.779,-0.144 1.165,0.025 0.389,0.171 0.658,0.451 0.809,0.843 z"
           id="path138" />
        <path
           inkscape:connector-curvature="0"
           d="m 1089.564,561.181 -8.99,-18.27 c -0.19,-0.386 -0.217,-0.777 -0.081,-1.176 0.137,-0.399 0.396,-0.693 0.782,-0.884 0.376,-0.185 0.765,-0.21 1.163,-0.074 0.399,0.136 0.692,0.396 0.883,0.782 l 5.045,10.252 5.344,-8.98 c 0.149,-0.248 0.361,-0.438 0.633,-0.572 0.191,-0.095 0.39,-0.148 0.591,-0.16 0.2,-0.012 0.395,0.016 0.579,0.082 0.186,0.067 0.355,0.166 0.512,0.295 0.157,0.13 0.279,0.287 0.37,0.471 0.242,0.49 0.245,0.94 0.012,1.35 l -3.748,6.285 8.782,3.58 c 0.392,0.155 0.677,0.413 0.854,0.771 0.09,0.185 0.14,0.378 0.147,0.581 0.01,0.203 -0.02,0.398 -0.08,0.586 -0.06,0.188 -0.156,0.357 -0.288,0.51 -0.133,0.151 -0.294,0.274 -0.487,0.37 -0.368,0.181 -0.733,0.213 -1.095,0.098 l -9.428,-3.834 -1.087,1.841 2.335,4.745 c 0.186,0.377 0.212,0.767 0.076,1.17 -0.133,0.402 -0.388,0.697 -0.764,0.882 -0.386,0.19 -0.779,0.215 -1.181,0.074 -0.4,-0.14 -0.693,-0.398 -0.879,-0.775 z"
           id="path140" />
        <path
           inkscape:connector-curvature="0"
           d="m 1102.22,534.44 c 0.25,0.43 0.312,0.886 0.185,1.366 -0.128,0.481 -0.406,0.847 -0.837,1.098 -0.431,0.25 -0.887,0.312 -1.366,0.185 -0.48,-0.128 -0.847,-0.406 -1.097,-0.837 -0.251,-0.431 -0.313,-0.887 -0.186,-1.367 0.127,-0.48 0.406,-0.846 0.837,-1.097 0.432,-0.25 0.886,-0.312 1.366,-0.185 0.482,0.127 0.848,0.407 1.098,0.837 z m 6.065,17.044 -6.701,-11.523 c -0.216,-0.371 -0.271,-0.76 -0.162,-1.167 0.109,-0.407 0.344,-0.717 0.707,-0.928 0.361,-0.211 0.747,-0.263 1.155,-0.155 0.406,0.107 0.722,0.345 0.946,0.711 l 6.701,11.523 c 0.208,0.377 0.257,0.769 0.149,1.176 -0.107,0.408 -0.342,0.717 -0.705,0.928 -0.364,0.211 -0.749,0.263 -1.156,0.154 -0.407,-0.107 -0.717,-0.347 -0.934,-0.719 z"
           id="path142" />
        <path
           inkscape:connector-curvature="0"
           d="m 1111.985,533.626 c 0.505,-1.563 1.483,-2.841 2.935,-3.832 0.847,-0.578 1.765,-0.962 2.752,-1.152 0.989,-0.188 1.968,-0.198 2.936,-0.026 0.969,0.173 1.887,0.528 2.75,1.067 0.865,0.539 1.595,1.243 2.189,2.114 l 4.072,5.965 c 0.243,0.354 0.323,0.738 0.247,1.152 -0.078,0.415 -0.291,0.74 -0.638,0.977 -0.354,0.242 -0.739,0.324 -1.153,0.246 -0.414,-0.077 -0.742,-0.294 -0.983,-0.649 l -4.073,-5.964 c -0.353,-0.517 -0.787,-0.935 -1.302,-1.257 -0.516,-0.322 -1.062,-0.538 -1.639,-0.646 -0.576,-0.108 -1.163,-0.106 -1.761,0.005 -0.598,0.113 -1.154,0.345 -1.671,0.697 -0.523,0.358 -0.946,0.791 -1.267,1.301 -0.32,0.509 -0.537,1.054 -0.646,1.638 -0.11,0.584 -0.106,1.173 0.01,1.768 0.117,0.595 0.352,1.15 0.704,1.666 l 4.072,5.964 c 0.241,0.355 0.323,0.739 0.246,1.153 -0.078,0.414 -0.291,0.739 -0.638,0.976 -0.355,0.243 -0.738,0.325 -1.152,0.247 -0.415,-0.078 -0.743,-0.295 -0.985,-0.649 l -7.517,-11.009 c -0.236,-0.348 -0.317,-0.729 -0.241,-1.146 0.074,-0.419 0.29,-0.748 0.646,-0.991 0.346,-0.236 0.728,-0.313 1.144,-0.232 0.416,0.08 0.737,0.286 0.964,0.617 z"
           id="path144" />
        <path
           inkscape:connector-curvature="0"
           d="m 1144.883,525.038 c -0.348,1.862 -1.271,3.426 -2.774,4.688 -1.733,1.459 -3.729,2.091 -5.985,1.896 -2.256,-0.194 -4.113,-1.158 -5.572,-2.892 -1.459,-1.734 -2.091,-3.729 -1.896,-5.985 0.194,-2.257 1.159,-4.114 2.893,-5.573 1.719,-1.445 3.713,-2.078 5.985,-1.896 2.257,0.195 4.113,1.159 5.573,2.893 l 5.243,6.232 c 0.452,0.537 0.797,1.115 1.035,1.731 0.237,0.616 0.38,1.247 0.424,1.892 0.045,0.646 0.01,1.296 -0.12,1.949 -0.127,0.655 -0.326,1.286 -0.601,1.893 -0.274,0.607 -0.61,1.182 -1.011,1.723 -0.401,0.541 -0.851,1.021 -1.351,1.442 -0.599,0.503 -1.25,0.92 -1.954,1.251 -0.704,0.331 -1.439,0.563 -2.206,0.698 -0.768,0.136 -1.553,0.163 -2.352,0.084 -0.802,-0.079 -1.581,-0.266 -2.338,-0.56 -0.265,-0.071 -0.501,-0.23 -0.708,-0.478 -0.282,-0.336 -0.405,-0.709 -0.366,-1.117 0.039,-0.41 0.226,-0.756 0.563,-1.039 0.223,-0.188 0.452,-0.292 0.686,-0.309 0.234,-0.019 0.629,0.045 1.185,0.19 0.556,0.145 1.01,0.229 1.361,0.251 1.568,0.136 2.954,-0.303 4.157,-1.314 1.211,-1.02 1.883,-2.299 2.015,-3.84 -0.013,-1.062 -0.267,-1.888 -0.763,-2.478 z m -11.365,-5.522 c -0.554,0.465 -0.981,1.004 -1.283,1.615 -0.302,0.611 -0.479,1.242 -0.532,1.893 -0.052,0.651 0.021,1.302 0.217,1.953 0.196,0.65 0.521,1.245 0.974,1.783 0.453,0.538 0.983,0.96 1.592,1.265 0.606,0.306 1.236,0.489 1.887,0.548 0.648,0.06 1.301,-0.007 1.955,-0.2 0.654,-0.193 1.259,-0.522 1.812,-0.988 0.546,-0.459 0.97,-0.994 1.271,-1.605 0.301,-0.611 0.479,-1.246 0.533,-1.903 0.054,-0.657 -0.017,-1.31 -0.211,-1.957 -0.193,-0.647 -0.517,-1.24 -0.97,-1.778 -0.452,-0.538 -0.98,-0.957 -1.587,-1.26 -0.604,-0.302 -1.235,-0.481 -1.892,-0.543 -0.656,-0.059 -1.312,0.008 -1.966,0.201 -0.655,0.19 -1.255,0.517 -1.8,0.976 z"
           id="path146" />
        <path
           inkscape:connector-curvature="0"
           d="m 1160.796,509.957 -15.305,-13.384 c -0.162,-0.141 -0.289,-0.304 -0.381,-0.488 -0.092,-0.184 -0.145,-0.375 -0.159,-0.576 -0.012,-0.199 0.013,-0.395 0.076,-0.586 0.063,-0.19 0.169,-0.371 0.317,-0.54 l 2.968,-3.396 c 0.464,-0.529 0.981,-0.98 1.556,-1.355 0.574,-0.373 1.178,-0.665 1.814,-0.874 0.638,-0.209 1.292,-0.337 1.963,-0.386 0.672,-0.049 1.336,-0.01 1.99,0.116 0.656,0.125 1.294,0.333 1.916,0.624 0.622,0.291 1.197,0.667 1.727,1.13 1.603,1.401 2.477,3.184 2.621,5.347 0.144,2.137 -0.489,4.01 -1.896,5.619 l -1.948,2.228 4.786,4.185 c 0.324,0.283 0.499,0.639 0.528,1.065 0.028,0.427 -0.099,0.803 -0.381,1.126 -0.283,0.324 -0.64,0.5 -1.066,0.528 -0.426,0.028 -0.802,-0.1 -1.126,-0.383 z m -12.092,-14.699 7.013,6.133 1.947,-2.228 c 0.419,-0.478 0.721,-1.009 0.906,-1.593 0.186,-0.583 0.261,-1.172 0.225,-1.769 -0.037,-0.597 -0.187,-1.175 -0.448,-1.735 -0.263,-0.56 -0.638,-1.052 -1.123,-1.477 -0.492,-0.431 -1.033,-0.738 -1.623,-0.924 -0.591,-0.186 -1.184,-0.257 -1.779,-0.213 -0.595,0.043 -1.171,0.199 -1.724,0.468 -0.553,0.27 -1.034,0.64 -1.446,1.109 z"
           id="path148" />
        <path
           inkscape:connector-curvature="0"
           d="m 1181.634,483.827 -0.238,-0.171 c 0.05,0.937 -0.048,1.846 -0.294,2.726 -0.246,0.881 -0.653,1.719 -1.222,2.513 -1.318,1.843 -3.095,2.948 -5.33,3.318 -2.235,0.37 -4.273,-0.104 -6.115,-1.423 -1.842,-1.319 -2.948,-3.096 -3.318,-5.33 -0.37,-2.234 0.105,-4.272 1.423,-6.115 1.308,-1.826 3.085,-2.933 5.33,-3.318 2.235,-0.37 4.273,0.104 6.115,1.423 l 5.432,3.889 c 0.341,0.244 0.547,0.574 0.615,0.99 0.068,0.416 -0.019,0.794 -0.263,1.136 -0.25,0.35 -0.584,0.558 -0.999,0.627 -0.415,0.067 -0.794,-0.02 -1.136,-0.265 z m -12.604,-2.701 c -0.421,0.589 -0.702,1.216 -0.843,1.884 -0.143,0.667 -0.158,1.322 -0.048,1.965 0.109,0.644 0.341,1.257 0.692,1.839 0.353,0.582 0.814,1.078 1.386,1.486 0.572,0.41 1.189,0.688 1.855,0.833 0.664,0.146 1.318,0.167 1.962,0.063 0.645,-0.103 1.26,-0.329 1.847,-0.678 0.586,-0.35 1.089,-0.817 1.509,-1.405 0.416,-0.579 0.694,-1.203 0.836,-1.87 0.142,-0.667 0.156,-1.326 0.046,-1.976 -0.111,-0.65 -0.342,-1.265 -0.689,-1.845 -0.348,-0.579 -0.808,-1.074 -1.379,-1.482 -0.572,-0.41 -1.188,-0.686 -1.849,-0.828 -0.661,-0.142 -1.317,-0.161 -1.969,-0.058 -0.649,0.104 -1.269,0.331 -1.854,0.68 -0.587,0.349 -1.088,0.813 -1.502,1.392 z"
           id="path150" />
        <path
           inkscape:connector-curvature="0"
           d="m 1192.364,469.39 c -0.971,1.706 -2.34,2.898 -4.107,3.578 l 6.353,3.614 c 0.382,0.218 0.624,0.526 0.728,0.928 0.104,0.402 0.049,0.789 -0.165,1.162 -0.217,0.383 -0.522,0.628 -0.914,0.735 -0.394,0.108 -0.781,0.053 -1.163,-0.164 l -11.917,-6.78 c -1.969,-1.12 -3.253,-2.772 -3.853,-4.956 -0.602,-2.185 -0.341,-4.261 0.779,-6.23 1.111,-1.952 2.763,-3.236 4.957,-3.854 1.083,-0.305 2.146,-0.391 3.189,-0.259 1.041,0.133 2.055,0.479 3.04,1.039 1.986,1.13 3.271,2.782 3.854,4.956 0.3,1.114 0.383,2.188 0.251,3.219 -0.132,1.031 -0.477,2.035 -1.032,3.012 z m -9.672,0.413 c 0.611,0.347 1.254,0.559 1.931,0.635 0.676,0.075 1.329,0.028 1.958,-0.142 0.631,-0.169 1.22,-0.458 1.766,-0.866 0.547,-0.407 0.999,-0.926 1.356,-1.555 0.353,-0.619 0.564,-1.268 0.636,-1.946 0.072,-0.679 0.019,-1.335 -0.159,-1.97 -0.179,-0.636 -0.472,-1.223 -0.877,-1.764 -0.406,-0.54 -0.915,-0.983 -1.525,-1.331 -0.611,-0.348 -1.253,-0.558 -1.926,-0.632 -0.671,-0.072 -1.325,-0.023 -1.962,0.147 -0.637,0.17 -1.229,0.462 -1.775,0.869 -0.547,0.408 -0.997,0.922 -1.349,1.542 -0.358,0.628 -0.571,1.281 -0.644,1.959 -0.07,0.679 -0.019,1.332 0.157,1.961 0.177,0.629 0.471,1.214 0.88,1.756 0.411,0.544 0.921,0.988 1.533,1.337 z"
           id="path152" />
        <path
           inkscape:connector-curvature="0"
           d="m 1200.246,442.944 c 0.177,-0.402 0.455,-0.678 0.835,-0.825 0.38,-0.147 0.771,-0.134 1.173,0.043 0.394,0.174 0.67,0.455 0.829,0.845 0.607,1.92 0.496,3.823 -0.333,5.71 -0.912,2.073 -2.423,3.522 -4.533,4.344 -2.11,0.822 -4.203,0.777 -6.277,-0.135 -2.074,-0.911 -3.522,-2.422 -4.344,-4.532 -0.822,-2.11 -0.777,-4.203 0.134,-6.277 0.903,-2.057 2.416,-3.504 4.534,-4.345 1.046,-0.415 2.094,-0.609 3.146,-0.586 1.051,0.025 2.095,0.265 3.131,0.721 0.402,0.177 0.676,0.46 0.818,0.848 0.146,0.39 0.13,0.78 -0.043,1.174 l -4.666,10.621 c 0.558,0.063 1.105,0.038 1.642,-0.078 0.537,-0.116 1.038,-0.31 1.503,-0.58 0.466,-0.27 0.884,-0.609 1.256,-1.017 0.369,-0.407 0.669,-0.871 0.896,-1.389 0.26,-0.591 0.408,-1.171 0.445,-1.741 0.038,-0.57 -0.03,-1.144 -0.203,-1.722 -0.106,-0.367 -0.087,-0.726 0.057,-1.079 z m -4.415,-2.66 c -0.558,-0.064 -1.107,-0.036 -1.646,0.085 -0.539,0.121 -1.04,0.316 -1.506,0.586 -0.464,0.271 -0.884,0.609 -1.254,1.018 -0.371,0.407 -0.669,0.865 -0.893,1.375 -0.225,0.51 -0.361,1.041 -0.412,1.595 -0.053,0.554 -0.021,1.096 0.093,1.626 0.114,0.529 0.31,1.031 0.586,1.505 0.277,0.474 0.631,0.891 1.06,1.25 z"
           id="path154" />
        <path
           inkscape:connector-curvature="0"
           d="m 1195.188,427.447 0.279,0.091 c -0.33,-0.878 -0.511,-1.773 -0.542,-2.688 -0.031,-0.913 0.105,-1.835 0.408,-2.763 0.132,-0.408 0.304,-0.838 0.512,-1.289 0.208,-0.451 0.448,-0.85 0.722,-1.198 0.273,-0.347 0.576,-0.61 0.912,-0.789 0.335,-0.178 0.703,-0.202 1.102,-0.072 0.204,0.066 0.381,0.168 0.533,0.305 0.15,0.136 0.271,0.292 0.363,0.466 0.093,0.174 0.147,0.361 0.164,0.562 0.017,0.201 -0.01,0.402 -0.075,0.606 -0.058,0.177 -0.175,0.365 -0.352,0.563 -0.424,0.509 -0.747,1.107 -0.972,1.795 -0.22,0.678 -0.299,1.355 -0.238,2.033 0.063,0.677 0.242,1.309 0.54,1.893 0.297,0.585 0.701,1.102 1.212,1.551 0.512,0.449 1.105,0.783 1.783,1.005 l 6.352,2.069 c 0.399,0.13 0.694,0.383 0.885,0.759 0.191,0.375 0.221,0.763 0.092,1.162 -0.134,0.408 -0.389,0.708 -0.763,0.898 -0.376,0.191 -0.763,0.222 -1.163,0.092 l -12.701,-4.139 c -0.399,-0.131 -0.695,-0.383 -0.886,-0.759 -0.191,-0.376 -0.221,-0.768 -0.087,-1.177 0.13,-0.398 0.383,-0.693 0.759,-0.885 0.376,-0.19 0.763,-0.221 1.161,-0.091 z"
           id="path156" />
        <path
           inkscape:connector-curvature="0"
           d="m 1207.005,412.919 c -0.559,0.809 -1.062,1.349 -1.511,1.621 v -0.015 c -0.906,0.543 -1.853,0.692 -2.84,0.452 -0.721,-0.177 -1.326,-0.528 -1.814,-1.055 -0.49,-0.527 -0.863,-1.148 -1.121,-1.865 -0.256,-0.716 -0.402,-1.488 -0.437,-2.315 -0.033,-0.827 0.044,-1.631 0.233,-2.408 0.581,-2.371 2.031,-4.174 4.354,-5.405 0.295,-0.139 0.619,-0.166 0.97,-0.08 0.426,0.104 0.745,0.331 0.958,0.679 0.211,0.349 0.264,0.736 0.159,1.163 -0.074,0.304 -0.223,0.541 -0.445,0.713 -0.222,0.172 -0.458,0.333 -0.706,0.483 -1.204,0.73 -1.976,1.789 -2.314,3.174 -0.333,1.366 -0.183,2.559 0.453,3.579 0.115,0.189 0.304,0.316 0.569,0.381 0.267,0.065 0.476,-0.015 0.632,-0.238 l 3.818,-6.123 c 0.589,-0.842 1.093,-1.382 1.513,-1.621 v 0.015 c 0.906,-0.542 1.854,-0.693 2.84,-0.452 0.73,0.179 1.338,0.53 1.822,1.056 0.485,0.526 0.858,1.147 1.12,1.865 0.262,0.718 0.408,1.486 0.438,2.309 0.03,0.821 -0.05,1.621 -0.24,2.399 -0.584,2.391 -2.025,4.195 -4.323,5.412 -0.327,0.142 -0.66,0.171 -1.002,0.087 -0.427,-0.104 -0.746,-0.33 -0.957,-0.679 -0.212,-0.348 -0.266,-0.735 -0.161,-1.163 0.077,-0.313 0.234,-0.555 0.473,-0.729 0.238,-0.173 0.465,-0.328 0.68,-0.467 1.204,-0.731 1.977,-1.794 2.317,-3.188 0.332,-1.357 0.171,-2.553 -0.48,-3.586 -0.126,-0.182 -0.304,-0.301 -0.531,-0.356 -0.265,-0.064 -0.481,0.018 -0.649,0.248 z"
           id="path158" />
      </g>
    </g>
  </g>
</svg>
